<svg width="24" height="24" viewBox="0 0 24 24" fill="none" xmlns="http://www.w3.org/2000/svg">
<path d="M20.2652 9H2.62983C2.31492 9 2 8.7 2 8.4V3.6C2 3.3 2.31492 3 2.62983 3H20.3702C20.6851 3 21 3.3 21 3.6V8.5C20.895 8.7 20.5801 9 20.2652 9Z" stroke="white" stroke-width="1.2" stroke-miterlimit="10"/>
<path d="M9.30864 21H2.59259C2.2963 21 2 20.7 2 20.4V12.6C2 12.3 2.2963 12 2.59259 12H9.40741C9.7037 12 10 12.3 10 12.6V20.5C9.90123 20.7 9.60494 21 9.30864 21Z" stroke="white" stroke-width="1.2" stroke-miterlimit="10"/>
<path d="M20.4074 21H13.5926C13.2963 21 13 20.7 13 20.4V12.6C13 12.3 13.2963 12 13.5926 12H20.4074C20.7037 12 21 12.3 21 12.6V20.5C21 20.7 20.7037 21 20.4074 21Z" stroke="white" stroke-width="1.2" stroke-miterlimit="10"/>
</svg>
