<svg width="24" height="24" viewBox="0 0 24 24" fill="none" xmlns="http://www.w3.org/2000/svg">
<path d="M18.3999 16.8594V19.3694C18.3999 20.0194 17.8699 20.5494 17.2199 20.5494H6.34992C5.69992 20.5494 5.16992 20.0194 5.16992 19.3694V16.8594" stroke="white" stroke-width="1.2" stroke-miterlimit="10" stroke-linecap="round" stroke-linejoin="round"/>
<path d="M5.53906 8.09039V4.58039C5.53906 3.93039 6.05906 3.40039 6.68906 3.40039H17.2691C17.9091 3.40039 18.4191 3.93039 18.4191 4.58039V8.09039" stroke="white" stroke-width="1.2" stroke-miterlimit="10" stroke-linecap="round" stroke-linejoin="round"/>
<path d="M5.63091 8.39062H7.32091C7.73091 8.39062 7.99091 8.84063 7.78091 9.19063L6.94091 10.6606L6.09091 12.1306C5.88091 12.4906 5.37091 12.4906 5.16091 12.1306L4.32091 10.6606L3.47091 9.19063C3.26091 8.83063 3.52091 8.39062 3.93091 8.39062H5.63091Z" stroke="white" stroke-width="1.2" stroke-miterlimit="10" stroke-linecap="round" stroke-linejoin="round"/>
<path d="M18.4908 16.3909H20.1808C20.5908 16.3909 20.8507 15.9409 20.6407 15.5909L19.7908 14.1209L18.9408 12.6509C18.7308 12.2909 18.2208 12.2909 18.0108 12.6509L17.1608 14.1209L16.3108 15.5909C16.1008 15.9509 16.3608 16.3909 16.7708 16.3909H18.4908Z" stroke="white" stroke-width="1.2" stroke-miterlimit="10" stroke-linecap="round" stroke-linejoin="round"/>
</svg>
