<svg width="613" height="284" viewBox="0 0 613 284" fill="none" xmlns="http://www.w3.org/2000/svg">
<path d="M18.2305 275.662H15.9453V282H15.0127V275.662H12.7324V274.891H18.2305V275.662ZM20.8477 282.098C20.1315 282.098 19.5488 281.863 19.0996 281.395C18.6504 280.923 18.4258 280.293 18.4258 279.505V279.339C18.4258 278.815 18.5251 278.348 18.7236 277.938C18.9255 277.524 19.2054 277.202 19.5635 276.971C19.9248 276.736 20.3154 276.619 20.7354 276.619C21.4222 276.619 21.9561 276.845 22.3369 277.298C22.7178 277.75 22.9082 278.398 22.9082 279.241V279.617H19.3291C19.3421 280.138 19.4935 280.56 19.7832 280.882C20.0762 281.201 20.4473 281.36 20.8965 281.36C21.2155 281.36 21.4857 281.295 21.707 281.165C21.9284 281.035 22.1221 280.862 22.2881 280.647L22.8398 281.077C22.3971 281.757 21.7331 282.098 20.8477 282.098ZM20.7354 277.361C20.3708 277.361 20.0648 277.495 19.8174 277.762C19.57 278.025 19.417 278.396 19.3584 278.875H22.0049V278.807C21.9788 278.348 21.8551 277.993 21.6338 277.742C21.4124 277.488 21.113 277.361 20.7354 277.361ZM25.7305 278.646L26.9023 276.717H27.957L26.2285 279.329L28.0107 282H26.9658L25.7451 280.022L24.5244 282H23.4746L25.2568 279.329L23.5283 276.717H24.5732L25.7305 278.646ZM30.1445 275.438V276.717H31.1309V277.415H30.1445V280.691C30.1445 280.903 30.1885 281.062 30.2764 281.17C30.3643 281.274 30.514 281.326 30.7256 281.326C30.8298 281.326 30.973 281.307 31.1553 281.268V282C30.9176 282.065 30.6865 282.098 30.4619 282.098C30.0583 282.098 29.7539 281.976 29.5488 281.731C29.3438 281.487 29.2412 281.141 29.2412 280.691V277.415H28.2793V276.717H29.2412V275.438H30.1445Z" fill="#A3A3A3"/>
<path d="M599.23 275.662H596.945V282H596.013V275.662H593.732V274.891H599.23V275.662ZM601.848 282.098C601.132 282.098 600.549 281.863 600.1 281.395C599.65 280.923 599.426 280.293 599.426 279.505V279.339C599.426 278.815 599.525 278.348 599.724 277.938C599.925 277.524 600.205 277.202 600.563 276.971C600.925 276.736 601.315 276.619 601.735 276.619C602.422 276.619 602.956 276.845 603.337 277.298C603.718 277.75 603.908 278.398 603.908 279.241V279.617H600.329C600.342 280.138 600.493 280.56 600.783 280.882C601.076 281.201 601.447 281.36 601.896 281.36C602.215 281.36 602.486 281.295 602.707 281.165C602.928 281.035 603.122 280.862 603.288 280.647L603.84 281.077C603.397 281.757 602.733 282.098 601.848 282.098ZM601.735 277.361C601.371 277.361 601.065 277.495 600.817 277.762C600.57 278.025 600.417 278.396 600.358 278.875H603.005V278.807C602.979 278.348 602.855 277.993 602.634 277.742C602.412 277.488 602.113 277.361 601.735 277.361ZM606.73 278.646L607.902 276.717H608.957L607.229 279.329L609.011 282H607.966L606.745 280.022L605.524 282H604.475L606.257 279.329L604.528 276.717H605.573L606.73 278.646ZM611.145 275.438V276.717H612.131V277.415H611.145V280.691C611.145 280.903 611.188 281.062 611.276 281.17C611.364 281.274 611.514 281.326 611.726 281.326C611.83 281.326 611.973 281.307 612.155 281.268V282C611.918 282.065 611.687 282.098 611.462 282.098C611.058 282.098 610.754 281.976 610.549 281.731C610.344 281.487 610.241 281.141 610.241 280.691V277.415H609.279V276.717H610.241V275.438H611.145Z" fill="#A3A3A3"/>
<path d="M11.4336 263.968C11.4336 265.026 11.2529 265.812 10.8916 266.326C10.5303 266.84 9.96549 267.098 9.19727 267.098C8.4388 267.098 7.87728 266.847 7.5127 266.346C7.14811 265.841 6.95931 265.089 6.94629 264.09V262.884C6.94629 261.839 7.12695 261.062 7.48828 260.555C7.84961 260.047 8.41602 259.793 9.1875 259.793C9.95247 259.793 10.5156 260.039 10.877 260.53C11.2383 261.019 11.4238 261.774 11.4336 262.796V263.968ZM10.5303 262.732C10.5303 261.967 10.4229 261.411 10.208 261.062C9.99316 260.711 9.65299 260.535 9.1875 260.535C8.72526 260.535 8.38835 260.709 8.17676 261.058C7.96517 261.406 7.85612 261.941 7.84961 262.664V264.109C7.84961 264.878 7.96029 265.446 8.18164 265.813C8.40625 266.178 8.74479 266.36 9.19727 266.36C9.64323 266.36 9.97363 266.188 10.1885 265.843C10.4066 265.498 10.5205 264.954 10.5303 264.212V262.732Z" fill="#A3A3A3"/>
<path d="M4.3291 230H3.4209V223.979L1.59961 224.648V223.828L4.1875 222.856H4.3291V230ZM11.4336 226.968C11.4336 228.026 11.2529 228.812 10.8916 229.326C10.5303 229.84 9.96549 230.098 9.19727 230.098C8.4388 230.098 7.87728 229.847 7.5127 229.346C7.14811 228.841 6.95931 228.089 6.94629 227.09V225.884C6.94629 224.839 7.12695 224.062 7.48828 223.555C7.84961 223.047 8.41602 222.793 9.1875 222.793C9.95247 222.793 10.5156 223.039 10.877 223.53C11.2383 224.019 11.4238 224.774 11.4336 225.796V226.968ZM10.5303 225.732C10.5303 224.967 10.4229 224.411 10.208 224.062C9.99316 223.711 9.65299 223.535 9.1875 223.535C8.72526 223.535 8.38835 223.709 8.17676 224.058C7.96517 224.406 7.85612 224.941 7.84961 225.664V227.109C7.84961 227.878 7.96029 228.446 8.18164 228.813C8.40625 229.178 8.74479 229.36 9.19727 229.36C9.64323 229.36 9.97363 229.188 10.1885 228.843C10.4066 228.498 10.5205 227.954 10.5303 227.212V225.732Z" fill="#A3A3A3"/>
<path d="M6.01855 193H1.36035V192.351L3.82129 189.616C4.18587 189.203 4.43652 188.868 4.57324 188.61C4.71322 188.35 4.7832 188.081 4.7832 187.805C4.7832 187.434 4.6709 187.129 4.44629 186.892C4.22168 186.654 3.9222 186.535 3.54785 186.535C3.09863 186.535 2.7487 186.664 2.49805 186.921C2.25065 187.175 2.12695 187.53 2.12695 187.985H1.22363C1.22363 187.331 1.43359 186.802 1.85352 186.398C2.27669 185.995 2.84147 185.793 3.54785 185.793C4.20866 185.793 4.73112 185.967 5.11523 186.315C5.49935 186.66 5.69141 187.121 5.69141 187.697C5.69141 188.397 5.24544 189.23 4.35352 190.197L2.44922 192.263H6.01855V193ZM11.4336 189.968C11.4336 191.026 11.2529 191.812 10.8916 192.326C10.5303 192.84 9.96549 193.098 9.19727 193.098C8.4388 193.098 7.87728 192.847 7.5127 192.346C7.14811 191.841 6.95931 191.089 6.94629 190.09V188.884C6.94629 187.839 7.12695 187.062 7.48828 186.555C7.84961 186.047 8.41602 185.793 9.1875 185.793C9.95247 185.793 10.5156 186.039 10.877 186.53C11.2383 187.019 11.4238 187.774 11.4336 188.796V189.968ZM10.5303 188.732C10.5303 187.967 10.4229 187.411 10.208 187.062C9.99316 186.711 9.65299 186.535 9.1875 186.535C8.72526 186.535 8.38835 186.709 8.17676 187.058C7.96517 187.406 7.85612 187.941 7.84961 188.664V190.109C7.84961 190.878 7.96029 191.446 8.18164 191.813C8.40625 192.178 8.74479 192.36 9.19727 192.36C9.64323 192.36 9.97363 192.188 10.1885 191.843C10.4066 191.498 10.5205 190.954 10.5303 190.212V188.732Z" fill="#A3A3A3"/>
<path d="M2.67383 152.006H3.35254C3.77897 151.999 4.11426 151.887 4.3584 151.669C4.60254 151.451 4.72461 151.156 4.72461 150.785C4.72461 149.952 4.30957 149.535 3.47949 149.535C3.08887 149.535 2.77637 149.647 2.54199 149.872C2.31087 150.093 2.19531 150.388 2.19531 150.756H1.29199C1.29199 150.193 1.49707 149.726 1.90723 149.354C2.32064 148.98 2.84473 148.793 3.47949 148.793C4.15007 148.793 4.67578 148.97 5.05664 149.325C5.4375 149.68 5.62793 150.173 5.62793 150.805C5.62793 151.114 5.52702 151.413 5.3252 151.703C5.12663 151.993 4.85482 152.209 4.50977 152.353C4.90039 152.476 5.2015 152.681 5.41309 152.968C5.62793 153.254 5.73535 153.604 5.73535 154.018C5.73535 154.656 5.52702 155.162 5.11035 155.536C4.69368 155.91 4.15169 156.098 3.48438 156.098C2.81706 156.098 2.27344 155.917 1.85352 155.556C1.43685 155.194 1.22852 154.717 1.22852 154.125H2.13672C2.13672 154.499 2.25879 154.799 2.50293 155.023C2.74707 155.248 3.07422 155.36 3.48438 155.36C3.92057 155.36 4.25423 155.246 4.48535 155.019C4.71647 154.791 4.83203 154.464 4.83203 154.037C4.83203 153.624 4.70508 153.306 4.45117 153.085C4.19727 152.864 3.83105 152.75 3.35254 152.743H2.67383V152.006ZM11.4336 152.968C11.4336 154.026 11.2529 154.812 10.8916 155.326C10.5303 155.84 9.96549 156.098 9.19727 156.098C8.4388 156.098 7.87728 155.847 7.5127 155.346C7.14811 154.841 6.95931 154.089 6.94629 153.09V151.884C6.94629 150.839 7.12695 150.062 7.48828 149.555C7.84961 149.047 8.41602 148.793 9.1875 148.793C9.95247 148.793 10.5156 149.039 10.877 149.53C11.2383 150.019 11.4238 150.774 11.4336 151.796V152.968ZM10.5303 151.732C10.5303 150.967 10.4229 150.411 10.208 150.062C9.99316 149.711 9.65299 149.535 9.1875 149.535C8.72526 149.535 8.38835 149.709 8.17676 150.058C7.96517 150.406 7.85612 150.941 7.84961 151.664V153.109C7.84961 153.878 7.96029 154.446 8.18164 154.813C8.40625 155.178 8.74479 155.36 9.19727 155.36C9.64323 155.36 9.97363 155.188 10.1885 154.843C10.4066 154.498 10.5205 153.954 10.5303 153.212V151.732Z" fill="#A3A3A3"/>
<path d="M5.17383 116.612H6.16016V117.35H5.17383V119H4.26562V117.35H1.02832V116.817L4.21191 111.891H5.17383V116.612ZM2.05371 116.612H4.26562V113.126L4.1582 113.321L2.05371 116.612ZM11.4336 115.968C11.4336 117.026 11.2529 117.812 10.8916 118.326C10.5303 118.84 9.96549 119.098 9.19727 119.098C8.4388 119.098 7.87728 118.847 7.5127 118.346C7.14811 117.841 6.95931 117.089 6.94629 116.09V114.884C6.94629 113.839 7.12695 113.062 7.48828 112.555C7.84961 112.047 8.41602 111.793 9.1875 111.793C9.95247 111.793 10.5156 112.039 10.877 112.53C11.2383 113.019 11.4238 113.774 11.4336 114.796V115.968ZM10.5303 114.732C10.5303 113.967 10.4229 113.411 10.208 113.062C9.99316 112.711 9.65299 112.535 9.1875 112.535C8.72526 112.535 8.38835 112.709 8.17676 113.058C7.96517 113.406 7.85612 113.941 7.84961 114.664V116.109C7.84961 116.878 7.96029 117.446 8.18164 117.813C8.40625 118.178 8.74479 118.36 9.19727 118.36C9.64323 118.36 9.97363 118.188 10.1885 117.843C10.4066 117.498 10.5205 116.954 10.5303 116.212V114.732Z" fill="#A3A3A3"/>
<path d="M1.77539 78.4355L2.13672 74.8906H5.7793V75.7256H2.90332L2.68848 77.6641C3.03678 77.459 3.43229 77.3564 3.875 77.3564C4.52279 77.3564 5.03711 77.5713 5.41797 78.001C5.79883 78.4274 5.98926 79.0052 5.98926 79.7344C5.98926 80.4668 5.79069 81.0446 5.39355 81.4678C4.99967 81.8877 4.44792 82.0977 3.73828 82.0977C3.11003 82.0977 2.59733 81.9235 2.2002 81.5752C1.80306 81.2269 1.57682 80.7451 1.52148 80.1299H2.37598C2.43132 80.5368 2.57617 80.8444 2.81055 81.0527C3.04492 81.2578 3.35417 81.3604 3.73828 81.3604C4.1582 81.3604 4.48698 81.2171 4.72461 80.9307C4.96549 80.6442 5.08594 80.2487 5.08594 79.7441C5.08594 79.2689 4.95573 78.888 4.69531 78.6016C4.43815 78.3118 4.09473 78.167 3.66504 78.167C3.27116 78.167 2.96191 78.2533 2.7373 78.4258L2.49805 78.6211L1.77539 78.4355ZM11.4336 78.9678C11.4336 80.0257 11.2529 80.8118 10.8916 81.3262C10.5303 81.8405 9.96549 82.0977 9.19727 82.0977C8.4388 82.0977 7.87728 81.847 7.5127 81.3457C7.14811 80.8411 6.95931 80.0892 6.94629 79.0898V77.8838C6.94629 76.8389 7.12695 76.0625 7.48828 75.5547C7.84961 75.0469 8.41602 74.793 9.1875 74.793C9.95247 74.793 10.5156 75.0387 10.877 75.5303C11.2383 76.0186 11.4238 76.7738 11.4336 77.7959V78.9678ZM10.5303 77.7324C10.5303 76.9674 10.4229 76.4108 10.208 76.0625C9.99316 75.7109 9.65299 75.5352 9.1875 75.5352C8.72526 75.5352 8.38835 75.7093 8.17676 76.0576C7.96517 76.4059 7.85612 76.9414 7.84961 77.6641V79.1094C7.84961 79.8776 7.96029 80.4456 8.18164 80.8135C8.40625 81.1781 8.74479 81.3604 9.19727 81.3604C9.64323 81.3604 9.97363 81.1878 10.1885 80.8428C10.4066 80.4977 10.5205 79.9541 10.5303 79.2119V77.7324Z" fill="#A3A3A3"/>
<path d="M4.90527 37.8857V38.6523H4.73926C4.03613 38.6654 3.47624 38.8737 3.05957 39.2773C2.6429 39.681 2.40202 40.249 2.33691 40.9814C2.71126 40.5518 3.22233 40.3369 3.87012 40.3369C4.48861 40.3369 4.98177 40.555 5.34961 40.9912C5.7207 41.4274 5.90625 41.9906 5.90625 42.6807C5.90625 43.4131 5.70605 43.999 5.30566 44.4385C4.90853 44.8779 4.37467 45.0977 3.7041 45.0977C3.02376 45.0977 2.47201 44.8372 2.04883 44.3164C1.62565 43.7923 1.41406 43.1185 1.41406 42.2949V41.9482C1.41406 40.6396 1.69238 39.6403 2.24902 38.9502C2.80892 38.2568 3.64062 37.902 4.74414 37.8857H4.90527ZM3.71875 41.0889C3.40951 41.0889 3.12467 41.1816 2.86426 41.3672C2.60384 41.5527 2.42318 41.7855 2.32227 42.0654V42.3975C2.32227 42.9834 2.4541 43.4554 2.71777 43.8135C2.98145 44.1715 3.31022 44.3506 3.7041 44.3506C4.111 44.3506 4.43001 44.2008 4.66113 43.9014C4.89551 43.6019 5.0127 43.2096 5.0127 42.7246C5.0127 42.2363 4.89388 41.8424 4.65625 41.543C4.42188 41.2402 4.10938 41.0889 3.71875 41.0889ZM11.4336 41.9678C11.4336 43.0257 11.2529 43.8118 10.8916 44.3262C10.5303 44.8405 9.96549 45.0977 9.19727 45.0977C8.4388 45.0977 7.87728 44.847 7.5127 44.3457C7.14811 43.8411 6.95931 43.0892 6.94629 42.0898V40.8838C6.94629 39.8389 7.12695 39.0625 7.48828 38.5547C7.84961 38.0469 8.41602 37.793 9.1875 37.793C9.95247 37.793 10.5156 38.0387 10.877 38.5303C11.2383 39.0186 11.4238 39.7738 11.4336 40.7959V41.9678ZM10.5303 40.7324C10.5303 39.9674 10.4229 39.4108 10.208 39.0625C9.99316 38.7109 9.65299 38.5352 9.1875 38.5352C8.72526 38.5352 8.38835 38.7093 8.17676 39.0576C7.96517 39.4059 7.85612 39.9414 7.84961 40.6641V42.1094C7.84961 42.8776 7.96029 43.4456 8.18164 43.8135C8.40625 44.1781 8.74479 44.3604 9.19727 44.3604C9.64323 44.3604 9.97363 44.1878 10.1885 43.8428C10.4066 43.4977 10.5205 42.9541 10.5303 42.2119V40.7324Z" fill="#A3A3A3"/>
<path d="M5.9502 1.39844L3.00586 8H2.05859L4.99316 1.63281H1.14551V0.890625H5.9502V1.39844ZM11.4336 4.96777C11.4336 6.02572 11.2529 6.81185 10.8916 7.32617C10.5303 7.84049 9.96549 8.09766 9.19727 8.09766C8.4388 8.09766 7.87728 7.84701 7.5127 7.3457C7.14811 6.84115 6.95931 6.08919 6.94629 5.08984V3.88379C6.94629 2.83887 7.12695 2.0625 7.48828 1.55469C7.84961 1.04688 8.41602 0.792969 9.1875 0.792969C9.95247 0.792969 10.5156 1.03874 10.877 1.53027C11.2383 2.01855 11.4238 2.77376 11.4336 3.7959V4.96777ZM10.5303 3.73242C10.5303 2.96745 10.4229 2.41081 10.208 2.0625C9.99316 1.71094 9.65299 1.53516 9.1875 1.53516C8.72526 1.53516 8.38835 1.70931 8.17676 2.05762C7.96517 2.40592 7.85612 2.94141 7.84961 3.66406V5.10938C7.84961 5.8776 7.96029 6.44564 8.18164 6.81348C8.40625 7.17806 8.74479 7.36035 9.19727 7.36035C9.64323 7.36035 9.97363 7.18783 10.1885 6.84277C10.4066 6.49772 10.5205 5.9541 10.5303 5.21191V3.73242Z" fill="#A3A3A3"/>
<path d="M22 5V264" stroke="#F0F0F0"/>
<path d="M603 5V264" stroke="#F0F0F0"/>
<path d="M22 264H602" stroke="#F0F0F0"/>
<path d="M22 227H602" stroke="#F0F0F0"/>
<path d="M22 190H602" stroke="#F0F0F0"/>
<path d="M22 153H602" stroke="#F0F0F0"/>
<path d="M22 116H602" stroke="#F0F0F0"/>
<path d="M22 79H602" stroke="#F0F0F0"/>
<path d="M22 42H602" stroke="#F0F0F0"/>
<path d="M22 5H602" stroke="#F0F0F0"/>
<path d="M22 186L602 16" stroke="#A6CEE3" stroke-width="2"/>
<circle cx="22" cy="186" r="4" fill="#A6CEE3"/>
<circle cx="602" cy="16" r="4" fill="#A6CEE3"/>
</svg>
