              <svg
                width="456"
                height="250"
                viewBox="0 0 456 250"
                fill="none"
                xmlns="http://www.w3.org/2000/svg"
              >
                <g clip-path="url(#clip0)">
                  <path
                    d="M16.7765 62.5107C11.3577 71.8744 7.10942 81.9749 4.24831 92.639C1.4739 102.956 0 113.794 0 125.022C0 136.249 1.4739 147.043 4.24831 157.361C7.10942 168.025 11.3577 178.169 16.7765 187.489C22.2819 196.983 28.9145 205.696 36.6308 213.369L125.022 124.978L16.7765 62.5107Z"
                    fill="#93F9BC"
                  />
                  <path
                    d="M92.6342 4.24831C81.9701 7.10942 71.8261 11.3577 62.5059 16.7765C53.0122 22.2819 44.2988 28.9145 36.6258 36.6308C28.9095 44.3471 22.2769 53.0605 16.7715 62.5108L125.017 125.022V0C113.789 0 102.952 1.4739 92.6342 4.24831Z"
                    fill="#B2D3FE"
                  />
                  <path
                    d="M245.75 92.6377L125.02 124.977L36.6289 213.411C44.3452 221.127 53.0586 227.76 62.5089 233.265C71.8725 238.684 81.9731 242.933 92.6373 245.794C102.955 248.568 113.792 250.042 124.976 250.042C136.161 250.042 146.998 248.568 157.316 245.794C167.98 242.933 178.124 238.684 187.444 233.265C196.938 227.76 205.651 221.127 213.324 213.411C221.04 205.695 227.673 196.981 233.178 187.531C238.597 178.167 242.845 168.067 245.706 157.403C248.481 147.085 249.955 136.248 249.955 125.064C249.955 113.879 248.524 102.955 245.75 92.6377Z"
                    fill="#FF6139"
                  />
                  <path
                    d="M245.751 92.6392C242.89 81.975 238.642 71.8311 233.223 62.5108C227.718 53.0172 221.085 44.3038 213.369 36.6308C205.653 28.9145 196.939 22.2819 187.489 16.7765C178.125 11.3577 168.025 7.10942 157.361 4.24831C147.043 1.4739 136.206 0 125.021 0V125.022L245.751 92.6392Z"
                    fill="#2D72C9"
                  />
                  <path
                    d="M175.523 175.627C203.304 147.846 203.304 102.805 175.523 75.0239C147.742 47.2432 102.701 47.2432 74.9205 75.0239C47.1398 102.805 47.1398 147.846 74.9205 175.627C102.701 203.407 147.742 203.407 175.523 175.627Z"
                    fill="white"
                  />
                </g>
                <rect
                  x="280"
                  y="40"
                  width="30"
                  height="20"
                  rx="3"
                  fill="#FF6139"
                />
                <path
                  d="M322.939 56H321.319V46.0059H326.959V47.3867H322.939V50.5107H326.706V51.8984H322.939V56ZM330.206 56H328.6V48.4395H330.206V56ZM328.504 46.4365C328.504 46.1494 328.581 45.9284 328.736 45.7734C328.896 45.6185 329.121 45.541 329.413 45.541C329.696 45.541 329.914 45.6185 330.069 45.7734C330.229 45.9284 330.309 46.1494 330.309 46.4365C330.309 46.71 330.229 46.9264 330.069 47.0859C329.914 47.2409 329.696 47.3184 329.413 47.3184C329.121 47.3184 328.896 47.2409 328.736 47.0859C328.581 46.9264 328.504 46.71 328.504 46.4365ZM339.161 56H337.548V51.3516C337.548 50.7682 337.429 50.333 337.192 50.0459C336.96 49.7588 336.589 49.6152 336.078 49.6152C335.399 49.6152 334.902 49.8158 334.588 50.2168C334.273 50.6178 334.116 51.29 334.116 52.2334V56H332.51V48.4395H333.768L333.993 49.4307H334.075C334.303 49.0706 334.627 48.7926 335.046 48.5967C335.465 48.4007 335.93 48.3027 336.44 48.3027C338.254 48.3027 339.161 49.2256 339.161 51.0713V56ZM346.127 56L345.806 54.9473H345.751C345.386 55.4076 345.02 55.722 344.65 55.8906C344.281 56.0547 343.807 56.1367 343.229 56.1367C342.486 56.1367 341.905 55.9362 341.485 55.5352C341.071 55.1341 340.863 54.5667 340.863 53.833C340.863 53.0537 341.153 52.4658 341.731 52.0693C342.31 51.6729 343.192 51.4564 344.377 51.4199L345.683 51.3789V50.9756C345.683 50.4925 345.569 50.1325 345.341 49.8955C345.118 49.654 344.769 49.5332 344.295 49.5332C343.908 49.5332 343.536 49.5902 343.181 49.7041C342.825 49.818 342.483 49.9525 342.155 50.1074L341.636 48.959C342.046 48.7448 342.495 48.583 342.982 48.4736C343.47 48.3597 343.93 48.3027 344.363 48.3027C345.325 48.3027 346.049 48.5124 346.537 48.9316C347.029 49.3509 347.275 50.0094 347.275 50.9072V56H346.127ZM343.734 54.9062C344.318 54.9062 344.785 54.7445 345.136 54.4209C345.491 54.0928 345.669 53.6348 345.669 53.0469V52.3906L344.698 52.4316C343.942 52.459 343.39 52.5866 343.044 52.8145C342.702 53.0378 342.531 53.3818 342.531 53.8467C342.531 54.1839 342.632 54.446 342.832 54.6328C343.033 54.8151 343.333 54.9062 343.734 54.9062ZM356.169 56H354.556V51.3516C354.556 50.7682 354.437 50.333 354.2 50.0459C353.968 49.7588 353.596 49.6152 353.086 49.6152C352.407 49.6152 351.91 49.8158 351.596 50.2168C351.281 50.6178 351.124 51.29 351.124 52.2334V56H349.518V48.4395H350.775L351.001 49.4307H351.083C351.311 49.0706 351.634 48.7926 352.054 48.5967C352.473 48.4007 352.938 48.3027 353.448 48.3027C355.262 48.3027 356.169 49.2256 356.169 51.0713V56ZM363.456 56H357.721V55.0088L361.542 49.6699H357.953V48.4395H363.347V49.5605L359.607 54.7695H363.456V56ZM369.834 56L369.513 54.9473H369.458C369.093 55.4076 368.727 55.722 368.357 55.8906C367.988 56.0547 367.514 56.1367 366.936 56.1367C366.193 56.1367 365.612 55.9362 365.192 55.5352C364.778 55.1341 364.57 54.5667 364.57 53.833C364.57 53.0537 364.86 52.4658 365.438 52.0693C366.017 51.6729 366.899 51.4564 368.084 51.4199L369.39 51.3789V50.9756C369.39 50.4925 369.276 50.1325 369.048 49.8955C368.825 49.654 368.476 49.5332 368.002 49.5332C367.615 49.5332 367.243 49.5902 366.888 49.7041C366.532 49.818 366.19 49.9525 365.862 50.1074L365.343 48.959C365.753 48.7448 366.202 48.583 366.689 48.4736C367.177 48.3597 367.637 48.3027 368.07 48.3027C369.032 48.3027 369.757 48.5124 370.244 48.9316C370.736 49.3509 370.982 50.0094 370.982 50.9072V56H369.834ZM367.441 54.9062C368.025 54.9062 368.492 54.7445 368.843 54.4209C369.198 54.0928 369.376 53.6348 369.376 53.0469V52.3906L368.405 52.4316C367.649 52.459 367.097 52.5866 366.751 52.8145C366.409 53.0378 366.238 53.3818 366.238 53.8467C366.238 54.1839 366.339 54.446 366.539 54.6328C366.74 54.8151 367.04 54.9062 367.441 54.9062ZM378.304 53.8467C378.304 54.585 378.035 55.1523 377.497 55.5488C376.959 55.9408 376.189 56.1367 375.187 56.1367C374.179 56.1367 373.37 55.984 372.76 55.6787V54.291C373.648 54.7012 374.476 54.9062 375.241 54.9062C376.23 54.9062 376.725 54.6077 376.725 54.0107C376.725 53.8193 376.67 53.6598 376.561 53.5322C376.451 53.4046 376.271 53.2725 376.021 53.1357C375.77 52.999 375.421 52.8441 374.975 52.6709C374.104 52.3337 373.514 51.9964 373.204 51.6592C372.899 51.3219 372.746 50.8844 372.746 50.3467C372.746 49.6995 373.006 49.1982 373.525 48.8428C374.049 48.4827 374.76 48.3027 375.658 48.3027C376.547 48.3027 377.388 48.4827 378.181 48.8428L377.661 50.0527C376.845 49.7155 376.16 49.5469 375.604 49.5469C374.756 49.5469 374.332 49.7884 374.332 50.2715C374.332 50.5085 374.441 50.709 374.66 50.873C374.883 51.0371 375.367 51.2627 376.109 51.5498C376.734 51.7913 377.187 52.0124 377.47 52.2129C377.752 52.4134 377.962 52.6458 378.099 52.9102C378.235 53.1699 378.304 53.4821 378.304 53.8467ZM382.535 48.4395H384.285L385.823 52.7256C386.056 53.3363 386.211 53.9105 386.288 54.4482H386.343C386.384 54.1976 386.459 53.8945 386.568 53.5391C386.678 53.179 387.257 51.4792 388.305 48.4395H390.041L386.808 57.0049C386.22 58.5771 385.24 59.3633 383.868 59.3633C383.513 59.3633 383.166 59.3245 382.829 59.2471V57.9756C383.071 58.0303 383.346 58.0576 383.656 58.0576C384.431 58.0576 384.976 57.6087 385.29 56.7109L385.57 56L382.535 48.4395ZM403.323 56H401.32L396.405 48.0361H396.351L396.385 48.4805C396.449 49.3281 396.48 50.1029 396.48 50.8047V56H394.997V46.0059H396.979L401.881 53.9287H401.922C401.913 53.8239 401.895 53.4434 401.867 52.7871C401.84 52.1263 401.826 51.6113 401.826 51.2422V46.0059H403.323V56ZM409.093 56.1367C407.917 56.1367 406.996 55.7949 406.331 55.1113C405.67 54.4232 405.34 53.4775 405.34 52.2744C405.34 51.0394 405.647 50.0687 406.263 49.3623C406.878 48.6559 407.723 48.3027 408.799 48.3027C409.797 48.3027 410.585 48.6058 411.164 49.2119C411.743 49.818 412.032 50.652 412.032 51.7139V52.582H406.994C407.017 53.3158 407.215 53.8809 407.589 54.2773C407.963 54.6693 408.489 54.8652 409.168 54.8652C409.615 54.8652 410.029 54.8242 410.412 54.7422C410.799 54.6556 411.214 54.5143 411.656 54.3184V55.624C411.264 55.8109 410.868 55.943 410.467 56.0205C410.066 56.098 409.608 56.1367 409.093 56.1367ZM408.799 49.5195C408.288 49.5195 407.878 49.6813 407.568 50.0049C407.263 50.3285 407.081 50.8001 407.021 51.4199H410.453C410.444 50.7956 410.294 50.3239 410.002 50.0049C409.71 49.6813 409.309 49.5195 408.799 49.5195ZM420.242 48.4395V49.3213L418.95 49.5605C419.069 49.7201 419.167 49.916 419.244 50.1484C419.322 50.3809 419.36 50.627 419.36 50.8867C419.36 51.666 419.091 52.279 418.554 52.7256C418.016 53.1722 417.275 53.3955 416.332 53.3955C416.09 53.3955 415.872 53.3773 415.676 53.3408C415.329 53.555 415.156 53.8057 415.156 54.0928C415.156 54.266 415.236 54.3958 415.396 54.4824C415.56 54.569 415.858 54.6123 416.291 54.6123H417.61C418.444 54.6123 419.078 54.79 419.511 55.1455C419.944 55.501 420.16 56.0137 420.16 56.6836C420.16 57.5404 419.807 58.2012 419.101 58.666C418.394 59.1309 417.373 59.3633 416.038 59.3633C415.008 59.3633 414.222 59.181 413.68 58.8164C413.137 58.4518 412.866 57.9323 412.866 57.2578C412.866 56.793 413.012 56.401 413.304 56.082C413.6 55.7676 414.012 55.5488 414.541 55.4258C414.327 55.3346 414.149 55.1888 414.008 54.9883C413.871 54.7832 413.803 54.569 413.803 54.3457C413.803 54.0632 413.882 53.8239 414.042 53.6279C414.201 53.432 414.438 53.2383 414.753 53.0469C414.361 52.8783 414.042 52.6048 413.796 52.2266C413.554 51.8438 413.434 51.3971 413.434 50.8867C413.434 50.0664 413.691 49.4307 414.206 48.9795C414.726 48.5283 415.464 48.3027 416.421 48.3027C416.635 48.3027 416.858 48.3187 417.091 48.3506C417.328 48.3779 417.506 48.4076 417.624 48.4395H420.242ZM414.302 57.1758C414.302 57.5221 414.457 57.7887 414.767 57.9756C415.081 58.1624 415.521 58.2559 416.086 58.2559C416.961 58.2559 417.613 58.1305 418.041 57.8799C418.469 57.6292 418.684 57.2965 418.684 56.8818C418.684 56.5537 418.565 56.319 418.328 56.1777C418.096 56.041 417.66 55.9727 417.022 55.9727H415.806C415.345 55.9727 414.979 56.0798 414.705 56.2939C414.436 56.5127 414.302 56.8066 414.302 57.1758ZM414.992 50.8867C414.992 51.3607 415.113 51.7253 415.354 51.9805C415.601 52.2357 415.951 52.3633 416.407 52.3633C417.337 52.3633 417.802 51.8665 417.802 50.873C417.802 50.3809 417.686 50.0026 417.453 49.7383C417.225 49.4694 416.877 49.335 416.407 49.335C415.942 49.335 415.589 49.4671 415.348 49.7314C415.111 49.9958 414.992 50.3809 414.992 50.8867ZM428.356 52.2061C428.356 53.4411 428.04 54.4049 427.406 55.0977C426.773 55.7904 425.891 56.1367 424.761 56.1367C424.054 56.1367 423.43 55.9772 422.888 55.6582C422.345 55.3392 421.928 54.8812 421.637 54.2842C421.345 53.6872 421.199 52.9945 421.199 52.2061C421.199 50.9801 421.514 50.0231 422.143 49.335C422.771 48.6468 423.658 48.3027 424.802 48.3027C425.896 48.3027 426.761 48.6559 427.399 49.3623C428.037 50.0641 428.356 51.012 428.356 52.2061ZM422.854 52.2061C422.854 53.9515 423.498 54.8242 424.788 54.8242C426.064 54.8242 426.702 53.9515 426.702 52.2061C426.702 50.4788 426.06 49.6152 424.774 49.6152C424.1 49.6152 423.61 49.8385 423.305 50.2852C423.004 50.7318 422.854 51.3721 422.854 52.2061ZM433.258 56.1367C432.114 56.1367 431.243 55.804 430.646 55.1387C430.054 54.4688 429.758 53.5094 429.758 52.2607C429.758 50.9893 430.068 50.0117 430.688 49.3281C431.312 48.6445 432.212 48.3027 433.388 48.3027C434.185 48.3027 434.903 48.4508 435.541 48.7471L435.056 50.0391C434.377 49.7747 433.816 49.6426 433.374 49.6426C432.066 49.6426 431.412 50.5107 431.412 52.2471C431.412 53.0947 431.574 53.7327 431.897 54.1611C432.226 54.585 432.704 54.7969 433.333 54.7969C434.049 54.7969 434.725 54.6191 435.363 54.2637V55.665C435.076 55.8337 434.769 55.9544 434.44 56.0273C434.117 56.1003 433.723 56.1367 433.258 56.1367ZM438.747 56H437.141V48.4395H438.747V56ZM437.045 46.4365C437.045 46.1494 437.122 45.9284 437.277 45.7734C437.437 45.6185 437.662 45.541 437.954 45.541C438.237 45.541 438.455 45.6185 438.61 45.7734C438.77 45.9284 438.85 46.1494 438.85 46.4365C438.85 46.71 438.77 46.9264 438.61 47.0859C438.455 47.2409 438.237 47.3184 437.954 47.3184C437.662 47.3184 437.437 47.2409 437.277 47.0859C437.122 46.9264 437.045 46.71 437.045 46.4365ZM447.757 52.2061C447.757 53.4411 447.44 54.4049 446.807 55.0977C446.173 55.7904 445.291 56.1367 444.161 56.1367C443.455 56.1367 442.83 55.9772 442.288 55.6582C441.746 55.3392 441.329 54.8812 441.037 54.2842C440.745 53.6872 440.6 52.9945 440.6 52.2061C440.6 50.9801 440.914 50.0231 441.543 49.335C442.172 48.6468 443.058 48.3027 444.202 48.3027C445.296 48.3027 446.162 48.6559 446.8 49.3623C447.438 50.0641 447.757 51.012 447.757 52.2061ZM442.254 52.2061C442.254 53.9515 442.899 54.8242 444.188 54.8242C445.465 54.8242 446.103 53.9515 446.103 52.2061C446.103 50.4788 445.46 49.6152 444.175 49.6152C443.5 49.6152 443.01 49.8385 442.705 50.2852C442.404 50.7318 442.254 51.3721 442.254 52.2061ZM454.688 53.8467C454.688 54.585 454.42 55.1523 453.882 55.5488C453.344 55.9408 452.574 56.1367 451.571 56.1367C450.564 56.1367 449.755 55.984 449.145 55.6787V54.291C450.033 54.7012 450.86 54.9062 451.626 54.9062C452.615 54.9062 453.109 54.6077 453.109 54.0107C453.109 53.8193 453.055 53.6598 452.945 53.5322C452.836 53.4046 452.656 53.2725 452.405 53.1357C452.155 52.999 451.806 52.8441 451.359 52.6709C450.489 52.3337 449.899 51.9964 449.589 51.6592C449.284 51.3219 449.131 50.8844 449.131 50.3467C449.131 49.6995 449.391 49.1982 449.91 48.8428C450.434 48.4827 451.145 48.3027 452.043 48.3027C452.932 48.3027 453.772 48.4827 454.565 48.8428L454.046 50.0527C453.23 49.7155 452.544 49.5469 451.988 49.5469C451.141 49.5469 450.717 49.7884 450.717 50.2715C450.717 50.5085 450.826 50.709 451.045 50.873C451.268 51.0371 451.751 51.2627 452.494 51.5498C453.118 51.7913 453.572 52.0124 453.854 52.2129C454.137 52.4134 454.347 52.6458 454.483 52.9102C454.62 53.1699 454.688 53.4821 454.688 53.8467Z"
                  fill="black"
                />
                <rect
                  x="280"
                  y="90"
                  width="30"
                  height="20"
                  rx="3"
                  fill="#2D72C9"
                />
                <path
                  d="M329.646 106H327.643L322.728 98.0361H322.673L322.707 98.4805C322.771 99.3281 322.803 100.103 322.803 100.805V106H321.319V96.0059H323.302L328.203 103.929H328.244C328.235 103.824 328.217 103.443 328.189 102.787C328.162 102.126 328.148 101.611 328.148 101.242V96.0059H329.646V106ZM338.819 102.206C338.819 103.441 338.503 104.405 337.869 105.098C337.236 105.79 336.354 106.137 335.224 106.137C334.517 106.137 333.893 105.977 333.351 105.658C332.808 105.339 332.391 104.881 332.1 104.284C331.808 103.687 331.662 102.994 331.662 102.206C331.662 100.98 331.977 100.023 332.605 99.335C333.234 98.6468 334.121 98.3027 335.265 98.3027C336.358 98.3027 337.224 98.6559 337.862 99.3623C338.5 100.064 338.819 101.012 338.819 102.206ZM333.316 102.206C333.316 103.951 333.961 104.824 335.251 104.824C336.527 104.824 337.165 103.951 337.165 102.206C337.165 100.479 336.522 99.6152 335.237 99.6152C334.563 99.6152 334.073 99.8385 333.768 100.285C333.467 100.732 333.316 101.372 333.316 102.206ZM343.488 104.838C343.88 104.838 344.272 104.776 344.664 104.653V105.863C344.486 105.941 344.256 106.005 343.974 106.055C343.696 106.109 343.406 106.137 343.105 106.137C341.583 106.137 340.822 105.335 340.822 103.73V99.6562H339.79V98.9453L340.897 98.3574L341.444 96.7578H342.436V98.4395H344.589V99.6562H342.436V103.703C342.436 104.09 342.531 104.378 342.723 104.564C342.919 104.747 343.174 104.838 343.488 104.838ZM347.788 106H346.182V98.4395H347.788V106ZM346.086 96.4365C346.086 96.1494 346.163 95.9284 346.318 95.7734C346.478 95.6185 346.703 95.541 346.995 95.541C347.278 95.541 347.496 95.6185 347.651 95.7734C347.811 95.9284 347.891 96.1494 347.891 96.4365C347.891 96.71 347.811 96.9264 347.651 97.0859C347.496 97.2409 347.278 97.3184 346.995 97.3184C346.703 97.3184 346.478 97.2409 346.318 97.0859C346.163 96.9264 346.086 96.71 346.086 96.4365ZM353.141 106.137C351.997 106.137 351.126 105.804 350.529 105.139C349.937 104.469 349.641 103.509 349.641 102.261C349.641 100.989 349.951 100.012 350.57 99.3281C351.195 98.6445 352.095 98.3027 353.271 98.3027C354.068 98.3027 354.786 98.4508 355.424 98.7471L354.938 100.039C354.259 99.7747 353.699 99.6426 353.257 99.6426C351.949 99.6426 351.295 100.511 351.295 102.247C351.295 103.095 351.457 103.733 351.78 104.161C352.108 104.585 352.587 104.797 353.216 104.797C353.931 104.797 354.608 104.619 355.246 104.264V105.665C354.959 105.834 354.651 105.954 354.323 106.027C354 106.1 353.605 106.137 353.141 106.137ZM358.63 106H357.023V98.4395H358.63V106ZM356.928 96.4365C356.928 96.1494 357.005 95.9284 357.16 95.7734C357.32 95.6185 357.545 95.541 357.837 95.541C358.119 95.541 358.338 95.6185 358.493 95.7734C358.653 95.9284 358.732 96.1494 358.732 96.4365C358.732 96.71 358.653 96.9264 358.493 97.0859C358.338 97.2409 358.119 97.3184 357.837 97.3184C357.545 97.3184 357.32 97.2409 357.16 97.0859C357.005 96.9264 356.928 96.71 356.928 96.4365ZM365.664 106L365.343 104.947H365.288C364.924 105.408 364.557 105.722 364.188 105.891C363.818 106.055 363.344 106.137 362.766 106.137C362.023 106.137 361.442 105.936 361.022 105.535C360.608 105.134 360.4 104.567 360.4 103.833C360.4 103.054 360.69 102.466 361.269 102.069C361.847 101.673 362.729 101.456 363.914 101.42L365.22 101.379V100.976C365.22 100.493 365.106 100.132 364.878 99.8955C364.655 99.654 364.306 99.5332 363.832 99.5332C363.445 99.5332 363.073 99.5902 362.718 99.7041C362.362 99.818 362.021 99.9525 361.692 100.107L361.173 98.959C361.583 98.7448 362.032 98.583 362.52 98.4736C363.007 98.3597 363.467 98.3027 363.9 98.3027C364.862 98.3027 365.587 98.5124 366.074 98.9316C366.566 99.3509 366.812 100.009 366.812 100.907V106H365.664ZM363.271 104.906C363.855 104.906 364.322 104.744 364.673 104.421C365.028 104.093 365.206 103.635 365.206 103.047V102.391L364.235 102.432C363.479 102.459 362.927 102.587 362.581 102.814C362.239 103.038 362.068 103.382 362.068 103.847C362.068 104.184 362.169 104.446 362.369 104.633C362.57 104.815 362.87 104.906 363.271 104.906ZM374.134 103.847C374.134 104.585 373.865 105.152 373.327 105.549C372.789 105.941 372.019 106.137 371.017 106.137C370.009 106.137 369.201 105.984 368.59 105.679V104.291C369.479 104.701 370.306 104.906 371.071 104.906C372.06 104.906 372.555 104.608 372.555 104.011C372.555 103.819 372.5 103.66 372.391 103.532C372.281 103.405 372.101 103.272 371.851 103.136C371.6 102.999 371.251 102.844 370.805 102.671C369.934 102.334 369.344 101.996 369.034 101.659C368.729 101.322 368.576 100.884 368.576 100.347C368.576 99.6995 368.836 99.1982 369.355 98.8428C369.88 98.4827 370.59 98.3027 371.488 98.3027C372.377 98.3027 373.218 98.4827 374.011 98.8428L373.491 100.053C372.675 99.7155 371.99 99.5469 371.434 99.5469C370.586 99.5469 370.162 99.7884 370.162 100.271C370.162 100.508 370.271 100.709 370.49 100.873C370.714 101.037 371.197 101.263 371.939 101.55C372.564 101.791 373.017 102.012 373.3 102.213C373.582 102.413 373.792 102.646 373.929 102.91C374.065 103.17 374.134 103.482 374.134 103.847Z"
                  fill="black"
                />
                <rect
                  x="280"
                  y="140"
                  width="30"
                  height="20"
                  rx="3"
                  fill="#93F9BC"
                />
                <path
                  d="M327.52 156L326.521 153.225H322.7L321.723 156H320L323.739 145.965H325.517L329.256 156H327.52ZM326.091 151.816L325.154 149.096C325.086 148.913 324.99 148.626 324.867 148.234C324.749 147.842 324.667 147.555 324.621 147.373C324.498 147.934 324.318 148.547 324.081 149.212L323.179 151.816H326.091ZM334.239 148.303C334.563 148.303 334.829 148.326 335.039 148.371L334.882 149.868C334.654 149.813 334.417 149.786 334.171 149.786C333.528 149.786 333.007 149.996 332.605 150.415C332.209 150.834 332.011 151.379 332.011 152.049V156H330.404V148.439H331.662L331.874 149.772H331.956C332.207 149.321 332.533 148.964 332.934 148.699C333.339 148.435 333.774 148.303 334.239 148.303ZM339.264 154.838C339.656 154.838 340.048 154.776 340.439 154.653V155.863C340.262 155.941 340.032 156.005 339.749 156.055C339.471 156.109 339.182 156.137 338.881 156.137C337.359 156.137 336.598 155.335 336.598 153.73V149.656H335.565V148.945L336.673 148.357L337.22 146.758H338.211V148.439H340.364V149.656H338.211V153.703C338.211 154.09 338.307 154.378 338.498 154.564C338.694 154.747 338.949 154.838 339.264 154.838ZM345.259 156.137C344.083 156.137 343.162 155.795 342.497 155.111C341.836 154.423 341.506 153.478 341.506 152.274C341.506 151.039 341.813 150.069 342.429 149.362C343.044 148.656 343.889 148.303 344.965 148.303C345.963 148.303 346.751 148.606 347.33 149.212C347.909 149.818 348.198 150.652 348.198 151.714V152.582H343.16C343.183 153.316 343.381 153.881 343.755 154.277C344.129 154.669 344.655 154.865 345.334 154.865C345.781 154.865 346.195 154.824 346.578 154.742C346.965 154.656 347.38 154.514 347.822 154.318V155.624C347.43 155.811 347.034 155.943 346.633 156.021C346.232 156.098 345.774 156.137 345.259 156.137ZM344.965 149.52C344.454 149.52 344.044 149.681 343.734 150.005C343.429 150.328 343.247 150.8 343.188 151.42H346.619C346.61 150.796 346.46 150.324 346.168 150.005C345.876 149.681 345.475 149.52 344.965 149.52ZM352.512 148.439H354.262L355.8 152.726C356.032 153.336 356.187 153.91 356.265 154.448H356.319C356.36 154.198 356.436 153.895 356.545 153.539C356.654 153.179 357.233 151.479 358.281 148.439H360.018L356.784 157.005C356.196 158.577 355.216 159.363 353.845 159.363C353.489 159.363 353.143 159.325 352.806 159.247V157.976C353.047 158.03 353.323 158.058 353.633 158.058C354.408 158.058 354.952 157.609 355.267 156.711L355.547 156L352.512 148.439ZM367.852 156.137C366.708 156.137 365.837 155.804 365.24 155.139C364.648 154.469 364.352 153.509 364.352 152.261C364.352 150.989 364.661 150.012 365.281 149.328C365.906 148.645 366.806 148.303 367.981 148.303C368.779 148.303 369.497 148.451 370.135 148.747L369.649 150.039C368.97 149.775 368.41 149.643 367.968 149.643C366.66 149.643 366.006 150.511 366.006 152.247C366.006 153.095 366.168 153.733 366.491 154.161C366.819 154.585 367.298 154.797 367.927 154.797C368.642 154.797 369.319 154.619 369.957 154.264V155.665C369.67 155.834 369.362 155.954 369.034 156.027C368.711 156.1 368.316 156.137 367.852 156.137ZM377.066 156L376.841 155.009H376.759C376.535 155.36 376.216 155.635 375.802 155.836C375.392 156.036 374.922 156.137 374.394 156.137C373.478 156.137 372.794 155.909 372.343 155.453C371.892 154.997 371.666 154.307 371.666 153.382V148.439H373.286V153.102C373.286 153.68 373.405 154.116 373.642 154.407C373.879 154.694 374.25 154.838 374.756 154.838C375.43 154.838 375.925 154.637 376.239 154.236C376.558 153.831 376.718 153.154 376.718 152.206V148.439H378.331V156H377.066ZM382.228 156H380.621V145.363H382.228V156ZM387.348 154.838C387.74 154.838 388.132 154.776 388.523 154.653V155.863C388.346 155.941 388.116 156.005 387.833 156.055C387.555 156.109 387.266 156.137 386.965 156.137C385.443 156.137 384.682 155.335 384.682 153.73V149.656H383.649V148.945L384.757 148.357L385.304 146.758H386.295V148.439H388.448V149.656H386.295V153.703C386.295 154.09 386.391 154.378 386.582 154.564C386.778 154.747 387.033 154.838 387.348 154.838ZM395.373 156L395.147 155.009H395.065C394.842 155.36 394.523 155.635 394.108 155.836C393.698 156.036 393.229 156.137 392.7 156.137C391.784 156.137 391.101 155.909 390.649 155.453C390.198 154.997 389.973 154.307 389.973 153.382V148.439H391.593V153.102C391.593 153.68 391.711 154.116 391.948 154.407C392.185 154.694 392.557 154.838 393.062 154.838C393.737 154.838 394.231 154.637 394.546 154.236C394.865 153.831 395.024 153.154 395.024 152.206V148.439H396.638V156H395.373ZM402.763 148.303C403.086 148.303 403.353 148.326 403.562 148.371L403.405 149.868C403.177 149.813 402.94 149.786 402.694 149.786C402.052 149.786 401.53 149.996 401.129 150.415C400.732 150.834 400.534 151.379 400.534 152.049V156H398.928V148.439H400.186L400.397 149.772H400.479C400.73 149.321 401.056 148.964 401.457 148.699C401.863 148.435 402.298 148.303 402.763 148.303ZM409.701 156L409.38 154.947H409.325C408.961 155.408 408.594 155.722 408.225 155.891C407.855 156.055 407.382 156.137 406.803 156.137C406.06 156.137 405.479 155.936 405.06 155.535C404.645 155.134 404.438 154.567 404.438 153.833C404.438 153.054 404.727 152.466 405.306 152.069C405.884 151.673 406.766 151.456 407.951 151.42L409.257 151.379V150.976C409.257 150.493 409.143 150.132 408.915 149.896C408.692 149.654 408.343 149.533 407.869 149.533C407.482 149.533 407.11 149.59 406.755 149.704C406.399 149.818 406.058 149.952 405.729 150.107L405.21 148.959C405.62 148.745 406.069 148.583 406.557 148.474C407.044 148.36 407.505 148.303 407.938 148.303C408.899 148.303 409.624 148.512 410.111 148.932C410.604 149.351 410.85 150.009 410.85 150.907V156H409.701ZM407.309 154.906C407.892 154.906 408.359 154.744 408.71 154.421C409.065 154.093 409.243 153.635 409.243 153.047V152.391L408.272 152.432C407.516 152.459 406.965 152.587 406.618 152.814C406.276 153.038 406.105 153.382 406.105 153.847C406.105 154.184 406.206 154.446 406.406 154.633C406.607 154.815 406.908 154.906 407.309 154.906Z"
                  fill="black"
                />
                <rect
                  x="280"
                  y="190"
                  width="30"
                  height="20"
                  rx="3"
                  fill="#B2D3FE"
                />
                <path
                  d="M327.937 199.027C327.937 200.071 327.595 200.871 326.911 201.427C326.228 201.983 325.255 202.261 323.992 202.261H322.953V206H321.319V196.006H324.197C325.446 196.006 326.38 196.261 327 196.771C327.624 197.282 327.937 198.034 327.937 199.027ZM322.953 200.887H323.821C324.66 200.887 325.275 200.741 325.667 200.449C326.059 200.158 326.255 199.702 326.255 199.082C326.255 198.508 326.079 198.079 325.729 197.797C325.378 197.514 324.831 197.373 324.088 197.373H322.953V200.887ZM336.468 202.206C336.468 203.441 336.151 204.405 335.518 205.098C334.884 205.79 334.002 206.137 332.872 206.137C332.166 206.137 331.541 205.977 330.999 205.658C330.457 205.339 330.04 204.881 329.748 204.284C329.456 203.687 329.311 202.994 329.311 202.206C329.311 200.98 329.625 200.023 330.254 199.335C330.883 198.647 331.769 198.303 332.913 198.303C334.007 198.303 334.873 198.656 335.511 199.362C336.149 200.064 336.468 201.012 336.468 202.206ZM330.965 202.206C330.965 203.951 331.61 204.824 332.899 204.824C334.175 204.824 334.813 203.951 334.813 202.206C334.813 200.479 334.171 199.615 332.886 199.615C332.211 199.615 331.721 199.839 331.416 200.285C331.115 200.732 330.965 201.372 330.965 202.206ZM339.927 206H338.32V195.363H339.927V206ZM343.837 206H342.23V198.439H343.837V206ZM342.148 197.517V197.346C342.408 197.027 342.675 196.671 342.948 196.279C343.226 195.887 343.445 195.552 343.604 195.274H345.471V195.418C345.234 195.696 344.878 196.056 344.404 196.498C343.935 196.936 343.538 197.275 343.215 197.517H342.148ZM348.957 204.838C349.349 204.838 349.741 204.776 350.133 204.653V205.863C349.955 205.941 349.725 206.005 349.442 206.055C349.164 206.109 348.875 206.137 348.574 206.137C347.052 206.137 346.291 205.335 346.291 203.73V199.656H345.259V198.945L346.366 198.357L346.913 196.758H347.904V198.439H350.058V199.656H347.904V203.703C347.904 204.09 348 204.378 348.191 204.564C348.387 204.747 348.643 204.838 348.957 204.838ZM353.257 206H351.65V198.439H353.257V206ZM351.555 196.437C351.555 196.149 351.632 195.928 351.787 195.773C351.947 195.618 352.172 195.541 352.464 195.541C352.746 195.541 352.965 195.618 353.12 195.773C353.28 195.928 353.359 196.149 353.359 196.437C353.359 196.71 353.28 196.926 353.12 197.086C352.965 197.241 352.746 197.318 352.464 197.318C352.172 197.318 351.947 197.241 351.787 197.086C351.632 196.926 351.555 196.71 351.555 196.437ZM358.609 206.137C357.465 206.137 356.595 205.804 355.998 205.139C355.406 204.469 355.109 203.509 355.109 202.261C355.109 200.989 355.419 200.012 356.039 199.328C356.663 198.645 357.563 198.303 358.739 198.303C359.537 198.303 360.255 198.451 360.893 198.747L360.407 200.039C359.728 199.775 359.168 199.643 358.726 199.643C357.418 199.643 356.764 200.511 356.764 202.247C356.764 203.095 356.925 203.733 357.249 204.161C357.577 204.585 358.056 204.797 358.685 204.797C359.4 204.797 360.077 204.619 360.715 204.264V205.665C360.428 205.834 360.12 205.954 359.792 206.027C359.468 206.1 359.074 206.137 358.609 206.137ZM367.223 206L366.901 204.947H366.847C366.482 205.408 366.115 205.722 365.746 205.891C365.377 206.055 364.903 206.137 364.324 206.137C363.581 206.137 363 205.936 362.581 205.535C362.166 205.134 361.959 204.567 361.959 203.833C361.959 203.054 362.248 202.466 362.827 202.069C363.406 201.673 364.288 201.456 365.473 201.42L366.778 201.379V200.976C366.778 200.493 366.664 200.132 366.437 199.896C366.213 199.654 365.865 199.533 365.391 199.533C365.003 199.533 364.632 199.59 364.276 199.704C363.921 199.818 363.579 199.952 363.251 200.107L362.731 198.959C363.142 198.745 363.59 198.583 364.078 198.474C364.566 198.36 365.026 198.303 365.459 198.303C366.421 198.303 367.145 198.512 367.633 198.932C368.125 199.351 368.371 200.009 368.371 200.907V206H367.223ZM364.83 204.906C365.413 204.906 365.881 204.744 366.231 204.421C366.587 204.093 366.765 203.635 366.765 203.047V202.391L365.794 202.432C365.037 202.459 364.486 202.587 364.14 202.814C363.798 203.038 363.627 203.382 363.627 203.847C363.627 204.184 363.727 204.446 363.928 204.633C364.128 204.815 364.429 204.906 364.83 204.906ZM377.552 206.137C376.376 206.137 375.455 205.795 374.79 205.111C374.129 204.423 373.799 203.478 373.799 202.274C373.799 201.039 374.106 200.069 374.722 199.362C375.337 198.656 376.182 198.303 377.258 198.303C378.256 198.303 379.044 198.606 379.623 199.212C380.202 199.818 380.491 200.652 380.491 201.714V202.582H375.453C375.476 203.316 375.674 203.881 376.048 204.277C376.422 204.669 376.948 204.865 377.627 204.865C378.074 204.865 378.488 204.824 378.871 204.742C379.258 204.656 379.673 204.514 380.115 204.318V205.624C379.723 205.811 379.327 205.943 378.926 206.021C378.525 206.098 378.067 206.137 377.552 206.137ZM377.258 199.52C376.747 199.52 376.337 199.681 376.027 200.005C375.722 200.328 375.54 200.8 375.48 201.42H378.912C378.903 200.796 378.753 200.324 378.461 200.005C378.169 199.681 377.768 199.52 377.258 199.52ZM383.998 202.138L381.462 198.439H383.294L385.017 201.085L386.753 198.439H388.571L386.028 202.138L388.701 206H386.883L385.017 203.17L383.157 206H381.339L383.998 202.138ZM392.844 204.838C393.236 204.838 393.628 204.776 394.02 204.653V205.863C393.842 205.941 393.612 206.005 393.329 206.055C393.051 206.109 392.762 206.137 392.461 206.137C390.939 206.137 390.178 205.335 390.178 203.73V199.656H389.146V198.945L390.253 198.357L390.8 196.758H391.791V198.439H393.944V199.656H391.791V203.703C391.791 204.09 391.887 204.378 392.078 204.564C392.274 204.747 392.529 204.838 392.844 204.838ZM398.839 206.137C397.663 206.137 396.743 205.795 396.077 205.111C395.416 204.423 395.086 203.478 395.086 202.274C395.086 201.039 395.394 200.069 396.009 199.362C396.624 198.656 397.469 198.303 398.545 198.303C399.543 198.303 400.331 198.606 400.91 199.212C401.489 199.818 401.778 200.652 401.778 201.714V202.582H396.74C396.763 203.316 396.961 203.881 397.335 204.277C397.709 204.669 398.235 204.865 398.914 204.865C399.361 204.865 399.775 204.824 400.158 204.742C400.546 204.656 400.96 204.514 401.402 204.318V205.624C401.01 205.811 400.614 205.943 400.213 206.021C399.812 206.098 399.354 206.137 398.839 206.137ZM398.545 199.52C398.035 199.52 397.624 199.681 397.314 200.005C397.009 200.328 396.827 200.8 396.768 201.42H400.199C400.19 200.796 400.04 200.324 399.748 200.005C399.456 199.681 399.055 199.52 398.545 199.52ZM407.438 198.303C407.762 198.303 408.029 198.326 408.238 198.371L408.081 199.868C407.853 199.813 407.616 199.786 407.37 199.786C406.728 199.786 406.206 199.996 405.805 200.415C405.408 200.834 405.21 201.379 405.21 202.049V206H403.604V198.439H404.861L405.073 199.772H405.155C405.406 199.321 405.732 198.964 406.133 198.699C406.538 198.435 406.974 198.303 407.438 198.303ZM411.253 206H409.646V198.439H411.253V206ZM409.551 196.437C409.551 196.149 409.628 195.928 409.783 195.773C409.943 195.618 410.168 195.541 410.46 195.541C410.743 195.541 410.961 195.618 411.116 195.773C411.276 195.928 411.355 196.149 411.355 196.437C411.355 196.71 411.276 196.926 411.116 197.086C410.961 197.241 410.743 197.318 410.46 197.318C410.168 197.318 409.943 197.241 409.783 197.086C409.628 196.926 409.551 196.71 409.551 196.437ZM420.263 202.206C420.263 203.441 419.946 204.405 419.312 205.098C418.679 205.79 417.797 206.137 416.667 206.137C415.961 206.137 415.336 205.977 414.794 205.658C414.252 205.339 413.835 204.881 413.543 204.284C413.251 203.687 413.105 202.994 413.105 202.206C413.105 200.98 413.42 200.023 414.049 199.335C414.678 198.647 415.564 198.303 416.708 198.303C417.802 198.303 418.668 198.656 419.306 199.362C419.944 200.064 420.263 201.012 420.263 202.206ZM414.76 202.206C414.76 203.951 415.405 204.824 416.694 204.824C417.97 204.824 418.608 203.951 418.608 202.206C418.608 200.479 417.966 199.615 416.681 199.615C416.006 199.615 415.516 199.839 415.211 200.285C414.91 200.732 414.76 201.372 414.76 202.206ZM425.95 198.303C426.274 198.303 426.54 198.326 426.75 198.371L426.593 199.868C426.365 199.813 426.128 199.786 425.882 199.786C425.239 199.786 424.717 199.996 424.316 200.415C423.92 200.834 423.722 201.379 423.722 202.049V206H422.115V198.439H423.373L423.585 199.772H423.667C423.918 199.321 424.243 198.964 424.645 198.699C425.05 198.435 425.485 198.303 425.95 198.303Z"
                  fill="black"
                />
                <defs>
                  <clipPath id="clip0">
                    <rect width="250" height="250" fill="white" />
                  </clipPath>
                </defs>
              </svg>