                      <svg
                        width="496"
                        height="235"
                        viewBox="0 0 496 235"
                        fill="none"
                        xmlns="http://www.w3.org/2000/svg"
                      >
                        <g clip-path="url(#clip0)">
                          <path
                            d="M3.71491 230.679H2.80671V224.658L0.985416 225.327V224.507L3.57331 223.535H3.71491V230.679ZM10.8194 227.646C10.8194 228.704 10.6387 229.491 10.2774 230.005C9.91608 230.519 9.3513 230.776 8.58307 230.776C7.82461 230.776 7.26309 230.526 6.8985 230.024C6.53392 229.52 6.34512 228.768 6.3321 227.769V226.562C6.3321 225.518 6.51276 224.741 6.87409 224.233C7.23542 223.726 7.80182 223.472 8.57331 223.472C9.33828 223.472 9.90143 223.717 10.2628 224.209C10.6241 224.697 10.8096 225.452 10.8194 226.475V227.646ZM9.91608 226.411C9.91608 225.646 9.80866 225.09 9.59381 224.741C9.37897 224.39 9.0388 224.214 8.57331 224.214C8.11107 224.214 7.77415 224.388 7.56256 224.736C7.35098 225.085 7.24193 225.62 7.23542 226.343V227.788C7.23542 228.556 7.34609 229.124 7.56745 229.492C7.79206 229.857 8.1306 230.039 8.58307 230.039C9.02904 230.039 9.35944 229.867 9.57428 229.521C9.79238 229.176 9.90631 228.633 9.91608 227.891V226.411Z"
                            fill="#A3A3A3"
                          />
                          <path
                            d="M5.40436 205.928H0.746159V205.278L3.2071 202.544C3.57168 202.131 3.82233 201.795 3.95905 201.538C4.09902 201.278 4.16901 201.009 4.16901 200.732C4.16901 200.361 4.05671 200.057 3.8321 199.819C3.60749 199.582 3.30801 199.463 2.93366 199.463C2.48444 199.463 2.1345 199.591 1.88385 199.849C1.63646 200.103 1.51276 200.457 1.51276 200.913H0.60944C0.60944 200.259 0.819401 199.73 1.23932 199.326C1.6625 198.923 2.22728 198.721 2.93366 198.721C3.59447 198.721 4.11693 198.895 4.50104 199.243C4.88516 199.588 5.07721 200.049 5.07721 200.625C5.07721 201.325 4.63125 202.158 3.73932 203.125L1.83503 205.19H5.40436V205.928ZM10.8194 202.896C10.8194 203.953 10.6387 204.74 10.2774 205.254C9.91608 205.768 9.3513 206.025 8.58307 206.025C7.82461 206.025 7.26309 205.775 6.8985 205.273C6.53392 204.769 6.34512 204.017 6.3321 203.018V201.812C6.3321 200.767 6.51276 199.99 6.87409 199.482C7.23542 198.975 7.80182 198.721 8.57331 198.721C9.33828 198.721 9.90143 198.966 10.2628 199.458C10.6241 199.946 10.8096 200.701 10.8194 201.724V202.896ZM9.91608 201.66C9.91608 200.895 9.80866 200.339 9.59381 199.99C9.37897 199.639 9.0388 199.463 8.57331 199.463C8.11107 199.463 7.77415 199.637 7.56256 199.985C7.35098 200.334 7.24193 200.869 7.23542 201.592V203.037C7.23542 203.805 7.34609 204.373 7.56745 204.741C7.79206 205.106 8.1306 205.288 8.58307 205.288C9.02904 205.288 9.35944 205.116 9.57428 204.771C9.79238 204.425 9.90631 203.882 9.91608 203.14V201.66Z"
                            fill="#A3A3A3"
                          />
                          <path
                            d="M2.05964 177.933H2.73835C3.16478 177.926 3.50006 177.814 3.74421 177.596C3.98835 177.378 4.11042 177.083 4.11042 176.712C4.11042 175.879 3.69538 175.462 2.8653 175.462C2.47467 175.462 2.16217 175.574 1.9278 175.799C1.69668 176.02 1.58112 176.315 1.58112 176.683H0.677799C0.677799 176.119 0.882877 175.652 1.29303 175.281C1.70645 174.907 2.23053 174.72 2.8653 174.72C3.53587 174.72 4.06159 174.897 4.44245 175.252C4.82331 175.607 5.01374 176.1 5.01374 176.731C5.01374 177.041 4.91283 177.34 4.711 177.63C4.51243 177.92 4.24062 178.136 3.89557 178.279C4.2862 178.403 4.5873 178.608 4.79889 178.895C5.01374 179.181 5.12116 179.531 5.12116 179.944C5.12116 180.582 4.91283 181.089 4.49616 181.463C4.07949 181.837 3.5375 182.024 2.87018 182.024C2.20286 182.024 1.65924 181.844 1.23932 181.482C0.822656 181.121 0.614323 180.644 0.614323 180.052H1.52253C1.52253 180.426 1.6446 180.726 1.88874 180.95C2.13288 181.175 2.46003 181.287 2.87018 181.287C3.30638 181.287 3.64004 181.173 3.87116 180.945C4.10228 180.717 4.21784 180.39 4.21784 179.964C4.21784 179.55 4.09089 179.233 3.83698 179.012C3.58307 178.79 3.21686 178.676 2.73835 178.67H2.05964V177.933ZM10.8194 178.895C10.8194 179.952 10.6387 180.739 10.2774 181.253C9.91608 181.767 9.3513 182.024 8.58307 182.024C7.82461 182.024 7.26309 181.774 6.8985 181.272C6.53392 180.768 6.34512 180.016 6.3321 179.017V177.811C6.3321 176.766 6.51276 175.989 6.87409 175.481C7.23542 174.974 7.80182 174.72 8.57331 174.72C9.33828 174.72 9.90143 174.965 10.2628 175.457C10.6241 175.945 10.8096 176.701 10.8194 177.723V178.895ZM9.91608 177.659C9.91608 176.894 9.80866 176.338 9.59381 175.989C9.37897 175.638 9.0388 175.462 8.57331 175.462C8.11107 175.462 7.77415 175.636 7.56256 175.984C7.35098 176.333 7.24193 176.868 7.23542 177.591V179.036C7.23542 179.804 7.34609 180.372 7.56745 180.74C7.79206 181.105 8.1306 181.287 8.58307 181.287C9.02904 181.287 9.35944 181.115 9.57428 180.77C9.79238 180.424 9.90631 179.881 9.91608 179.139V177.659Z"
                            fill="#A3A3A3"
                          />
                          <path
                            d="M4.55964 154.788H5.54596V155.525H4.55964V157.176H3.65143V155.525H0.414127V154.993L3.59772 150.066H4.55964V154.788ZM1.43952 154.788H3.65143V151.302L3.54401 151.497L1.43952 154.788ZM10.8194 154.144C10.8194 155.201 10.6387 155.988 10.2774 156.502C9.91608 157.016 9.3513 157.273 8.58307 157.273C7.82461 157.273 7.26309 157.023 6.8985 156.521C6.53392 156.017 6.34512 155.265 6.3321 154.266V153.06C6.3321 152.015 6.51276 151.238 6.87409 150.73C7.23542 150.223 7.80182 149.969 8.57331 149.969C9.33828 149.969 9.90143 150.215 10.2628 150.706C10.6241 151.194 10.8096 151.95 10.8194 152.972V154.144ZM9.91608 152.908C9.91608 152.143 9.80866 151.587 9.59381 151.238C9.37897 150.887 9.0388 150.711 8.57331 150.711C8.11107 150.711 7.77415 150.885 7.56256 151.233C7.35098 151.582 7.24193 152.117 7.23542 152.84V154.285C7.23542 155.053 7.34609 155.621 7.56745 155.989C7.79206 156.354 8.1306 156.536 8.58307 156.536C9.02904 156.536 9.35944 156.364 9.57428 156.019C9.79238 155.674 9.90631 155.13 9.91608 154.388V152.908Z"
                            fill="#A3A3A3"
                          />
                          <path
                            d="M1.1612 129.609L1.52253 126.064H5.1651V126.899H2.28913L2.07428 128.838C2.42259 128.633 2.8181 128.53 3.26081 128.53C3.90859 128.53 4.42292 128.745 4.80378 129.175C5.18464 129.601 5.37506 130.179 5.37506 130.908C5.37506 131.641 5.1765 132.218 4.77936 132.642C4.38548 133.062 3.83372 133.271 3.12409 133.271C2.49583 133.271 1.98314 133.097 1.586 132.749C1.18887 132.401 0.96263 131.919 0.907291 131.304H1.76178C1.81712 131.711 1.96198 132.018 2.19635 132.227C2.43073 132.432 2.73997 132.534 3.12409 132.534C3.54401 132.534 3.87279 132.391 4.11042 132.104C4.3513 131.818 4.47174 131.423 4.47174 130.918C4.47174 130.443 4.34154 130.062 4.08112 129.775C3.82396 129.486 3.48053 129.341 3.05085 129.341C2.65697 129.341 2.34772 129.427 2.12311 129.6L1.88385 129.795L1.1612 129.609ZM10.8194 130.142C10.8194 131.2 10.6387 131.986 10.2774 132.5C9.91608 133.014 9.3513 133.271 8.58307 133.271C7.82461 133.271 7.26309 133.021 6.8985 132.52C6.53392 132.015 6.34512 131.263 6.3321 130.264V129.058C6.3321 128.013 6.51276 127.236 6.87409 126.729C7.23542 126.221 7.80182 125.967 8.57331 125.967C9.33828 125.967 9.90143 126.213 10.2628 126.704C10.6241 127.192 10.8096 127.948 10.8194 128.97V130.142ZM9.91608 128.906C9.91608 128.141 9.80866 127.585 9.59381 127.236C9.37897 126.885 9.0388 126.709 8.57331 126.709C8.11107 126.709 7.77415 126.883 7.56256 127.231C7.35098 127.58 7.24193 128.115 7.23542 128.838V130.283C7.23542 131.051 7.34609 131.619 7.56745 131.987C7.79206 132.352 8.1306 132.534 8.58307 132.534C9.02904 132.534 9.35944 132.362 9.57428 132.017C9.79238 131.672 9.90631 131.128 9.91608 130.386V128.906Z"
                            fill="#A3A3A3"
                          />
                          <path
                            d="M4.29108 101.309V102.075H4.12506C3.42194 102.088 2.86204 102.297 2.44538 102.7C2.02871 103.104 1.78783 103.672 1.72272 104.404C2.09707 103.975 2.60814 103.76 3.25592 103.76C3.87441 103.76 4.36758 103.978 4.73542 104.414C5.10651 104.85 5.29206 105.413 5.29206 106.104C5.29206 106.836 5.09186 107.422 4.69147 107.861C4.29434 108.301 3.76048 108.521 3.08991 108.521C2.40957 108.521 1.85781 108.26 1.43464 107.739C1.01146 107.215 0.79987 106.541 0.79987 105.718V105.371C0.79987 104.062 1.07819 103.063 1.63483 102.373C2.19473 101.68 3.02643 101.325 4.12995 101.309H4.29108ZM3.10456 104.512C2.79531 104.512 2.51048 104.604 2.25006 104.79C1.98965 104.976 1.80898 105.208 1.70807 105.488V105.82C1.70807 106.406 1.83991 106.878 2.10358 107.236C2.36725 107.594 2.69603 107.773 3.08991 107.773C3.49681 107.773 3.81582 107.624 4.04694 107.324C4.28131 107.025 4.3985 106.632 4.3985 106.147C4.3985 105.659 4.27969 105.265 4.04206 104.966C3.80768 104.663 3.49518 104.512 3.10456 104.512ZM10.8194 105.391C10.8194 106.449 10.6387 107.235 10.2774 107.749C9.91608 108.263 9.3513 108.521 8.58307 108.521C7.82461 108.521 7.26309 108.27 6.8985 107.769C6.53392 107.264 6.34512 106.512 6.3321 105.513V104.307C6.3321 103.262 6.51276 102.485 6.87409 101.978C7.23542 101.47 7.80182 101.216 8.57331 101.216C9.33828 101.216 9.90143 101.462 10.2628 101.953C10.6241 102.441 10.8096 103.197 10.8194 104.219V105.391ZM9.91608 104.155C9.91608 103.39 9.80866 102.834 9.59381 102.485C9.37897 102.134 9.0388 101.958 8.57331 101.958C8.11107 101.958 7.77415 102.132 7.56256 102.48C7.35098 102.829 7.24193 103.364 7.23542 104.087V105.532C7.23542 106.3 7.34609 106.868 7.56745 107.236C7.79206 107.601 8.1306 107.783 8.58307 107.783C9.02904 107.783 9.35944 107.611 9.57428 107.266C9.79238 106.921 9.90631 106.377 9.91608 105.635V104.155Z"
                            fill="#A3A3A3"
                          />
                          <path
                            d="M5.336 77.0693L2.39167 83.6709H1.4444L4.37897 77.3037H0.531315V76.5615H5.336V77.0693ZM10.8194 80.6387C10.8194 81.6966 10.6387 82.4827 10.2774 82.9971C9.91608 83.5114 9.3513 83.7686 8.58307 83.7686C7.82461 83.7686 7.26309 83.5179 6.8985 83.0166C6.53392 82.512 6.34512 81.7601 6.3321 80.7607V79.5547C6.3321 78.5098 6.51276 77.7334 6.87409 77.2256C7.23542 76.7178 7.80182 76.4639 8.57331 76.4639C9.33828 76.4639 9.90143 76.7096 10.2628 77.2012C10.6241 77.6895 10.8096 78.4447 10.8194 79.4668V80.6387ZM9.91608 79.4033C9.91608 78.6383 9.80866 78.0817 9.59381 77.7334C9.37897 77.3818 9.0388 77.2061 8.57331 77.2061C8.11107 77.2061 7.77415 77.3802 7.56256 77.7285C7.35098 78.0768 7.24193 78.6123 7.23542 79.335V80.7803C7.23542 81.5485 7.34609 82.1165 7.56745 82.4844C7.79206 82.849 8.1306 83.0312 8.58307 83.0312C9.02904 83.0312 9.35944 82.8587 9.57428 82.5137C9.79238 82.1686 9.90631 81.625 9.91608 80.8828V79.4033Z"
                            fill="#A3A3A3"
                          />
                          <path
                            d="M5.05768 54.417C5.05768 54.7718 4.96328 55.0876 4.77448 55.3643C4.58893 55.641 4.33665 55.8574 4.01764 56.0137C4.38874 56.1732 4.68171 56.4059 4.89655 56.7119C5.11465 57.0179 5.2237 57.3646 5.2237 57.752C5.2237 58.3672 5.01536 58.8571 4.5987 59.2217C4.18529 59.5863 3.64004 59.7686 2.96296 59.7686C2.27936 59.7686 1.73086 59.5863 1.31745 59.2217C0.907291 58.8538 0.702213 58.3639 0.702213 57.752C0.702213 57.3678 0.80638 57.0212 1.01471 56.7119C1.2263 56.4027 1.51764 56.1683 1.88874 56.0088C1.57298 55.8525 1.32396 55.6361 1.14167 55.3594C0.959375 55.0827 0.868229 54.7686 0.868229 54.417C0.868229 53.818 1.06029 53.3428 1.4444 52.9912C1.82852 52.6396 2.3347 52.4639 2.96296 52.4639C3.58796 52.4639 4.09251 52.6396 4.47663 52.9912C4.864 53.3428 5.05768 53.818 5.05768 54.417ZM4.32038 57.7324C4.32038 57.3353 4.19342 57.0114 3.93952 56.7607C3.68887 56.5101 3.36009 56.3848 2.95319 56.3848C2.54629 56.3848 2.21914 56.5085 1.97174 56.7559C1.7276 57.0033 1.60553 57.3288 1.60553 57.7324C1.60553 58.1361 1.72435 58.4535 1.96198 58.6846C2.20286 58.9157 2.53652 59.0312 2.96296 59.0312C3.38613 59.0312 3.71816 58.9157 3.95905 58.6846C4.19993 58.4502 4.32038 58.1328 4.32038 57.7324ZM2.96296 53.2061C2.60814 53.2061 2.32005 53.3167 2.0987 53.5381C1.8806 53.7562 1.77155 54.054 1.77155 54.4316C1.77155 54.793 1.87897 55.0859 2.09381 55.3105C2.31191 55.5319 2.60163 55.6426 2.96296 55.6426C3.32428 55.6426 3.61237 55.5319 3.82721 55.3105C4.04531 55.0859 4.15436 54.793 4.15436 54.4316C4.15436 54.0703 4.04206 53.7757 3.81745 53.5479C3.59284 53.32 3.30801 53.2061 2.96296 53.2061ZM10.8194 56.6387C10.8194 57.6966 10.6387 58.4827 10.2774 58.9971C9.91608 59.5114 9.3513 59.7686 8.58307 59.7686C7.82461 59.7686 7.26309 59.5179 6.8985 59.0166C6.53392 58.512 6.34512 57.7601 6.3321 56.7607V55.5547C6.3321 54.5098 6.51276 53.7334 6.87409 53.2256C7.23542 52.7178 7.80182 52.4639 8.57331 52.4639C9.33828 52.4639 9.90143 52.7096 10.2628 53.2012C10.6241 53.6895 10.8096 54.4447 10.8194 55.4668V56.6387ZM9.91608 55.4033C9.91608 54.6383 9.80866 54.0817 9.59381 53.7334C9.37897 53.3818 9.0388 53.2061 8.57331 53.2061C8.11107 53.2061 7.77415 53.3802 7.56256 53.7285C7.35098 54.0768 7.24193 54.6123 7.23542 55.335V56.7803C7.23542 57.5485 7.34609 58.1165 7.56745 58.4844C7.79206 58.849 8.1306 59.0312 8.58307 59.0312C9.02904 59.0312 9.35944 58.8587 9.57428 58.5137C9.79238 58.1686 9.90631 57.625 9.91608 56.8828V55.4033Z"
                            fill="#A3A3A3"
                          />
                          <path
                            d="M4.20807 31.7939C4.01927 32.0186 3.79303 32.1992 3.52936 32.3359C3.26895 32.4727 2.98249 32.541 2.66999 32.541C2.25983 32.541 1.90176 32.4401 1.59577 32.2383C1.29303 32.0365 1.05866 31.7533 0.892643 31.3887C0.726627 31.0208 0.64362 30.6156 0.64362 30.1729C0.64362 29.6976 0.733138 29.2695 0.912174 28.8887C1.09447 28.5078 1.35163 28.2165 1.68366 28.0146C2.01569 27.8128 2.40306 27.7119 2.84577 27.7119C3.54889 27.7119 4.10228 27.9756 4.50592 28.5029C4.91283 29.027 5.11628 29.7432 5.11628 30.6514V30.915C5.11628 32.2985 4.84284 33.3092 4.29596 33.9473C3.74909 34.582 2.92389 34.9076 1.82038 34.9238H1.6446V34.1621H1.83503C2.58047 34.1491 3.15339 33.9554 3.55378 33.5811C3.95417 33.2035 4.17227 32.6077 4.20807 31.7939ZM2.81647 31.7939C3.11921 31.7939 3.39753 31.7012 3.65143 31.5156C3.90859 31.3301 4.09577 31.1006 4.21296 30.8271V30.4658C4.21296 29.8734 4.08437 29.3916 3.82721 29.0205C3.57005 28.6494 3.24453 28.4639 2.85065 28.4639C2.45352 28.4639 2.1345 28.6169 1.89362 28.9229C1.65273 29.2256 1.53229 29.626 1.53229 30.124C1.53229 30.609 1.64785 31.0094 1.87897 31.3252C2.11335 31.6377 2.42585 31.7939 2.81647 31.7939ZM10.8194 31.8867C10.8194 32.9447 10.6387 33.7308 10.2774 34.2451C9.91608 34.7594 9.3513 35.0166 8.58307 35.0166C7.82461 35.0166 7.26309 34.766 6.8985 34.2646C6.53392 33.7601 6.34512 33.0081 6.3321 32.0088V30.8027C6.3321 29.7578 6.51276 28.9814 6.87409 28.4736C7.23542 27.9658 7.80182 27.7119 8.57331 27.7119C9.33828 27.7119 9.90143 27.9577 10.2628 28.4492C10.6241 28.9375 10.8096 29.6927 10.8194 30.7148V31.8867ZM9.91608 30.6514C9.91608 29.8864 9.80866 29.3298 9.59381 28.9814C9.37897 28.6299 9.0388 28.4541 8.57331 28.4541C8.11107 28.4541 7.77415 28.6283 7.56256 28.9766C7.35098 29.3249 7.24193 29.8604 7.23542 30.583V32.0283C7.23542 32.7965 7.34609 33.3646 7.56745 33.7324C7.79206 34.097 8.1306 34.2793 8.58307 34.2793C9.02904 34.2793 9.35944 34.1068 9.57428 33.7617C9.79238 33.4167 9.90631 32.873 9.91608 32.1309V30.6514Z"
                            fill="#A3A3A3"
                          />
                          <path
                            d="M3.71491 10.9189H2.80671V4.89844L0.985416 5.56738V4.74707L3.57331 3.77539H3.71491V10.9189ZM10.8194 7.88672C10.8194 8.94466 10.6387 9.73079 10.2774 10.2451C9.91608 10.7594 9.3513 11.0166 8.58307 11.0166C7.82461 11.0166 7.26309 10.766 6.8985 10.2646C6.53392 9.76009 6.34512 9.00814 6.3321 8.00879V6.80273C6.3321 5.75781 6.51276 4.98145 6.87409 4.47363C7.23542 3.96582 7.80182 3.71191 8.57331 3.71191C9.33828 3.71191 9.90143 3.95768 10.2628 4.44922C10.6241 4.9375 10.8096 5.69271 10.8194 6.71484V7.88672ZM9.91608 6.65137C9.91608 5.88639 9.80866 5.32975 9.59381 4.98145C9.37897 4.62988 9.0388 4.4541 8.57331 4.4541C8.11107 4.4541 7.77415 4.62826 7.56256 4.97656C7.35098 5.32487 7.24193 5.86035 7.23542 6.58301V8.02832C7.23542 8.79655 7.34609 9.36458 7.56745 9.73242C7.79206 10.097 8.1306 10.2793 8.58307 10.2793C9.02904 10.2793 9.35944 10.1068 9.57428 9.76172C9.79238 9.41667 9.90631 8.87305 9.91608 8.13086V6.65137ZM10.8194 17.8867C10.8194 18.9447 10.6387 19.7308 10.2774 20.2451C9.91608 20.7594 9.3513 21.0166 8.58307 21.0166C7.82461 21.0166 7.26309 20.766 6.8985 20.2646C6.53392 19.7601 6.34512 19.0081 6.3321 18.0088V16.8027C6.3321 15.7578 6.51276 14.9814 6.87409 14.4736C7.23542 13.9658 7.80182 13.7119 8.57331 13.7119C9.33828 13.7119 9.90143 13.9577 10.2628 14.4492C10.6241 14.9375 10.8096 15.6927 10.8194 16.7148V17.8867ZM9.91608 16.6514C9.91608 15.8864 9.80866 15.3298 9.59381 14.9814C9.37897 14.6299 9.0388 14.4541 8.57331 14.4541C8.11107 14.4541 7.77415 14.6283 7.56256 14.9766C7.35098 15.3249 7.24193 15.8604 7.23542 16.583V18.0283C7.23542 18.7965 7.34609 19.3646 7.56745 19.7324C7.79206 20.097 8.1306 20.2793 8.58307 20.2793C9.02904 20.2793 9.35944 20.1068 9.57428 19.7617C9.79238 19.4167 9.90631 18.873 9.91608 18.1309V16.6514Z"
                            fill="#A3A3A3"
                          />
                          <path d="M19.2607 -42.084V251.18" stroke="#F0F0F0" />
                          <path d="M136.582 -42.084V251.18" stroke="#F0F0F0" />
                          <path d="M254.692 -42.084V251.18" stroke="#F0F0F0" />
                          <path d="M372.015 -42.084V251.18" stroke="#F0F0F0" />
                          <path d="M490.125 -42.084V251.18" stroke="#F0F0F0" />
                          <path d="M19.2607 226.43H490.126" stroke="#F0F0F0" />
                          <path d="M19.2607 201.678H490.126" stroke="#F0F0F0" />
                          <path d="M19.2607 177.677H490.126" stroke="#F0F0F0" />
                          <path d="M19.2607 152.926H490.126" stroke="#F0F0F0" />
                          <path d="M19.2607 128.925H490.126" stroke="#F0F0F0" />
                          <path d="M19.2607 104.173H490.126" stroke="#F0F0F0" />
                          <path d="M19.2607 79.4219H490.126" stroke="#F0F0F0" />
                          <path d="M19.2607 55.4209H490.126" stroke="#F0F0F0" />
                          <path d="M19.2607 30.6709H490.126" stroke="#F0F0F0" />
                          <path d="M19.2607 6.66895H490.126" stroke="#F0F0F0" />
                          <path
                            d="M19.2607 206.929C19.2607 206.929 77.5284 150.676 136.583 150.676C195.638 150.676 195.638 94.4236 254.693 94.4236C312.961 94.4236 312.961 55.4218 372.016 55.4218C431.071 55.4218 490.126 -3.08105 490.126 -3.08105"
                            stroke="#A6CEE3"
                            stroke-width="2"
                          />
                          <ellipse
                            cx="19.258"
                            cy="206.928"
                            rx="3.1496"
                            ry="3.00014"
                            fill="#A6CEE3"
                          />
                          <ellipse
                            cx="136.582"
                            cy="150.676"
                            rx="3.1496"
                            ry="3.00014"
                            fill="#A6CEE3"
                          />
                          <ellipse
                            cx="254.693"
                            cy="94.423"
                            rx="3.1496"
                            ry="3.00014"
                            fill="#A6CEE3"
                          />
                          <ellipse
                            cx="372.016"
                            cy="55.422"
                            rx="3.1496"
                            ry="3.00014"
                            fill="#A6CEE3"
                          />
                          <path
                            d="M19.2607 221.178C19.2607 221.178 77.5284 174.676 136.583 174.676C195.638 174.676 195.638 121.423 254.693 121.423C312.961 121.423 312.961 72.6711 372.016 72.6711C431.071 72.6711 490.126 47.9199 490.126 47.9199"
                            stroke="#2D72C9"
                            stroke-width="2"
                          />
                          <ellipse
                            cx="19.258"
                            cy="221.179"
                            rx="3.1496"
                            ry="3.00014"
                            fill="#2D72C9"
                          />
                          <ellipse
                            cx="136.582"
                            cy="174.677"
                            rx="3.1496"
                            ry="3.00014"
                            fill="#2D72C9"
                          />
                          <ellipse
                            cx="254.693"
                            cy="121.425"
                            rx="3.1496"
                            ry="3.00014"
                            fill="#2D72C9"
                          />
                          <ellipse
                            cx="372.016"
                            cy="72.671"
                            rx="3.1496"
                            ry="3.00014"
                            fill="#2D72C9"
                          />
                          <ellipse
                            cx="490.123"
                            cy="47.922"
                            rx="3.1496"
                            ry="3.00014"
                            fill="#2D72C9"
                          />
                          <path
                            d="M19.2607 224.18C19.2607 224.18 77.5284 194.928 136.583 194.928C195.638 194.928 195.638 160.426 254.693 160.426C312.961 160.426 312.961 109.424 372.016 109.424C431.071 109.424 490.126 65.1719 490.126 65.1719"
                            stroke="#B2DF8A"
                            stroke-width="2"
                          />
                          <ellipse
                            cx="19.258"
                            cy="224.179"
                            rx="3.1496"
                            ry="3.00014"
                            fill="#B2DF8A"
                          />
                          <ellipse
                            cx="136.582"
                            cy="194.927"
                            rx="3.1496"
                            ry="3.00014"
                            fill="#B2DF8A"
                          />
                          <ellipse
                            cx="254.693"
                            cy="160.426"
                            rx="3.1496"
                            ry="3.00014"
                            fill="#B2DF8A"
                          />
                          <ellipse
                            cx="372.016"
                            cy="109.424"
                            rx="3.1496"
                            ry="3.00014"
                            fill="#B2DF8A"
                          />
                          <ellipse
                            cx="490.123"
                            cy="65.172"
                            rx="3.1496"
                            ry="3.00014"
                            fill="#B2DF8A"
                          />
                          <path
                            d="M19.2607 211.428C19.2607 211.428 77.5284 152.925 136.583 152.925C195.638 152.925 195.638 113.923 254.693 113.923C312.961 113.923 312.961 79.4214 372.016 79.4214C431.071 79.4214 490.126 47.9199 490.126 47.9199"
                            stroke="#56BFBA"
                            stroke-width="2"
                          />
                          <ellipse
                            cx="19.258"
                            cy="211.429"
                            rx="3.1496"
                            ry="3.00014"
                            fill="#33A02C"
                          />
                          <ellipse
                            cx="136.582"
                            cy="152.926"
                            rx="3.1496"
                            ry="3.00014"
                            fill="#33A02C"
                          />
                          <ellipse
                            cx="254.693"
                            cy="113.923"
                            rx="3.1496"
                            ry="3.00014"
                            fill="#33A02C"
                          />
                          <ellipse
                            cx="372.016"
                            cy="79.423"
                            rx="3.1496"
                            ry="3.00014"
                            fill="#33A02C"
                          />
                          <ellipse
                            cx="490.123"
                            cy="47.922"
                            rx="3.1496"
                            ry="3.00014"
                            fill="#33A02C"
                          />
                        </g>
                        <defs>
                          <clipPath id="clip0">
                            <rect width="496" height="235" fill="white" />
                          </clipPath>
                        </defs>
                      </svg>