<svg
              width="306"
              height="400"
              viewBox="0 0 306 400"
              fill="none"
              xmlns="http://www.w3.org/2000/svg"
            >
              <g clip-path="url(#clip0)">
                <path
                  opacity="0.4"
                  d="M161.231 400C240.975 400 305.62 396.076 305.62 391.236C305.62 386.396 240.975 382.473 161.231 382.473C81.4871 382.473 16.8418 386.396 16.8418 391.236C16.8418 396.076 81.4871 400 161.231 400Z"
                  fill="#646AA2"
                />
                <path
                  d="M210.875 192.472H78.4046C73.0213 192.472 68.6562 188.107 68.6562 182.723V76.4095C68.6562 71.0262 73.0213 66.6611 78.4046 66.6611H210.875C216.259 66.6611 220.624 71.0262 220.624 76.4095V182.723C220.624 188.107 216.259 192.472 210.875 192.472Z"
                  fill="url(#paint0_linear)"
                />
                <path
                  d="M219.206 97.4248H183.075L173.535 111.78L175.463 113.057L184.31 99.7367H219.206V97.4248Z"
                  fill="#FF6139"
                />
                <path
                  d="M173.643 155.856L167.525 167.224L174.887 158.168H196.604V155.856H173.643Z"
                  fill="#2D72C9"
                />
                <path
                  d="M142.219 125.811H9.74836C4.36506 125.811 0 121.446 0 116.062V9.74836C0 4.36506 4.36506 0 9.74836 0H142.219C147.603 0 151.968 4.36506 151.968 9.74836V116.062C151.968 121.446 147.603 125.811 142.219 125.811Z"
                  fill="url(#paint1_linear)"
                />
                <path
                  d="M29.563 66.8777C29.6131 70.5667 23.8292 70.5667 23.8792 66.8777C23.8292 63.197 29.6214 63.197 29.563 66.8777Z"
                  fill="#FF6139"
                />
                <path
                  d="M58.7243 48.2826C58.7911 52.7895 51.7052 52.7895 51.772 48.2826C51.7052 43.7756 58.7911 43.7756 58.7243 48.2826Z"
                  fill="#FF6139"
                />
                <path
                  d="M107.832 59.1749C104.31 60.7774 101.865 55.2105 105.437 53.7082C108.967 52.0973 111.404 57.6726 107.832 59.1749Z"
                  fill="#FF6139"
                />
                <path
                  d="M127.53 43.2169C124.007 44.8194 121.562 39.2525 125.134 37.7501C128.665 36.1393 131.102 41.7146 127.53 43.2169Z"
                  fill="#FF6139"
                />
                <path
                  d="M92.1926 27.3752C92.251 31.2478 86.1666 31.2478 86.225 27.3752C86.1666 23.5025 92.251 23.5025 92.1926 27.3752Z"
                  fill="#FF6139"
                />
                <path
                  d="M121.079 21.4836C121.138 25.3562 115.053 25.3562 115.112 21.4836C115.053 17.6109 121.138 17.6109 121.079 21.4836Z"
                  fill="#FF6139"
                />
                <path
                  d="M49.8687 50.4111L30.2969 63.1725C30.8561 63.7066 31.2901 64.366 31.5655 65.1088L51.1373 52.3475C50.5865 51.7966 50.1525 51.1373 49.8687 50.4111Z"
                  fill="#FF6139"
                />
                <path
                  d="M123.391 21.4829C123.391 21.533 123.391 21.5914 123.391 21.6415L129.692 20.4313L129.258 18.1611L122.957 19.3713C123.241 20.014 123.391 20.7318 123.391 21.4829Z"
                  fill="#FF6139"
                />
                <path
                  d="M84.2049 29.1025L59.4668 44.326C59.9926 44.8852 60.4099 45.5529 60.6853 46.2957L85.4151 31.0722C84.881 30.513 84.4637 29.8454 84.2049 29.1025Z"
                  fill="#FF6139"
                />
                <path
                  d="M113.266 23.6446C112.957 22.9602 112.79 22.1757 112.807 21.3828L94.0449 25.2137C94.3537 25.8981 94.5207 26.6826 94.504 27.4755L113.266 23.6446Z"
                  fill="#FF6139"
                />
                <path
                  d="M24.0963 71.3096L12.0527 108.951L14.2561 109.652L26.2997 72.0106C25.4985 71.9439 24.7557 71.6935 24.0963 71.3096Z"
                  fill="#FF6139"
                />
                <path
                  d="M14.004 20.6982H10.6738V111.196H14.004V20.6982Z"
                  fill="#2D72C9"
                />
                <path
                  d="M77.8365 78.0703L63.3809 93.0434C64.0319 93.4607 64.5994 94.0115 65.0418 94.6459L79.489 79.6644C78.8464 79.2471 78.2788 78.7046 77.8365 78.0703Z"
                  fill="#FF6139"
                />
                <path
                  d="M126.336 35.1795C126.937 35.1795 127.53 35.2796 128.08 35.4716L130.209 17.0933L127.913 16.8262L125.785 35.2045C125.96 35.1962 126.144 35.1795 126.336 35.1795Z"
                  fill="#FF6139"
                />
                <path
                  d="M121.596 42.833L109.928 52.2893C110.529 52.765 111.029 53.3743 111.38 54.0837L123.048 44.6274C122.447 44.1517 121.946 43.5424 121.596 42.833Z"
                  fill="#FF6139"
                />
                <path
                  d="M54.4999 98.2012L13.9707 108.534L14.5382 110.771L55.0674 100.438C54.7419 99.7619 54.5416 99.0024 54.4999 98.2012Z"
                  fill="#FF6139"
                />
                <path
                  d="M101.832 58.6572L86.4082 70.4254C86.9924 70.9345 87.4682 71.5605 87.8104 72.2615L103.234 60.4934C102.642 60.001 102.166 59.375 101.832 58.6572Z"
                  fill="#FF6139"
                />
                <path
                  d="M129.967 21.3917C126.445 22.9942 124 17.4273 127.572 15.925C131.094 14.3141 133.539 19.8894 129.967 21.3917Z"
                  fill="#2D72C9"
                />
                <path
                  d="M139.974 108.643H12.3359V111.197H139.974V108.643Z"
                  fill="#2D72C9"
                />
                <path
                  d="M88.1521 74.8905C88.1521 76.8102 86.5914 78.3709 84.6718 78.3709C82.7521 78.3709 81.1914 76.8102 81.1914 74.8905C81.1914 72.9709 82.7438 71.4102 84.6718 71.4102C86.5914 71.4185 88.1521 72.9709 88.1521 74.8905Z"
                  fill="#FF6139"
                />
                <path
                  d="M65.8357 98.0341C65.8357 99.9537 64.2833 101.514 62.3554 101.514C60.4357 101.514 58.875 99.9537 58.875 98.0341C58.875 96.1144 60.4357 94.5537 62.3554 94.5537C64.275 94.5537 65.8357 96.1144 65.8357 98.0341Z"
                  fill="#FF6139"
                />
                <path
                  d="M179.786 278.821H47.3148C41.9315 278.821 37.5664 274.456 37.5664 269.073V162.759C37.5664 157.376 41.9315 153.011 47.3148 153.011H179.786C185.169 153.011 189.534 157.376 189.534 162.759V269.073C189.534 274.456 185.169 278.821 179.786 278.821Z"
                  fill="url(#paint2_linear)"
                />
                <path
                  d="M176.872 262.487V194.332H169.419V262.487H164.378V205.692H156.924V262.487H152.651V217.969H145.198V262.487H140.925V217.969H133.472V262.487H129.198V220.698H121.745V262.487H117.472V232.658H110.019V262.487H105.737V242.732H98.284V262.487H94.0108V246.246H86.5576V262.487H82.2844V246.246H74.8312V262.487H70.558V256.194H63.1048V262.487H57.4044V174.535H54.0742V265.033H55.7435H57.4044H183.374V262.487H176.872Z"
                  fill="#2D72C9"
                />
                <path
                  d="M172.024 184.134L169.704 177.407L167.175 170.079C166.875 169.202 165.79 168.902 165.08 169.486L159.088 174.402L153.587 178.917C152.761 179.602 153.037 180.929 154.071 181.221L160.506 183.04C154.355 198.281 131.987 208.722 96.7414 212.636C80.6166 214.43 68.1056 224.045 60.544 240.437C54.9186 252.639 54.0256 264.149 53.9922 264.633L58.1569 264.933C58.1653 264.825 59.05 253.599 64.3832 242.073C71.394 226.925 82.436 218.42 97.2005 216.776C134.909 212.586 158.036 201.352 164.554 184.175L170.405 185.828C171.44 186.137 172.375 185.152 172.024 184.134Z"
                  fill="#FF6139"
                />
                <path
                  d="M55.2356 267.295C57.5403 267.295 59.4087 265.427 59.4087 263.122C59.4087 260.818 57.5403 258.949 55.2356 258.949C52.9309 258.949 51.0625 260.818 51.0625 263.122C51.0625 265.427 52.9309 267.295 55.2356 267.295Z"
                  fill="#FF6139"
                />
                <path
                  d="M136.194 97.8672C114.527 97.8672 96.9668 115.428 96.9668 137.094C96.9668 158.761 114.527 176.321 136.194 176.321C157.861 176.321 175.421 158.761 175.421 137.094H136.194V97.8672Z"
                  fill="#2D72C9"
                />
                <path
                  opacity="0.25"
                  d="M136.193 97.8672V137.094H136.227L164.278 109.719C157.159 102.416 147.21 97.8672 136.193 97.8672Z"
                  fill="#2D72C9"
                />
                <path
                  d="M168.46 108.058L140.408 135.433H179.602C179.594 124.775 175.345 115.127 168.46 108.058Z"
                  fill="#FF6139"
                />
                <path
                  d="M217.326 154.404C215.239 151.984 206.092 142.219 203.905 138.363C201.71 134.507 200.675 131.753 199.816 127.137C198.956 122.522 194.374 117.556 194.374 117.556C193.881 116.996 191.336 116.07 191.102 116.905C190.868 117.739 192.671 117.814 193.389 119.692C194.107 121.57 193.105 121.545 192.446 121.37C191.795 121.186 185.377 110.161 184.233 110.553C183.09 110.937 188.248 119.091 188.915 120.652C189.583 122.213 187.989 122.447 187.747 123.323C187.505 124.199 187.997 124.383 187.739 125.326C187.48 126.261 188.106 127.671 189.5 129.432C190.893 131.193 195.35 132.921 196.185 134.39C197.02 135.851 215.198 173.25 222.509 170.203C224.754 169.269 227.9 164.511 228.977 158.686C226.532 156.165 224.579 154.504 221.182 153.002C220.598 154.563 219.304 156.691 217.326 154.404Z"
                  fill="#E89E74"
                />
                <path
                  opacity="0.1"
                  d="M205.249 113.533C212.666 113.533 218.678 107.52 218.678 100.104C218.678 92.6872 212.666 86.6748 205.249 86.6748C197.833 86.6748 191.82 92.6872 191.82 100.104C191.82 107.52 197.833 113.533 205.249 113.533Z"
                  fill="#3E6BAB"
                />
                <path
                  d="M210.624 88.8535C204.457 85.8572 197.028 88.4278 194.032 94.5957C191.036 100.764 193.607 108.192 199.774 111.188C205.942 114.184 213.37 111.614 216.367 105.446C219.363 99.2862 216.792 91.8498 210.624 88.8535ZM200.334 110.028C194.808 107.34 192.505 100.688 195.192 95.1632C197.88 89.638 204.532 87.3345 210.057 90.022C215.582 92.7094 217.886 99.3614 215.198 104.887C212.519 110.412 205.859 112.715 200.334 110.028Z"
                  fill="white"
                />
                <path
                  d="M217.835 106.372C221.316 99.211 218.211 90.5643 210.891 87.2843C204.323 84.338 196.319 86.9754 192.797 93.2601C189.041 99.9538 191.319 108.217 197.579 112.148L190.568 126.578C190.376 126.962 190.543 127.429 190.927 127.621L192.321 128.298C192.705 128.489 193.172 128.323 193.364 127.939L200.375 113.508C207.077 115.903 214.647 112.924 217.835 106.372ZM199.924 110.879C193.957 107.975 191.47 100.788 194.366 94.8209C197.27 88.8533 204.456 86.3662 210.424 89.2623C216.391 92.1584 218.879 99.3529 215.982 105.32C213.086 111.288 205.892 113.775 199.924 110.879Z"
                  fill="#3E6BAB"
                />
                <path
                  d="M225.497 112.056C225.296 112.164 223.936 112.481 223.827 112.89C223.176 115.244 217.801 127.271 217.601 136.368L218.285 154.521L204.055 136.56L199.039 142.002C206.175 158.369 217.401 178.133 225.079 169.778C232.758 161.423 230.329 143.062 230.329 143.062L233.843 113.725C233.843 113.725 227.274 111.046 225.497 112.056Z"
                  fill="#131537"
                />
                <path
                  d="M188.048 122.848C188.048 122.848 195.718 124.859 195.309 126.345C194.9 127.83 188.031 124.959 188.031 124.959C188.031 124.959 194.967 126.946 194.633 128.156C194.299 129.374 188.349 127.747 188.349 127.747C188.349 127.747 194.308 128.915 193.815 129.725C193.323 130.526 189.192 129.241 189.192 129.241C189.192 129.241 188.24 128.423 188.023 127.722C187.806 127.021 187.439 126.887 187.33 126.445C187.222 125.994 187.389 125.143 187.481 124.801C187.581 124.467 186.88 123.04 188.048 122.848Z"
                  fill="#FFA573"
                />
                <path
                  d="M227.233 194.015L215.891 195.685L222.267 166.256L228.427 169.427L227.233 194.015Z"
                  fill="#230044"
                />
                <path
                  d="M252.304 378.233L252.129 389.099L253.339 389.133L254.9 376.747L252.304 378.233Z"
                  fill="#1D1C22"
                />
                <path
                  d="M243.941 282.652C243.941 282.652 245.235 299.654 247.321 304.728C249.399 309.803 245.685 376.931 243.916 382.348C243.524 383.55 242.998 384.618 242.447 385.561C240.519 388.858 240.077 389.534 242.664 389.542C245.986 389.551 248.899 388.925 249.541 387.564C250.651 385.219 251.636 377.123 253.915 377.131C253.915 377.131 255.467 374.118 255.083 372.524C254.499 370.137 252.88 371.364 252.888 368.042C252.897 364.721 263.905 314.226 262.186 306.881C260.458 299.528 259.24 298.652 259.273 289.914C259.29 281.158 243.941 282.652 243.941 282.652Z"
                  fill="#FFA573"
                />
                <path
                  d="M236.43 264.85C236.43 264.85 224.036 288.478 224.829 295.472C225.622 302.466 228.243 308.116 225.989 317.673C223.744 327.221 205.967 361.858 205.541 368.192C205.366 370.863 206.175 371.113 206.175 371.113C206.142 375.712 204.706 380.645 203.746 381.596C202.52 382.815 201.134 388.882 199.974 388.874C198.806 388.874 188.957 389.926 188.957 389.926C188.698 387.681 191.72 389.483 193.481 384.826C195.242 380.169 196.318 373.183 198.563 363.744C200.809 354.313 210.023 311.254 210.056 301.348C210.09 291.441 209.18 291.391 210.716 284.872C212.251 278.354 218.002 266.127 218.002 266.127L236.43 264.85Z"
                  fill="#FFA573"
                />
                <path
                  opacity="0.5"
                  d="M224.829 295.472C224.036 288.478 236.43 264.85 236.43 264.85L218.002 266.118C218.002 266.118 212.251 278.337 210.716 284.864C209.589 289.646 209.781 290.948 209.948 295.213C213.47 295.973 218.953 297.074 225.213 298.084C225.054 297.233 224.929 296.365 224.829 295.472Z"
                  fill="#E89E74"
                />
                <path
                  opacity="0.5"
                  d="M259.257 289.905C259.29 281.167 243.941 282.652 243.941 282.652C243.941 282.652 244.768 293.494 246.162 300.446C251.353 300.697 256.26 300.597 260.308 299.929C259.641 297.367 259.24 294.938 259.257 289.905Z"
                  fill="#E89E74"
                />
                <path
                  d="M223.486 183.867C223.486 183.867 221.324 217.143 219.697 225.072C218.061 233.001 208.738 289.179 208.738 289.179C208.738 289.179 250.286 292.676 260.309 289.179C260.309 289.179 261.428 217.085 259.066 207.82C256.704 198.556 246.388 181.688 246.388 181.688L223.486 183.867Z"
                  fill="#0F1D5B"
                />
                <path
                  opacity="0.53"
                  d="M246.388 181.688L223.486 183.867C223.486 183.867 223.394 185.219 223.244 187.439C223.244 187.439 229.854 194.517 233.31 203.455C236.406 211.468 233.184 277.144 232.492 290.556C243.651 290.932 255.544 290.848 260.31 289.188C260.31 289.188 261.428 217.093 259.066 207.829C256.712 198.548 246.388 181.688 246.388 181.688Z"
                  fill="#1A0033"
                />
                <path
                  d="M244.968 113.558L232.366 112.64L227.9 121.378L245.828 123.248L244.968 113.558Z"
                  fill="#230044"
                />
                <path
                  d="M227.491 116.362C227.491 116.362 233.225 111.98 252.671 116.37C253.197 116.487 253.69 137.553 253.69 137.553C253.69 137.553 244.667 172.874 246.387 181.688C246.387 181.688 236.071 190.393 220.689 182.814C220.689 182.814 222.692 155.08 221.29 148.904C219.888 142.728 217.1 137.127 221.064 130.717C225.021 124.299 227.491 116.362 227.491 116.362Z"
                  fill="#EAE3C3"
                />
                <path
                  d="M229.92 145.049V185.695C240.061 187.022 246.387 181.68 246.387 181.68C244.668 172.867 253.69 137.546 253.69 137.546C253.69 137.546 253.197 116.48 252.672 116.363C249.4 115.628 246.512 115.136 243.983 114.827L229.92 145.049Z"
                  fill="#D1CCB2"
                />
                <path
                  d="M244.969 113.558L233.969 145.048V197.328L258.273 198.505L249.801 187.413L247.765 172.682L253.699 137.553L252.673 116.37L244.969 113.558Z"
                  fill="#061140"
                />
                <path
                  d="M232.366 112.64L223.31 142.703L220.965 195.684H215.891L221.341 167.691L218.144 136.126L227.258 115.744L232.366 112.64Z"
                  fill="#2E005B"
                />
                <path
                  d="M244.969 113.558L233.969 145.048L248.024 126.736L250.361 114.392L244.969 113.558Z"
                  fill="#0F1D5B"
                />
                <path
                  d="M232.366 112.64L223.311 142.703L224.128 121.195L227.901 113.558L232.366 112.64Z"
                  fill="#0F1D5B"
                />
                <path
                  d="M253.582 190.293C253.899 189.976 256.654 185.92 257.246 186.504C257.839 187.096 254.809 190.835 254.809 190.835C254.809 190.835 258.323 187.28 259.016 187.973C259.708 188.665 254.317 193.464 253.749 193.464C253.173 193.473 253.582 190.293 253.582 190.293Z"
                  fill="#E89E74"
                />
                <path
                  d="M248.815 186.278C248.815 186.278 247.33 188.548 248.423 189.642C249.516 190.735 248.932 191.87 249.675 192.613C250.418 193.356 253.74 193.473 253.74 193.473C253.74 193.473 253.973 190.268 255.618 186.587C255.918 185.911 256.895 184.567 258.272 182.815C256.803 181.846 255.25 180.978 253.681 180.186C250.935 183.766 248.865 186.195 248.815 186.278Z"
                  fill="#FFA573"
                />
                <path
                  d="M252.671 116.371C252.671 116.371 250.743 131.695 252.671 135.918C254.549 140.024 265.524 144.773 267.402 153.094C268.813 159.312 258.222 171.014 252.246 178.759C253.74 180.253 257.587 184.151 259.056 185.119C265.132 177.39 280.205 158.428 280.589 154.154C281.073 148.921 260.826 115.82 252.671 116.371Z"
                  fill="#0F1D5B"
                />
                <path
                  d="M252.672 116.371C252.38 119.943 252.154 123.365 252.088 127.012C252.029 133.447 252.413 135.484 253.832 137.095C257.129 140.917 265.959 145.591 267.403 153.094C265.35 145.65 256.812 141.51 253.356 137.495C252.054 135.993 251.804 134.391 251.645 132.362C251.303 127.605 251.946 121.153 252.672 116.371Z"
                  fill="#53587D"
                />
                <path
                  d="M253.107 369.736C252.089 375.812 248.675 386.287 246.322 387.272C242.432 388.09 242.415 387.681 242.441 385.561C240.513 388.857 238.326 390.543 240.913 390.552C244.235 390.56 249.418 390.785 250.061 389.425C251.171 387.08 251.805 378.183 254.083 378.191L253.341 389.141L254.551 389.175C254.551 389.175 256.387 374.093 256.003 372.591C255.469 370.521 253.75 370.104 253.107 369.736Z"
                  fill="#3A3745"
                />
                <path
                  d="M192.27 386.955C189.566 388.632 186.211 388.666 186.419 390.469C186.419 390.469 199.172 389.96 200.341 389.968C201.509 389.968 202.519 382.807 203.746 381.588C204.973 380.37 204.189 389.985 204.189 389.985H205.449C205.449 389.985 206.325 380.078 207.502 376.238C208.437 373.175 207.126 371.882 206.183 371.105C202.319 378.417 201.91 388.708 192.27 386.955Z"
                  fill="#3A3745"
                />
                <path
                  d="M238.208 160.531C238.208 161.29 237.591 161.9 236.839 161.9C236.08 161.9 235.471 161.282 235.471 160.531C235.471 159.771 236.088 159.162 236.839 159.162C237.599 159.154 238.208 159.771 238.208 160.531Z"
                  fill="#58337C"
                />
                <path
                  d="M238.208 168.568C238.208 169.328 237.591 169.937 236.839 169.937C236.08 169.937 235.471 169.319 235.471 168.568C235.471 167.808 236.088 167.199 236.839 167.199C237.599 167.199 238.208 167.808 238.208 168.568Z"
                  fill="#58337C"
                />
                <path
                  d="M238.208 175.019C238.208 175.779 237.591 176.388 236.839 176.388C236.08 176.388 235.471 175.77 235.471 175.019C235.471 174.26 236.088 173.65 236.839 173.65C237.599 173.65 238.208 174.26 238.208 175.019Z"
                  fill="#58337C"
                />
                <path
                  d="M239.845 68.6309C240.63 69.357 248.108 68.2636 254.443 75.0825C262.822 84.0964 261.829 105.162 261.829 105.162C261.829 105.162 252.932 107.19 249.41 107.324C245.888 107.466 238.744 106.439 234.921 105.88C231.023 105.304 228.92 83.3786 231.549 77.5696C234.187 71.7607 239.845 68.6309 239.845 68.6309Z"
                  fill="#2E162B"
                />
                <path
                  d="M239.846 68.6313C239.846 68.6313 231.491 68.1472 229.429 73.5472C227.36 78.9389 228.236 96.1905 225.34 97.9849C225.34 97.9849 227.518 99.3537 229.363 99.2785C229.363 99.2785 230.573 101.407 227.668 104.545C227.668 104.545 231.241 105.88 234.938 105.88C235.197 105.88 237.901 106.64 238.151 104.345C238.443 101.632 236.282 95.6313 236.557 93.0022C237.742 81.8934 239.846 68.6313 239.846 68.6313Z"
                  fill="#382D38"
                />
                <path
                  d="M239.696 69.6246C238.895 69.6162 238.152 69.6997 237.501 69.875C237.501 69.875 230.34 72.8713 230.014 78.1461C229.689 83.4125 230.423 85.4657 229.847 88.8709C228.946 94.2292 232.335 104.203 238.169 104.069C238.302 101.248 236.282 95.5395 236.558 93.0023C237.551 83.7046 239.187 72.9046 239.696 69.6246Z"
                  fill="#141414"
                />
                <path
                  d="M236.197 101.874C236.197 101.874 234.854 112.048 233.46 114.727C232.066 117.406 229.838 129.124 231.791 129.124C233.744 129.124 242.849 120.01 243.434 116.321C244.018 112.632 246.872 97.4004 246.872 97.4004L236.197 101.874Z"
                  fill="#FFA573"
                />
                <path
                  opacity="0.5"
                  d="M236.383 100.731C236.308 100.764 236.082 102.875 236.074 102.959C235.749 105.229 235.657 105.087 235.749 105.388C236.508 107.758 239.563 109.244 244.078 105.212C244.22 105.087 245.706 103.685 245.731 103.568C246.365 100.138 246.874 97.4004 246.874 97.4004C246.874 97.4004 236.466 100.689 236.383 100.731Z"
                  fill="#E89E74"
                />
                <path
                  d="M238.218 69.8411C238.218 69.8411 231.449 72.7038 231.149 77.7533C230.84 82.8027 231.532 84.7557 230.99 88.0191C230.447 91.2825 231.85 100.013 236.974 102.216C242.09 104.419 248.909 95.973 250.103 92.1755C251.296 88.378 251.714 82.953 250.42 77.0188C249.118 71.093 241.982 68.7978 238.218 69.8411Z"
                  fill="#FFA573"
                />
                <path
                  opacity="0.5"
                  d="M246.322 98.118C248.184 96.0565 249.611 93.7279 250.103 92.1838C251.297 88.3863 251.714 82.9613 250.42 77.0271C249.127 71.093 241.991 68.7978 238.227 69.841C238.227 69.841 231.458 72.7038 231.157 77.7532C231.057 79.4475 231.065 80.7913 231.099 81.9514L237.467 81.7344C237.467 81.7344 237.075 76.326 238.343 74.9573L238.552 81.4589L242.917 81.4923C242.917 81.4923 244.511 78.6296 244.419 76.1508C244.419 76.1508 244.57 79.6228 243.677 81.5007C243.677 81.5007 247.232 81.3171 247.307 83.1616C247.366 84.6722 246.84 94.1118 246.573 96.6157C246.506 97.1415 246.422 97.6422 246.322 98.118Z"
                  fill="#E89E74"
                />
                <path
                  d="M259.368 78.5881C254.26 68.0636 244.996 66.5112 239.854 68.6228C236.583 68.7897 232.852 70.1585 231.208 72.9211C228.654 77.2193 230.699 81.3257 230.699 81.3257L236.783 81.2589C236.783 81.2589 237.017 75.0243 238.285 73.6472L238.578 81.1838L242.892 81.0169C242.892 81.0169 244.295 77.1943 244.194 74.7155C244.194 74.7155 245.037 79.0889 244.144 80.9668C244.144 80.9668 247.216 81.309 247.291 83.1535C247.349 84.6642 246.824 94.1037 246.556 96.6076C246.047 101.323 243.452 103.877 243.41 103.944C243.41 103.944 253.551 105.73 255.637 103.46L254.577 106.623C254.577 106.623 260.269 105.964 261.83 105.146C263.399 104.344 262.314 84.6475 259.368 78.5881Z"
                  fill="#141414"
                />
                <path
                  d="M231.208 72.9294C228.654 77.2277 230.699 81.334 230.699 81.334L236.783 81.2673C236.783 81.2673 237.017 75.0326 238.285 73.6555L238.578 81.1921L242.892 81.0252C242.892 81.0252 244.295 77.2027 244.194 74.7238C244.194 74.7238 245.037 79.0972 244.144 80.9751C244.144 80.9751 247.216 81.3173 247.291 83.1618C247.349 84.6725 246.824 94.1121 246.556 96.6159C246.531 96.883 246.49 97.1501 246.448 97.4005C252.123 91.725 251.147 78.1291 249.628 73.3217C248.109 68.5143 239.838 68.6311 239.838 68.6311C236.574 68.798 232.844 70.1668 231.208 72.9294Z"
                  fill="#382D38"
                />
                <path
                  d="M239.861 69.0483C247.523 68.631 252.948 70.3587 255.644 77.5865C258.273 84.5305 260.869 95.3138 258.432 102.333L255.928 101.373C258.256 95.7812 256.854 86.4502 255.285 80.5661C253.324 73.1964 250.778 69.1318 239.861 69.0483Z"
                  fill="#382D38"
                />
                <path
                  d="M238.535 69.4492C235.923 70.2338 233.035 71.5441 231.875 73.9979C230.799 76.2597 231.299 78.8804 231.783 81.3175L232.434 81.3092C231.199 76.1763 230.573 72.145 238.535 69.4492Z"
                  fill="#635E63"
                />
                <path
                  d="M238.819 69.6416C233.419 71.9452 233.627 76.1183 234.946 81.2846L235.589 81.2762C233.894 76.2101 233.485 72.1037 238.819 69.6416Z"
                  fill="#635E63"
                />
                <path
                  d="M239.795 69.3994C241.514 73.5642 241.147 76.9694 240.112 81.1342L240.73 81.1091C241.514 76.9444 241.664 73.4056 239.795 69.3994Z"
                  fill="#635E63"
                />
                <path
                  d="M235.915 92.0335C236.758 90.9986 236.95 88.8452 236.791 87.4932C236.507 88.7785 236.123 91.082 235.464 91.8916L235.322 92.0585C235.389 92.1003 236.282 93.0517 237.392 92.9766C237.058 92.8765 236.332 92.4591 235.915 92.0335Z"
                  fill="#382D38"
                />
                <path
                  d="M241.13 94.3037C238.584 95.5223 234.762 95.6892 234.762 95.6892C234.762 95.6892 235.054 96.2066 235.538 96.7491C236.656 96.649 238.835 96.3736 240.612 95.6641C240.971 94.9297 241.13 94.3037 241.13 94.3037Z"
                  fill="white"
                />
                <path
                  d="M240.621 95.6641C238.844 96.3735 236.657 96.6489 235.547 96.7491C237.45 98.869 239.369 98.2681 240.621 95.6641Z"
                  fill="#2E162B"
                />
                <path
                  d="M238.66 83.379C238.66 83.379 239.228 82.7614 240.388 82.5026C241.556 82.2439 244.035 83.596 244.035 83.596C244.035 83.596 241.556 82.9366 240.864 82.9617C240.171 82.9867 239.086 83.6628 239.086 83.6628L238.66 83.379Z"
                  fill="#382D38"
                />
                <path
                  d="M235.456 83.6459C235.456 83.6459 234.989 83.095 233.987 82.8113C232.986 82.5275 230.799 83.4873 230.799 83.4873C230.799 83.4873 232.96 83.095 233.561 83.1618C234.154 83.2286 235.072 83.8545 235.072 83.8545L235.456 83.6459Z"
                  fill="#382D38"
                />
                <path
                  d="M238.553 86.5669C239.129 85.9326 240.397 85.6822 241.157 85.8324C242.25 86.0494 242.868 86.9424 243.552 87.076C242.526 87.3264 242.183 86.1829 239.821 86.2998C239.396 86.3415 238.97 86.3833 238.553 86.5669Z"
                  fill="#2E162B"
                />
                <path
                  d="M235.247 86.9262C234.73 86.2418 233.478 85.8996 232.71 85.9831C231.6 86.1082 230.915 86.9512 230.223 87.0263C231.224 87.3602 231.667 86.2418 234.003 86.5589C234.429 86.6424 234.855 86.7175 235.247 86.9262Z"
                  fill="#2E162B"
                />
              </g>
              <defs>
                <linearGradient
                  id="paint0_linear"
                  x1="143.973"
                  y1="190.6"
                  x2="145.252"
                  y2="73.6115"
                  gradientUnits="userSpaceOnUse"
                >
                  <stop stop-color="#E5E5E5" />
                  <stop offset="1" stop-color="white" />
                </linearGradient>
                <linearGradient
                  id="paint1_linear"
                  x1="74.5813"
                  y1="119.052"
                  x2="77.1384"
                  y2="16.7662"
                  gradientUnits="userSpaceOnUse"
                >
                  <stop stop-color="#E5E5E5" />
                  <stop offset="1" stop-color="white" />
                </linearGradient>
                <linearGradient
                  id="paint2_linear"
                  x1="110.805"
                  y1="271.649"
                  x2="116.753"
                  y2="150.715"
                  gradientUnits="userSpaceOnUse"
                >
                  <stop stop-color="#E5E5E5" />
                  <stop offset="1" stop-color="white" />
                </linearGradient>
                <clipPath id="clip0">
                  <rect width="305.621" height="400" fill="white" />
                </clipPath>
              </defs>
            </svg>