<svg width="76" height="80" viewBox="0 0 76 80" fill="none" xmlns="http://www.w3.org/2000/svg">
<path d="M66.2536 2H8.59012C4.99551 2 2 4.99551 2 8.59012V60.2626C2 63.8572 4.99551 66.8527 8.59012 66.8527H29.5587L35.6995 75.989C36.5981 77.337 38.5452 77.337 39.2941 75.989L45.4348 66.8527H66.4034C69.998 66.8527 72.9935 63.8572 72.9935 60.2626V8.59012C72.8437 4.99551 69.8482 2 66.2536 2Z" stroke="#2D72C9" stroke-width="2" stroke-miterlimit="10" stroke-linecap="round"/>
<path d="M21.9194 50.5263H30.9059M58.4646 11.4349L40.6413 18.6241H21.1705C16.827 18.7739 13.2324 22.3685 13.2324 26.712V33.9012C13.2324 38.2447 16.6773 41.8393 21.0207 41.8393L18.4746 55.3191C18.175 56.667 19.2234 57.8653 20.7212 57.8653H29.5579C30.6064 57.8653 31.505 57.1164 31.6548 56.0679L34.3507 41.8393H40.7911L58.6143 49.0285C60.1121 49.6276 61.6099 48.5792 61.6099 46.9317V13.5318C61.6099 12.034 59.9623 10.8358 58.4646 11.4349ZM57.1166 43.7864L43.3373 38.2447V22.3685L57.1166 16.8268V43.7864ZM23.4171 46.033H29.4082H23.4171Z" stroke="#2D72C9" stroke-width="2" stroke-miterlimit="10" stroke-linecap="round"/>
<path d="M26.4129 37.0484C29.7216 37.0484 32.4039 34.3662 32.4039 31.0574C32.4039 27.7487 29.7216 25.0664 26.4129 25.0664C23.1041 25.0664 20.4219 27.7487 20.4219 31.0574C20.4219 34.3662 23.1041 37.0484 26.4129 37.0484Z" stroke="#2D72C9" stroke-width="2" stroke-miterlimit="10" stroke-linecap="round"/>
</svg>
