<svg width="76" height="80" fill="none" xmlns="http://www.w3.org/2000/svg"><g clip-path="url(#clip0)" stroke="#FF6139" stroke-width="2" stroke-miterlimit="10" stroke-linecap="round"><path d="M65.039.785H7.375c-3.594 0-6.59 2.996-6.59 6.59v51.673c0 3.594 2.996 6.59 6.59 6.59h20.969l6.14 9.136c.9 1.348 2.846 1.348 3.595 0l6.141-9.136h20.969c3.594 0 6.59-2.996 6.59-6.59V7.375c-.15-3.594-3.146-6.59-6.74-6.59z"/><path d="M58.748 25.948l-14.08-5.692M57.55 9.023c-3.895-1.648-8.388.15-9.886 4.044L35.982 41.075c-.15.3-.15.749-.15 1.048l1.048 11.533c.15 1.797 2.247 2.546 3.595 1.498l8.987-7.34c.3-.299.449-.449.599-.898.3-.749 11.383-27.559 11.532-27.858 1.648-3.894-.3-8.387-4.044-10.035zM36.58 25.948c0-1.198-1.048-2.247-2.246-2.247H12.317c-1.198 0-2.247 1.049-2.247 2.247s1.049 2.246 2.247 2.246h22.167c1.198 0 2.096-1.048 2.096-2.246zM42.572 15.463c0-1.198-1.049-2.246-2.247-2.246H12.317c-1.198 0-2.247 1.048-2.247 2.246 0 1.199 1.049 2.247 2.247 2.247h28.158c1.198 0 2.097-1.048 2.097-2.247zM12.317 39.128H29.69c1.198 0 2.247-1.048 2.247-2.247 0-1.198-1.049-2.246-2.247-2.246H12.317c-1.198 0-2.247 1.048-2.247 2.246.15 1.199 1.049 2.247 2.247 2.247zM31.039 45.568H12.317c-1.198 0-2.247 1.049-2.247 2.247s1.049 2.247 2.247 2.247h18.572c1.198 0 2.247-1.049 2.247-2.247s-.899-2.247-2.097-2.247zM38.678 43.92l7.489 2.995"/></g><defs><clipPath id="clip0"><path fill="#fff" d="M0 0h75.765v80H0z"/></clipPath></defs></svg>