<svg width="76" height="80" viewBox="0 0 76 80" fill="none" xmlns="http://www.w3.org/2000/svg">
<g clip-path="url(#clip0)">
<path d="M65.0388 0.785156H7.37527C3.78066 0.785156 0.785156 3.78066 0.785156 7.37527V59.0478C0.785156 62.6424 3.78066 65.6379 7.37527 65.6379H28.3438L34.4846 74.7742C35.3833 76.1222 37.3303 76.1222 38.0792 74.7742L44.22 65.6379H65.1885C68.7832 65.6379 71.7787 62.6424 71.7787 59.0478V7.37527C71.6289 3.78066 68.6334 0.785156 65.0388 0.785156Z" stroke="white" stroke-width="2" stroke-miterlimit="10" stroke-linecap="round"/>
<path d="M58.7477 25.9475L44.6688 20.2561M57.5495 9.02293C53.6553 7.3754 49.162 9.17271 47.6643 13.0669L35.9818 41.0749C35.832 41.3744 35.832 41.8237 35.832 42.1233L36.8805 53.656C37.0302 55.4533 39.1271 56.2022 40.4751 55.1537L49.4616 47.8147C49.7611 47.5152 49.9109 47.3654 50.0607 46.9161C50.3602 46.1672 61.4436 19.3574 61.5934 19.0579C63.2409 15.1637 61.2938 10.6705 57.5495 9.02293Z" stroke="white" stroke-width="2" stroke-miterlimit="10" stroke-linecap="round"/>
<path d="M36.5805 25.9478C36.5805 24.7496 35.5321 23.7012 34.3339 23.7012H12.3169C11.1187 23.7012 10.0703 24.7496 10.0703 25.9478C10.0703 27.146 11.1187 28.1944 12.3169 28.1944H34.4837C35.6819 28.1944 36.5805 27.146 36.5805 25.9478Z" stroke="white" stroke-width="2" stroke-miterlimit="10" stroke-linecap="round"/>
<path d="M42.5716 15.4634C42.5716 14.2652 41.5231 13.2168 40.3249 13.2168H12.3169C11.1187 13.2168 10.0703 14.2652 10.0703 15.4634C10.0703 16.6616 11.1187 17.7101 12.3169 17.7101H40.4747C41.6729 17.7101 42.5716 16.6616 42.5716 15.4634Z" stroke="white" stroke-width="2" stroke-miterlimit="10" stroke-linecap="round"/>
<path d="M12.3169 39.128H29.6909C30.8891 39.128 31.9375 38.0796 31.9375 36.8814C31.9375 35.6832 30.8891 34.6348 29.6909 34.6348H12.3169C11.1187 34.6348 10.0703 35.6832 10.0703 36.8814C10.2201 38.0796 11.1187 39.128 12.3169 39.128Z" stroke="white" stroke-width="2" stroke-miterlimit="10" stroke-linecap="round"/>
<path d="M31.0389 45.5684H12.3169C11.1187 45.5684 10.0703 46.6168 10.0703 47.815C10.0703 49.0132 11.1187 50.0616 12.3169 50.0616H30.8891C32.0873 50.0616 33.1357 49.0132 33.1357 47.815C33.1357 46.6168 32.2371 45.5684 31.0389 45.5684Z" stroke="white" stroke-width="2" stroke-miterlimit="10" stroke-linecap="round"/>
<path d="M38.6777 43.9199L46.1665 46.9154" stroke="white" stroke-width="2" stroke-miterlimit="10" stroke-linecap="round"/>
</g>
<defs>
<clipPath id="clip0">
<rect width="75.7647" height="80" fill="white"/>
</clipPath>
</defs>
</svg>
