<svg width="24" height="24" viewBox="0 0 24 24" fill="none" xmlns="http://www.w3.org/2000/svg">
<path d="M17.9804 15.3404V18.8804C17.9804 19.7604 17.2704 20.4704 16.3904 20.4704H5.99039C5.11039 20.4704 4.40039 19.7604 4.40039 18.8804V4.99039C4.40039 4.11039 5.11039 3.40039 5.99039 3.40039H16.3904C17.2704 3.40039 17.9804 4.11039 17.9804 4.99039" stroke="#2D72C9" stroke-width="1.2" stroke-miterlimit="10" stroke-linecap="round" stroke-linejoin="round"/>
<path d="M5.97021 18.4512H16.4102" stroke="#2D72C9" stroke-width="1.2" stroke-miterlimit="10" stroke-linecap="round" stroke-linejoin="round"/>
<path d="M5.97021 12.4512H12.4102" stroke="#2D72C9" stroke-width="1.2" stroke-miterlimit="10" stroke-linecap="round" stroke-linejoin="round"/>
<path d="M5.97021 15.4512H15.4102" stroke="#2D72C9" stroke-width="1.2" stroke-miterlimit="10" stroke-linecap="round" stroke-linejoin="round"/>
<path d="M19.3907 7.41016H17.2107C16.4107 7.41016 15.7607 8.06016 15.7607 8.86016C15.7607 9.66016 16.4107 10.3102 17.2107 10.3102H17.9407C18.7407 10.3102 19.3907 10.9602 19.3907 11.7602C19.3907 12.5602 18.7407 13.2102 17.9407 13.2102H15.7607" stroke="#2D72C9" stroke-width="1.2" stroke-miterlimit="10" stroke-linecap="round"/>
<path d="M17.251 6.23047V14.2305" stroke="#2D72C9" stroke-width="1.2" stroke-miterlimit="10" stroke-linecap="round"/>
</svg>
