<svg width="255" height="130" viewBox="0 0 255 130" fill="none" xmlns="http://www.w3.org/2000/svg">
<path d="M0.843506 1.55591V123.266" stroke="#F0F0F0"/>
<path d="M70.6776 1.55591V123.266" stroke="#F0F0F0"/>
<path d="M130.914 1.55591V123.266" stroke="#F0F0F0"/>
<path d="M190.748 1.55591V123.266" stroke="#F0F0F0"/>
<path d="M250.985 1.55591V123.266" stroke="#F0F0F0"/>
<path d="M1 123H251" stroke="#F0F0F0"/>
<path d="M1 113H251" stroke="#F0F0F0"/>
<path d="M1 103H251" stroke="#F0F0F0"/>
<path d="M1 93H251" stroke="#F0F0F0"/>
<path d="M1 82H251" stroke="#F0F0F0"/>
<path d="M1 73H251" stroke="#F0F0F0"/>
<path d="M1 62H251" stroke="#F0F0F0"/>
<path d="M1 52H251" stroke="#F0F0F0"/>
<path d="M1 42H251" stroke="#F0F0F0"/>
<path d="M1 32H251" stroke="#F0F0F0"/>
<path d="M1 22H251" stroke="#F0F0F0"/>
<path d="M1 12H251" stroke="#F0F0F0"/>
<path d="M1 2H251" stroke="#F0F0F0"/>
<path d="M10.8434 104.901C10.8434 104.901 40.56 81.5547 70.6781 81.5547C100.796 81.5547 100.796 58.2087 130.914 58.2087C160.631 58.2087 160.631 42.0222 190.749 42.0222C220.867 42.0222 250.985 17.7424 250.985 17.7424" stroke="#A6CEE3" stroke-width="2"/>
<ellipse cx="10.842" cy="104.902" rx="1.6063" ry="1.24512" fill="#A6CEE3"/>
<ellipse cx="70.6775" cy="81.5552" rx="1.6063" ry="1.24512" fill="#A6CEE3"/>
<ellipse cx="130.912" cy="58.2097" rx="1.6063" ry="1.24512" fill="#A6CEE3"/>
<ellipse cx="190.749" cy="42.0232" rx="1.6063" ry="1.24512" fill="#A6CEE3"/>
<ellipse cx="250.984" cy="17.7434" rx="1.6063" ry="1.24512" fill="#A6CEE3"/>
<path d="M10.8434 110.816C10.8434 110.816 40.56 91.5166 70.6781 91.5166C100.796 91.5166 100.796 69.4158 130.914 69.4158C160.631 69.4158 160.631 49.1826 190.749 49.1826C220.867 49.1826 250.985 38.9104 250.985 38.9104" stroke="#2D72C9" stroke-width="2"/>
<ellipse cx="10.842" cy="110.816" rx="1.6063" ry="1.24512" fill="#2D72C9"/>
<ellipse cx="70.6775" cy="91.5161" rx="1.6063" ry="1.24512" fill="#2D72C9"/>
<ellipse cx="130.912" cy="69.4153" rx="1.6063" ry="1.24512" fill="#2D72C9"/>
<ellipse cx="190.749" cy="49.1821" rx="1.6063" ry="1.24512" fill="#2D72C9"/>
<ellipse cx="250.984" cy="38.9099" rx="1.6063" ry="1.24512" fill="#2D72C9"/>
<path d="M10.8434 112.06C10.8434 112.06 40.56 99.9202 70.6781 99.9202C100.796 99.9202 100.796 85.6013 130.914 85.6013C160.631 85.6013 160.631 64.4343 190.749 64.4343C220.867 64.4343 250.985 46.0688 250.985 46.0688" stroke="#B2DF8A" stroke-width="2"/>
<ellipse cx="10.842" cy="112.06" rx="1.6063" ry="1.24512" fill="#B2DF8A"/>
<ellipse cx="70.6775" cy="99.9202" rx="1.6063" ry="1.24512" fill="#B2DF8A"/>
<ellipse cx="130.912" cy="85.6018" rx="1.6063" ry="1.24512" fill="#B2DF8A"/>
<ellipse cx="190.749" cy="64.4353" rx="1.6063" ry="1.24512" fill="#B2DF8A"/>
<ellipse cx="250.984" cy="46.0698" rx="1.6063" ry="1.24512" fill="#B2DF8A"/>
<path d="M10.8434 106.769C10.8434 106.769 40.56 82.4895 70.6781 82.4895C100.796 82.4895 100.796 66.303 130.914 66.303C160.631 66.303 160.631 51.9841 190.749 51.9841C220.867 51.9841 250.985 38.9104 250.985 38.9104" stroke="#56BFBA" stroke-width="2"/>
<ellipse cx="10.842" cy="106.769" rx="1.6063" ry="1.24512" fill="#33A02C"/>
<ellipse cx="70.6775" cy="82.4895" rx="1.6063" ry="1.24512" fill="#33A02C"/>
<ellipse cx="130.912" cy="66.303" rx="1.6063" ry="1.24512" fill="#33A02C"/>
<ellipse cx="190.749" cy="51.9836" rx="1.6063" ry="1.24512" fill="#33A02C"/>
<ellipse cx="250.984" cy="38.9099" rx="1.6063" ry="1.24512" fill="#33A02C"/>
<rect x="27" y="53" width="50" height="26" rx="3" fill="#2D72C9"/>
<path d="M35.49 72.7V71.32L38.65 66.8H40.56V71.22H41.38V72.7H40.56V74H38.85V72.7H35.49ZM38.97 68.68L37.29 71.22H38.97V68.68ZM43.1876 74.08C42.8876 74.08 42.6409 73.9933 42.4476 73.82C42.2609 73.64 42.1676 73.42 42.1676 73.16C42.1676 72.8933 42.2609 72.67 42.4476 72.49C42.6409 72.31 42.8876 72.22 43.1876 72.22C43.4809 72.22 43.7209 72.31 43.9076 72.49C44.1009 72.67 44.1976 72.8933 44.1976 73.16C44.1976 73.42 44.1009 73.64 43.9076 73.82C43.7209 73.9933 43.4809 74.08 43.1876 74.08ZM50.1798 68.19H47.0598V69.57C47.1932 69.4233 47.3798 69.3033 47.6198 69.21C47.8598 69.1167 48.1198 69.07 48.3998 69.07C48.8998 69.07 49.3132 69.1833 49.6398 69.41C49.9732 69.6367 50.2165 69.93 50.3698 70.29C50.5232 70.65 50.5998 71.04 50.5998 71.46C50.5998 72.24 50.3798 72.86 49.9398 73.32C49.4998 73.7733 48.8798 74 48.0798 74C47.5465 74 47.0832 73.91 46.6898 73.73C46.2965 73.5433 45.9932 73.2867 45.7798 72.96C45.5665 72.6333 45.4498 72.2567 45.4298 71.83H47.0998C47.1398 72.0367 47.2365 72.21 47.3898 72.35C47.5432 72.4833 47.7532 72.55 48.0198 72.55C48.3332 72.55 48.5665 72.45 48.7198 72.25C48.8732 72.05 48.9498 71.7833 48.9498 71.45C48.9498 71.1233 48.8698 70.8733 48.7098 70.7C48.5498 70.5267 48.3165 70.44 48.0098 70.44C47.7832 70.44 47.5965 70.4967 47.4498 70.61C47.3032 70.7167 47.2065 70.86 47.1598 71.04H45.5098V66.69H50.1798V68.19ZM51.4838 72.63C51.7104 72.45 51.8138 72.3667 51.7938 72.38C52.4471 71.84 52.9604 71.3967 53.3338 71.05C53.7138 70.7033 54.0338 70.34 54.2938 69.96C54.5538 69.58 54.6838 69.21 54.6838 68.85C54.6838 68.5767 54.6204 68.3633 54.4938 68.21C54.3671 68.0567 54.1771 67.98 53.9238 67.98C53.6704 67.98 53.4704 68.0767 53.3238 68.27C53.1838 68.4567 53.1138 68.7233 53.1138 69.07H51.4638C51.4771 68.5033 51.5971 68.03 51.8238 67.65C52.0571 67.27 52.3604 66.99 52.7338 66.81C53.1138 66.63 53.5338 66.54 53.9938 66.54C54.7871 66.54 55.3838 66.7433 55.7838 67.15C56.1904 67.5567 56.3938 68.0867 56.3938 68.74C56.3938 69.4533 56.1504 70.1167 55.6638 70.73C55.1771 71.3367 54.5571 71.93 53.8038 72.51H56.5038V73.9H51.4838V72.63ZM57.2566 70.25C57.2566 69.1033 57.4766 68.2 57.9166 67.54C58.3633 66.88 59.08 66.55 60.0666 66.55C61.0533 66.55 61.7666 66.88 62.2066 67.54C62.6533 68.2 62.8766 69.1033 62.8766 70.25C62.8766 71.41 62.6533 72.32 62.2066 72.98C61.7666 73.64 61.0533 73.97 60.0666 73.97C59.08 73.97 58.3633 73.64 57.9166 72.98C57.4766 72.32 57.2566 71.41 57.2566 70.25ZM61.1966 70.25C61.1966 69.5767 61.1233 69.06 60.9766 68.7C60.83 68.3333 60.5266 68.15 60.0666 68.15C59.6066 68.15 59.3033 68.3333 59.1566 68.7C59.01 69.06 58.9366 69.5767 58.9366 70.25C58.9366 70.7033 58.9633 71.08 59.0166 71.38C59.07 71.6733 59.1766 71.9133 59.3366 72.1C59.5033 72.28 59.7466 72.37 60.0666 72.37C60.3866 72.37 60.6266 72.28 60.7866 72.1C60.9533 71.9133 61.0633 71.6733 61.1166 71.38C61.17 71.08 61.1966 70.7033 61.1966 70.25ZM63.6001 68.29V66.7H66.3701V74H64.5901V68.29H63.6001Z" fill="white"/>
<path d="M46.265 57.515L44.95 61H44.425L43.11 57.515H43.595L44.69 60.52L45.785 57.515H46.265ZM46.9989 57.815C46.9122 57.815 46.8389 57.785 46.7789 57.725C46.7189 57.665 46.6889 57.5917 46.6889 57.505C46.6889 57.4183 46.7189 57.345 46.7789 57.285C46.8389 57.225 46.9122 57.195 46.9989 57.195C47.0822 57.195 47.1522 57.225 47.2089 57.285C47.2689 57.345 47.2989 57.4183 47.2989 57.505C47.2989 57.5917 47.2689 57.665 47.2089 57.725C47.1522 57.785 47.0822 57.815 46.9989 57.815ZM47.2189 58.26V61H46.7639V58.26H47.2189ZM48.9644 61.045C48.7544 61.045 48.566 61.01 48.3994 60.94C48.2327 60.8667 48.101 60.7667 48.0044 60.64C47.9077 60.51 47.8544 60.3617 47.8444 60.195H48.3144C48.3277 60.3317 48.391 60.4433 48.5044 60.53C48.621 60.6167 48.7727 60.66 48.9594 60.66C49.1327 60.66 49.2694 60.6217 49.3694 60.545C49.4694 60.4683 49.5194 60.3717 49.5194 60.255C49.5194 60.135 49.466 60.0467 49.3594 59.99C49.2527 59.93 49.0877 59.8717 48.8644 59.815C48.661 59.7617 48.4944 59.7083 48.3644 59.655C48.2377 59.5983 48.1277 59.5167 48.0344 59.41C47.9444 59.3 47.8994 59.1567 47.8994 58.98C47.8994 58.84 47.941 58.7117 48.0244 58.595C48.1077 58.4783 48.226 58.3867 48.3794 58.32C48.5327 58.25 48.7077 58.215 48.9044 58.215C49.2077 58.215 49.4527 58.2917 49.6394 58.445C49.826 58.5983 49.926 58.8083 49.9394 59.075H49.4844C49.4744 58.9317 49.416 58.8167 49.3094 58.73C49.206 58.6433 49.066 58.6 48.8894 58.6C48.726 58.6 48.596 58.635 48.4994 58.705C48.4027 58.775 48.3544 58.8667 48.3544 58.98C48.3544 59.07 48.3827 59.145 48.4394 59.205C48.4994 59.2617 48.5727 59.3083 48.6594 59.345C48.7494 59.3783 48.8727 59.4167 49.0294 59.46C49.226 59.5133 49.386 59.5667 49.5094 59.62C49.6327 59.67 49.7377 59.7467 49.8244 59.85C49.9144 59.9533 49.961 60.0883 49.9644 60.255C49.9644 60.405 49.9227 60.54 49.8394 60.66C49.756 60.78 49.6377 60.875 49.4844 60.945C49.3344 61.0117 49.161 61.045 48.9644 61.045ZM50.8417 57.815C50.755 57.815 50.6817 57.785 50.6217 57.725C50.5617 57.665 50.5317 57.5917 50.5317 57.505C50.5317 57.4183 50.5617 57.345 50.6217 57.285C50.6817 57.225 50.755 57.195 50.8417 57.195C50.925 57.195 50.995 57.225 51.0517 57.285C51.1117 57.345 51.1417 57.4183 51.1417 57.505C51.1417 57.5917 51.1117 57.665 51.0517 57.725C50.995 57.785 50.925 57.815 50.8417 57.815ZM51.0617 58.26V61H50.6067V58.26H51.0617ZM52.3921 58.635V60.25C52.3921 60.3833 52.4205 60.4783 52.4771 60.535C52.5338 60.5883 52.6321 60.615 52.7721 60.615H53.1071V61H52.6971C52.4438 61 52.2538 60.9417 52.1271 60.825C52.0005 60.7083 51.9371 60.5167 51.9371 60.25V58.635H51.5821V58.26H51.9371V57.57H52.3921V58.26H53.1071V58.635H52.3921ZM53.4884 59.62C53.4884 59.34 53.5451 59.095 53.6584 58.885C53.7718 58.6717 53.9268 58.5067 54.1234 58.39C54.3234 58.2733 54.5451 58.215 54.7884 58.215C55.0284 58.215 55.2368 58.2667 55.4134 58.37C55.5901 58.4733 55.7218 58.6033 55.8084 58.76V58.26H56.2684V61H55.8084V60.49C55.7184 60.65 55.5834 60.7833 55.4034 60.89C55.2268 60.9933 55.0201 61.045 54.7834 61.045C54.5401 61.045 54.3201 60.985 54.1234 60.865C53.9268 60.745 53.7718 60.5767 53.6584 60.36C53.5451 60.1433 53.4884 59.8967 53.4884 59.62ZM55.8084 59.625C55.8084 59.4183 55.7668 59.2383 55.6834 59.085C55.6001 58.9317 55.4868 58.815 55.3434 58.735C55.2034 58.6517 55.0484 58.61 54.8784 58.61C54.7084 58.61 54.5534 58.65 54.4134 58.73C54.2734 58.81 54.1618 58.9267 54.0784 59.08C53.9951 59.2333 53.9534 59.4133 53.9534 59.62C53.9534 59.83 53.9951 60.0133 54.0784 60.17C54.1618 60.3233 54.2734 60.4417 54.4134 60.525C54.5534 60.605 54.7084 60.645 54.8784 60.645C55.0484 60.645 55.2034 60.605 55.3434 60.525C55.4868 60.4417 55.6001 60.3233 55.6834 60.17C55.7668 60.0133 55.8084 59.8317 55.8084 59.625ZM58.0073 61.045C57.7973 61.045 57.609 61.01 57.4423 60.94C57.2757 60.8667 57.144 60.7667 57.0473 60.64C56.9507 60.51 56.8973 60.3617 56.8873 60.195H57.3573C57.3707 60.3317 57.434 60.4433 57.5473 60.53C57.664 60.6167 57.8157 60.66 58.0023 60.66C58.1757 60.66 58.3123 60.6217 58.4123 60.545C58.5123 60.4683 58.5623 60.3717 58.5623 60.255C58.5623 60.135 58.509 60.0467 58.4023 59.99C58.2957 59.93 58.1307 59.8717 57.9073 59.815C57.704 59.7617 57.5373 59.7083 57.4073 59.655C57.2807 59.5983 57.1707 59.5167 57.0773 59.41C56.9873 59.3 56.9423 59.1567 56.9423 58.98C56.9423 58.84 56.984 58.7117 57.0673 58.595C57.1507 58.4783 57.269 58.3867 57.4223 58.32C57.5757 58.25 57.7507 58.215 57.9473 58.215C58.2507 58.215 58.4957 58.2917 58.6823 58.445C58.869 58.5983 58.969 58.8083 58.9823 59.075H58.5273C58.5173 58.9317 58.459 58.8167 58.3523 58.73C58.249 58.6433 58.109 58.6 57.9323 58.6C57.769 58.6 57.639 58.635 57.5423 58.705C57.4457 58.775 57.3973 58.8667 57.3973 58.98C57.3973 59.07 57.4257 59.145 57.4823 59.205C57.5423 59.2617 57.6157 59.3083 57.7023 59.345C57.7923 59.3783 57.9157 59.4167 58.0723 59.46C58.269 59.5133 58.429 59.5667 58.5523 59.62C58.6757 59.67 58.7807 59.7467 58.8673 59.85C58.9573 59.9533 59.004 60.0883 59.0073 60.255C59.0073 60.405 58.9657 60.54 58.8823 60.66C58.799 60.78 58.6807 60.875 58.5273 60.945C58.3773 61.0117 58.204 61.045 58.0073 61.045Z" fill="white"/>
</svg>
