<svg width="24" height="40" viewBox="0 0 24 40" fill="none" xmlns="http://www.w3.org/2000/svg">
<path d="M12.0816 10.7804C13.0004 10.7804 13.7452 10.0356 13.7452 9.11676C13.7452 8.19796 13.0004 7.45312 12.0816 7.45312C11.1628 7.45312 10.418 8.19796 10.418 9.11676C10.418 10.0356 11.1628 10.7804 12.0816 10.7804Z" stroke="white" stroke-width="1.2" stroke-miterlimit="10"/>
<path d="M15.4822 15.0621L15.0731 13.053C14.9095 12.2439 14.1913 11.6621 13.3731 11.6621H13.1458C12.864 11.9076 12.4913 12.0712 12.0822 12.0712C11.6731 12.0712 11.3095 11.9167 11.0186 11.6621H10.6276C9.80038 11.6621 9.09128 12.2439 8.92765 13.053L8.51856 15.0621C8.45492 15.3621 8.68219 15.6348 8.98219 15.6348H15.0095C15.3186 15.6348 15.5458 15.3621 15.4822 15.0621Z" stroke="white" stroke-width="1.2" stroke-miterlimit="10"/>
<path d="M3.81836 10.2722V4.77219C3.81836 4.37219 4.14563 4.04492 4.54563 4.04492H9.97291" stroke="white" stroke-width="1.2" stroke-miterlimit="10"/>
<path d="M9.91836 19.5011H4.54563C4.14563 19.5011 3.81836 19.1738 3.81836 18.7738V13.9102" stroke="white" stroke-width="1.2" stroke-miterlimit="10"/>
<path d="M20.1813 13.9102V18.7829C20.1813 19.1829 19.854 19.5102 19.454 19.5102H13.5449" stroke="white" stroke-width="1.2" stroke-miterlimit="10"/>
<path d="M13.5996 4.04492H19.4542C19.8542 4.04492 20.1814 4.37219 20.1814 4.77219V10.2722" stroke="white" stroke-width="1.2" stroke-miterlimit="10"/>
<path d="M13.1453 5.63636H10.8544C10.4816 5.63636 10.1816 5.33636 10.1816 4.96364V2.67273C10.1816 2.3 10.4816 2 10.8544 2H13.1453C13.518 2 13.818 2.3 13.818 2.67273V4.96364C13.818 5.33636 13.518 5.63636 13.1453 5.63636Z" stroke="white" stroke-width="1.2" stroke-miterlimit="10"/>
<path d="M13.1453 21.0914H10.8544C10.4816 21.0914 10.1816 20.7914 10.1816 20.4187V18.1278C10.1816 17.7551 10.4816 17.4551 10.8544 17.4551H13.1453C13.518 17.4551 13.818 17.7551 13.818 18.1278V20.4187C13.818 20.7914 13.518 21.0914 13.1453 21.0914Z" stroke="white" stroke-width="1.2" stroke-miterlimit="10"/>
<path d="M21.3269 13.5914H19.036C18.6633 13.5914 18.3633 13.2914 18.3633 12.9187V10.6278C18.3633 10.2551 18.6633 9.95508 19.036 9.95508H21.3269C21.6996 9.95508 21.9996 10.2551 21.9996 10.6278V12.9187C21.9996 13.2914 21.6996 13.5914 21.3269 13.5914Z" stroke="white" stroke-width="1.2" stroke-miterlimit="10"/>
<path d="M4.96364 13.5914H2.67273C2.3 13.5914 2 13.2914 2 12.9187V10.6278C2 10.2551 2.3 9.95508 2.67273 9.95508H4.96364C5.33636 9.95508 5.63636 10.2551 5.63636 10.6278V12.9187C5.63636 13.2914 5.33636 13.5914 4.96364 13.5914Z" stroke="white" stroke-width="1.2" stroke-miterlimit="10"/>
<path d="M3.423 35.915H1.295L0.903 37H0.231L1.995 32.149H2.73L4.487 37H3.815L3.423 35.915ZM3.241 35.397L2.359 32.933L1.477 35.397H3.241ZM6.8168 33.689H6.0118V37H5.3748V33.689H4.8778V33.164H5.3748V32.891C5.3748 32.4617 5.48446 32.149 5.7038 31.953C5.9278 31.7523 6.2848 31.652 6.7748 31.652V32.184C6.4948 32.184 6.29646 32.24 6.1798 32.352C6.0678 32.4593 6.0118 32.639 6.0118 32.891V33.164H6.8168V33.689ZM9.12051 33.689H8.31551V37H7.67851V33.689H7.18151V33.164H7.67851V32.891C7.67851 32.4617 7.78817 32.149 8.00751 31.953C8.23151 31.7523 8.58851 31.652 9.07851 31.652V32.184C8.79851 32.184 8.60017 32.24 8.48351 32.352C8.37151 32.4593 8.31551 32.639 8.31551 32.891V33.164H9.12051V33.689ZM10.1922 32.541C10.0709 32.541 9.96822 32.499 9.88422 32.415C9.80022 32.331 9.75822 32.2283 9.75822 32.107C9.75822 31.9857 9.80022 31.883 9.88422 31.799C9.96822 31.715 10.0709 31.673 10.1922 31.673C10.3089 31.673 10.4069 31.715 10.4862 31.799C10.5702 31.883 10.6122 31.9857 10.6122 32.107C10.6122 32.2283 10.5702 32.331 10.4862 32.415C10.4069 32.499 10.3089 32.541 10.1922 32.541ZM10.5002 33.164V37H9.86322V33.164H10.5002ZM13.4549 33.094C13.9215 33.094 14.2995 33.2363 14.5889 33.521C14.8782 33.801 15.0229 34.207 15.0229 34.739V37H14.3929V34.83C14.3929 34.4473 14.2972 34.1557 14.1059 33.955C13.9145 33.7497 13.6532 33.647 13.3219 33.647C12.9859 33.647 12.7175 33.752 12.5169 33.962C12.3209 34.172 12.2229 34.4777 12.2229 34.879V37H11.5859V33.164H12.2229V33.71C12.3489 33.514 12.5192 33.3623 12.7339 33.255C12.9532 33.1477 13.1935 33.094 13.4549 33.094ZM16.3924 32.541C16.2711 32.541 16.1684 32.499 16.0844 32.415C16.0004 32.331 15.9584 32.2283 15.9584 32.107C15.9584 31.9857 16.0004 31.883 16.0844 31.799C16.1684 31.715 16.2711 31.673 16.3924 31.673C16.5091 31.673 16.6071 31.715 16.6864 31.799C16.7704 31.883 16.8124 31.9857 16.8124 32.107C16.8124 32.2283 16.7704 32.331 16.6864 32.415C16.6071 32.499 16.5091 32.541 16.3924 32.541ZM16.7004 33.164V37H16.0634V33.164H16.7004ZM18.5631 33.689V35.95C18.5631 36.1367 18.6027 36.2697 18.6821 36.349C18.7614 36.4237 18.8991 36.461 19.0951 36.461H19.5641V37H18.9901C18.6354 37 18.3694 36.9183 18.1921 36.755C18.0147 36.5917 17.9261 36.3233 17.9261 35.95V33.689H17.4291V33.164H17.9261V32.198H18.5631V33.164H19.5641V33.689H18.5631ZM23.6399 33.164L21.3299 38.806H20.6719L21.4279 36.958L19.8809 33.164H20.5879L21.7919 36.272L22.9819 33.164H23.6399Z" fill="white"/>
</svg>
