<svg width="250" height="250" viewBox="0 0 250 250" fill="none" xmlns="http://www.w3.org/2000/svg">
<g clip-path="url(#clip0)">
<path d="M16.7765 62.5107C11.3577 71.8744 7.10942 81.9749 4.24831 92.639C1.4739 102.956 0 113.794 0 125.022C0 136.249 1.4739 147.043 4.24831 157.361C7.10942 168.025 11.3577 178.169 16.7765 187.489C22.2819 196.983 28.9145 205.696 36.6308 213.369L125.022 124.978L16.7765 62.5107Z" fill="#93F9BC"/>
<path d="M92.6342 4.24831C81.9701 7.10942 71.8261 11.3577 62.5059 16.7765C53.0122 22.2819 44.2988 28.9145 36.6258 36.6308C28.9095 44.3471 22.2769 53.0605 16.7715 62.5108L125.017 125.022V0C113.789 0 102.952 1.4739 92.6342 4.24831Z" fill="#B2D3FE"/>
<path d="M245.75 92.6377L125.02 124.977L36.6289 213.411C44.3452 221.127 53.0586 227.76 62.5089 233.265C71.8725 238.684 81.9731 242.933 92.6373 245.794C102.955 248.568 113.792 250.042 124.976 250.042C136.161 250.042 146.998 248.568 157.316 245.794C167.98 242.933 178.124 238.684 187.444 233.265C196.938 227.76 205.651 221.127 213.324 213.411C221.04 205.695 227.673 196.981 233.178 187.531C238.597 178.167 242.845 168.067 245.706 157.403C248.481 147.085 249.955 136.248 249.955 125.064C249.955 113.879 248.524 102.955 245.75 92.6377Z" fill="#FF6139"/>
<path d="M245.751 92.6392C242.89 81.975 238.642 71.8311 233.223 62.5108C227.718 53.0172 221.085 44.3038 213.369 36.6308C205.653 28.9145 196.939 22.2819 187.489 16.7765C178.125 11.3577 168.025 7.10942 157.361 4.24831C147.043 1.4739 136.206 0 125.021 0V125.022L245.751 92.6392Z" fill="#2D72C9"/>
<path d="M175.523 175.627C203.304 147.846 203.304 102.805 175.523 75.0239C147.742 47.2432 102.701 47.2432 74.9205 75.0239C47.1398 102.805 47.1398 147.846 74.9205 175.627C102.701 203.407 147.742 203.407 175.523 175.627Z" fill="white"/>
</g>
<defs>
<clipPath id="clip0">
<rect width="250" height="250" fill="white"/>
</clipPath>
</defs>
</svg>
