<svg width="743" height="342" viewBox="0 0 743 342" fill="none" xmlns="http://www.w3.org/2000/svg">
<path d="M27.8219 335.44H25.5367V341.778H24.6041V335.44H22.3238V334.669H27.8219V335.44ZM30.4391 341.876C29.7229 341.876 29.1402 341.642 28.691 341.173C28.2418 340.701 28.0172 340.071 28.0172 339.283V339.117C28.0172 338.593 28.1165 338.126 28.315 337.716C28.5169 337.302 28.7968 336.98 29.1549 336.749C29.5162 336.515 29.9068 336.397 30.3268 336.397C31.0136 336.397 31.5475 336.624 31.9283 337.076C32.3092 337.529 32.4996 338.176 32.4996 339.02V339.396H28.9205C28.9335 339.916 29.0849 340.338 29.3746 340.66C29.6676 340.979 30.0387 341.139 30.4879 341.139C30.8069 341.139 31.0771 341.074 31.2984 340.943C31.5198 340.813 31.7135 340.641 31.8795 340.426L32.4312 340.855C31.9885 341.536 31.3245 341.876 30.4391 341.876ZM30.3268 337.14C29.9622 337.14 29.6562 337.273 29.4088 337.54C29.1614 337.804 29.0084 338.175 28.9498 338.653H31.5963V338.585C31.5702 338.126 31.4465 337.771 31.2252 337.521C31.0038 337.267 30.7044 337.14 30.3268 337.14ZM35.3219 338.424L36.4937 336.495H37.5484L35.8199 339.107L37.6021 341.778H36.5572L35.3365 339.801L34.1158 341.778H33.066L34.8482 339.107L33.1197 336.495H34.1646L35.3219 338.424ZM39.7359 335.216V336.495H40.7223V337.193H39.7359V340.47C39.7359 340.681 39.7799 340.841 39.8678 340.948C39.9557 341.052 40.1054 341.104 40.317 341.104C40.4212 341.104 40.5644 341.085 40.7467 341.046V341.778C40.509 341.843 40.2779 341.876 40.0533 341.876C39.6497 341.876 39.3453 341.754 39.1402 341.51C38.9352 341.266 38.8326 340.919 38.8326 340.47V337.193H37.8707V336.495H38.8326V335.216H39.7359Z" fill="#A3A3A3"/>
<path d="M202.164 335.44H199.879V341.778H198.946V335.44H196.666V334.669H202.164V335.44ZM204.781 341.876C204.065 341.876 203.482 341.642 203.033 341.173C202.584 340.701 202.359 340.071 202.359 339.283V339.117C202.359 338.593 202.458 338.126 202.657 337.716C202.859 337.302 203.139 336.98 203.497 336.749C203.858 336.515 204.249 336.397 204.669 336.397C205.355 336.397 205.889 336.624 206.27 337.076C206.651 337.529 206.841 338.176 206.841 339.02V339.396H203.262C203.275 339.916 203.427 340.338 203.716 340.66C204.009 340.979 204.38 341.139 204.83 341.139C205.149 341.139 205.419 341.074 205.64 340.943C205.862 340.813 206.055 340.641 206.221 340.426L206.773 340.855C206.33 341.536 205.666 341.876 204.781 341.876ZM204.669 337.14C204.304 337.14 203.998 337.273 203.751 337.54C203.503 337.804 203.35 338.175 203.292 338.653H205.938V338.585C205.912 338.126 205.788 337.771 205.567 337.521C205.346 337.267 205.046 337.14 204.669 337.14ZM209.664 338.424L210.836 336.495H211.89L210.162 339.107L211.944 341.778H210.899L209.678 339.801L208.458 341.778H207.408L209.19 339.107L207.462 336.495H208.506L209.664 338.424ZM214.078 335.216V336.495H215.064V337.193H214.078V340.47C214.078 340.681 214.122 340.841 214.21 340.948C214.297 341.052 214.447 341.104 214.659 341.104C214.763 341.104 214.906 341.085 215.088 341.046V341.778C214.851 341.843 214.62 341.876 214.395 341.876C213.991 341.876 213.687 341.754 213.482 341.51C213.277 341.266 213.174 340.919 213.174 340.47V337.193H212.212V336.495H213.174V335.216H214.078Z" fill="#A3A3A3"/>
<path d="M377.676 335.44H375.391V341.778H374.459V335.44H372.178V334.669H377.676V335.44ZM380.294 341.876C379.577 341.876 378.995 341.642 378.546 341.173C378.096 340.701 377.872 340.071 377.872 339.283V339.117C377.872 338.593 377.971 338.126 378.17 337.716C378.371 337.302 378.651 336.98 379.009 336.749C379.371 336.515 379.761 336.397 380.181 336.397C380.868 336.397 381.402 336.624 381.783 337.076C382.164 337.529 382.354 338.176 382.354 339.02V339.396H378.775C378.788 339.916 378.939 340.338 379.229 340.66C379.522 340.979 379.893 341.139 380.342 341.139C380.661 341.139 380.932 341.074 381.153 340.943C381.374 340.813 381.568 340.641 381.734 340.426L382.286 340.855C381.843 341.536 381.179 341.876 380.294 341.876ZM380.181 337.14C379.817 337.14 379.511 337.273 379.263 337.54C379.016 337.804 378.863 338.175 378.804 338.653H381.451V338.585C381.425 338.126 381.301 337.771 381.08 337.521C380.858 337.267 380.559 337.14 380.181 337.14ZM385.176 338.424L386.348 336.495H387.403L385.674 339.107L387.457 341.778H386.412L385.191 339.801L383.97 341.778H382.921L384.703 339.107L382.974 336.495H384.019L385.176 338.424ZM389.59 335.216V336.495H390.577V337.193H389.59V340.47C389.59 340.681 389.634 340.841 389.722 340.948C389.81 341.052 389.96 341.104 390.171 341.104C390.276 341.104 390.419 341.085 390.601 341.046V341.778C390.364 341.843 390.132 341.876 389.908 341.876C389.504 341.876 389.2 341.754 388.995 341.51C388.79 341.266 388.687 340.919 388.687 340.47V337.193H387.725V336.495H388.687V335.216H389.59Z" fill="#A3A3A3"/>
<path d="M552.016 335.44H549.731V341.778H548.798V335.44H546.518V334.669H552.016V335.44ZM554.633 341.876C553.917 341.876 553.335 341.642 552.885 341.173C552.436 340.701 552.212 340.071 552.212 339.283V339.117C552.212 338.593 552.311 338.126 552.509 337.716C552.711 337.302 552.991 336.98 553.349 336.749C553.711 336.515 554.101 336.397 554.521 336.397C555.208 336.397 555.742 336.624 556.123 337.076C556.504 337.529 556.694 338.176 556.694 339.02V339.396H553.115C553.128 339.916 553.279 340.338 553.569 340.66C553.862 340.979 554.233 341.139 554.682 341.139C555.001 341.139 555.271 341.074 555.493 340.943C555.714 340.813 555.908 340.641 556.074 340.426L556.626 340.855C556.183 341.536 555.519 341.876 554.633 341.876ZM554.521 337.14C554.157 337.14 553.851 337.273 553.603 337.54C553.356 337.804 553.203 338.175 553.144 338.653H555.791V338.585C555.765 338.126 555.641 337.771 555.42 337.521C555.198 337.267 554.899 337.14 554.521 337.14ZM559.516 338.424L560.688 336.495H561.743L560.014 339.107L561.796 341.778H560.752L559.531 339.801L558.31 341.778H557.26L559.043 339.107L557.314 336.495H558.359L559.516 338.424ZM563.93 335.216V336.495H564.917V337.193H563.93V340.47C563.93 340.681 563.974 340.841 564.062 340.948C564.15 341.052 564.3 341.104 564.511 341.104C564.615 341.104 564.759 341.085 564.941 341.046V341.778C564.703 341.843 564.472 341.876 564.248 341.876C563.844 341.876 563.54 341.754 563.335 341.51C563.129 341.266 563.027 340.919 563.027 340.47V337.193H562.065V336.495H563.027V335.216H563.93Z" fill="#A3A3A3"/>
<path d="M727.529 335.44H725.244V341.778H724.311V335.44H722.031V334.669H727.529V335.44ZM730.146 341.876C729.43 341.876 728.847 341.642 728.398 341.173C727.949 340.701 727.724 340.071 727.724 339.283V339.117C727.724 338.593 727.823 338.126 728.022 337.716C728.224 337.302 728.504 336.98 728.862 336.749C729.223 336.515 729.614 336.397 730.034 336.397C730.721 336.397 731.254 336.624 731.635 337.076C732.016 337.529 732.207 338.176 732.207 339.02V339.396H728.628C728.641 339.916 728.792 340.338 729.082 340.66C729.375 340.979 729.746 341.139 730.195 341.139C730.514 341.139 730.784 341.074 731.005 340.943C731.227 340.813 731.421 340.641 731.587 340.426L732.138 340.855C731.696 341.536 731.032 341.876 730.146 341.876ZM730.034 337.14C729.669 337.14 729.363 337.273 729.116 337.54C728.868 337.804 728.715 338.175 728.657 338.653H731.303V338.585C731.277 338.126 731.154 337.771 730.932 337.521C730.711 337.267 730.411 337.14 730.034 337.14ZM735.029 338.424L736.201 336.495H737.255L735.527 339.107L737.309 341.778H736.264L735.044 339.801L733.823 341.778H732.773L734.555 339.107L732.827 336.495H733.872L735.029 338.424ZM739.443 335.216V336.495H740.429V337.193H739.443V340.47C739.443 340.681 739.487 340.841 739.575 340.948C739.663 341.052 739.812 341.104 740.024 341.104C740.128 341.104 740.271 341.085 740.454 341.046V341.778C740.216 341.843 739.985 341.876 739.76 341.876C739.357 341.876 739.052 341.754 738.847 341.51C738.642 341.266 738.54 340.919 738.54 340.47V337.193H737.578V336.495H738.54V335.216H739.443Z" fill="#A3A3A3"/>
<path d="M19.3249 326.413C19.3249 327.471 19.1442 328.257 18.7829 328.771C18.4216 329.286 17.8568 329.543 17.0886 329.543C16.3301 329.543 15.7686 329.292 15.404 328.791C15.0394 328.286 14.8506 327.535 14.8376 326.535V325.329C14.8376 324.284 15.0183 323.508 15.3796 323C15.7409 322.492 16.3073 322.238 17.0788 322.238C17.8438 322.238 18.4069 322.484 18.7683 322.976C19.1296 323.464 19.3151 324.219 19.3249 325.241V326.413ZM18.4216 325.178C18.4216 324.413 18.3142 323.856 18.0993 323.508C17.8845 323.156 17.5443 322.98 17.0788 322.98C16.6166 322.98 16.2797 323.155 16.0681 323.503C15.8565 323.851 15.7474 324.387 15.7409 325.109V326.555C15.7409 327.323 15.8516 327.891 16.073 328.259C16.2976 328.623 16.6361 328.806 17.0886 328.806C17.5345 328.806 17.865 328.633 18.0798 328.288C18.2979 327.943 18.4118 327.399 18.4216 326.657V325.178Z" fill="#A3A3A3"/>
<path d="M12.2204 302.316H11.3122V296.296L9.49093 296.965V296.145L12.0788 295.173H12.2204V302.316ZM19.3249 299.284C19.3249 300.342 19.1442 301.128 18.7829 301.643C18.4216 302.157 17.8568 302.414 17.0886 302.414C16.3301 302.414 15.7686 302.163 15.404 301.662C15.0394 301.158 14.8506 300.406 14.8376 299.406V298.2C14.8376 297.155 15.0183 296.379 15.3796 295.871C15.7409 295.363 16.3073 295.109 17.0788 295.109C17.8438 295.109 18.4069 295.355 18.7683 295.847C19.1296 296.335 19.3151 297.09 19.3249 298.112V299.284ZM18.4216 298.049C18.4216 297.284 18.3142 296.727 18.0993 296.379C17.8845 296.027 17.5443 295.852 17.0788 295.852C16.6166 295.852 16.2797 296.026 16.0681 296.374C15.8565 296.722 15.7474 297.258 15.7409 297.98V299.426C15.7409 300.194 15.8516 300.762 16.073 301.13C16.2976 301.494 16.6361 301.677 17.0886 301.677C17.5345 301.677 17.865 301.504 18.0798 301.159C18.2979 300.814 18.4118 300.271 18.4216 299.528V298.049Z" fill="#A3A3A3"/>
<path d="M13.9099 275.188H9.25167V274.538L11.7126 271.804C12.0772 271.39 12.3278 271.055 12.4646 270.798C12.6045 270.537 12.6745 270.269 12.6745 269.992C12.6745 269.621 12.5622 269.317 12.3376 269.079C12.113 268.841 11.8135 268.723 11.4392 268.723C10.99 268.723 10.64 268.851 10.3894 269.108C10.142 269.362 10.0183 269.717 10.0183 270.173H9.11495C9.11495 269.519 9.32491 268.99 9.74483 268.586C10.168 268.182 10.7328 267.98 11.4392 267.98C12.1 267.98 12.6224 268.155 13.0066 268.503C13.3907 268.848 13.5827 269.309 13.5827 269.885C13.5827 270.585 13.1368 271.418 12.2448 272.385L10.3405 274.45H13.9099V275.188ZM19.3249 272.155C19.3249 273.213 19.1442 273.999 18.7829 274.514C18.4216 275.028 17.8568 275.285 17.0886 275.285C16.3301 275.285 15.7686 275.035 15.404 274.533C15.0394 274.029 14.8506 273.277 14.8376 272.277V271.071C14.8376 270.026 15.0183 269.25 15.3796 268.742C15.7409 268.234 16.3073 267.98 17.0788 267.98C17.8438 267.98 18.4069 268.226 18.7683 268.718C19.1296 269.206 19.3151 269.961 19.3249 270.983V272.155ZM18.4216 270.92C18.4216 270.155 18.3142 269.598 18.0993 269.25C17.8845 268.898 17.5443 268.723 17.0788 268.723C16.6166 268.723 16.2797 268.897 16.0681 269.245C15.8565 269.593 15.7474 270.129 15.7409 270.852V272.297C15.7409 273.065 15.8516 273.633 16.073 274.001C16.2976 274.366 16.6361 274.548 17.0886 274.548C17.5345 274.548 17.865 274.375 18.0798 274.03C18.2979 273.685 18.4118 273.142 18.4216 272.399V270.92Z" fill="#A3A3A3"/>
<path d="M10.5651 244.887H11.2439C11.6703 244.88 12.0056 244.768 12.2497 244.55C12.4939 244.332 12.6159 244.037 12.6159 243.666C12.6159 242.833 12.2009 242.416 11.3708 242.416C10.9802 242.416 10.6677 242.528 10.4333 242.753C10.2022 242.974 10.0866 243.269 10.0866 243.637H9.18331C9.18331 243.074 9.38839 242.606 9.79854 242.235C10.212 241.861 10.736 241.674 11.3708 241.674C12.0414 241.674 12.5671 241.851 12.948 242.206C13.3288 242.561 13.5192 243.054 13.5192 243.686C13.5192 243.995 13.4183 244.294 13.2165 244.584C13.0179 244.874 12.7461 245.09 12.4011 245.233C12.7917 245.357 13.0928 245.562 13.3044 245.849C13.5192 246.135 13.6267 246.485 13.6267 246.898C13.6267 247.536 13.4183 248.043 13.0017 248.417C12.585 248.791 12.043 248.979 11.3757 248.979C10.7084 248.979 10.1648 248.798 9.74483 248.437C9.32817 248.075 9.11983 247.598 9.11983 247.006H10.028C10.028 247.38 10.1501 247.68 10.3942 247.904C10.6384 248.129 10.9655 248.241 11.3757 248.241C11.8119 248.241 12.1455 248.127 12.3767 247.899C12.6078 247.672 12.7233 247.344 12.7233 246.918C12.7233 246.505 12.5964 246.187 12.3425 245.966C12.0886 245.744 11.7224 245.631 11.2439 245.624H10.5651V244.887ZM19.3249 245.849C19.3249 246.907 19.1442 247.693 18.7829 248.207C18.4216 248.721 17.8568 248.979 17.0886 248.979C16.3301 248.979 15.7686 248.728 15.404 248.227C15.0394 247.722 14.8506 246.97 14.8376 245.971V244.765C14.8376 243.72 15.0183 242.943 15.3796 242.436C15.7409 241.928 16.3073 241.674 17.0788 241.674C17.8438 241.674 18.4069 241.92 18.7683 242.411C19.1296 242.899 19.3151 243.655 19.3249 244.677V245.849ZM18.4216 244.613C18.4216 243.848 18.3142 243.292 18.0993 242.943C17.8845 242.592 17.5443 242.416 17.0788 242.416C16.6166 242.416 16.2797 242.59 16.0681 242.938C15.8565 243.287 15.7474 243.822 15.7409 244.545V245.99C15.7409 246.758 15.8516 247.326 16.073 247.694C16.2976 248.059 16.6361 248.241 17.0886 248.241C17.5345 248.241 17.865 248.069 18.0798 247.724C18.2979 247.379 18.4118 246.835 18.4216 246.093V244.613Z" fill="#A3A3A3"/>
<path d="M13.0651 219.362H14.0515V220.1H13.0651V221.75H12.1569V220.1H8.91964V219.567L12.1032 214.641H13.0651V219.362ZM9.94503 219.362H12.1569V215.876L12.0495 216.071L9.94503 219.362ZM19.3249 218.718C19.3249 219.776 19.1442 220.562 18.7829 221.076C18.4216 221.59 17.8568 221.848 17.0886 221.848C16.3301 221.848 15.7686 221.597 15.404 221.096C15.0394 220.591 14.8506 219.839 14.8376 218.84V217.634C14.8376 216.589 15.0183 215.812 15.3796 215.305C15.7409 214.797 16.3073 214.543 17.0788 214.543C17.8438 214.543 18.4069 214.789 18.7683 215.28C19.1296 215.769 19.3151 216.524 19.3249 217.546V218.718ZM18.4216 217.482C18.4216 216.717 18.3142 216.161 18.0993 215.812C17.8845 215.461 17.5443 215.285 17.0788 215.285C16.6166 215.285 16.2797 215.459 16.0681 215.808C15.8565 216.156 15.7474 216.691 15.7409 217.414V218.859C15.7409 219.628 15.8516 220.196 16.073 220.563C16.2976 220.928 16.6361 221.11 17.0886 221.11C17.5345 221.11 17.865 220.938 18.0798 220.593C18.2979 220.248 18.4118 219.704 18.4216 218.962V217.482Z" fill="#A3A3A3"/>
<path d="M9.66671 191.877L10.028 188.332H13.6706V189.167H10.7946L10.5798 191.105C10.9281 190.9 11.3236 190.798 11.7663 190.798C12.4141 190.798 12.9284 191.013 13.3093 191.442C13.6901 191.869 13.8806 192.447 13.8806 193.176C13.8806 193.908 13.682 194.486 13.2849 194.909C12.891 195.329 12.3392 195.539 11.6296 195.539C11.0013 195.539 10.4886 195.365 10.0915 195.017C9.69438 194.668 9.46814 194.187 9.4128 193.571H10.2673C10.3226 193.978 10.4675 194.286 10.7019 194.494C10.9362 194.699 11.2455 194.802 11.6296 194.802C12.0495 194.802 12.3783 194.659 12.6159 194.372C12.8568 194.086 12.9773 193.69 12.9773 193.186C12.9773 192.71 12.847 192.329 12.5866 192.043C12.3295 191.753 11.986 191.608 11.5564 191.608C11.1625 191.608 10.8532 191.695 10.6286 191.867L10.3894 192.062L9.66671 191.877ZM19.3249 192.409C19.3249 193.467 19.1442 194.253 18.7829 194.768C18.4216 195.282 17.8568 195.539 17.0886 195.539C16.3301 195.539 15.7686 195.288 15.404 194.787C15.0394 194.283 14.8506 193.531 14.8376 192.531V191.325C14.8376 190.28 15.0183 189.504 15.3796 188.996C15.7409 188.488 16.3073 188.234 17.0788 188.234C17.8438 188.234 18.4069 188.48 18.7683 188.972C19.1296 189.46 19.3151 190.215 19.3249 191.237V192.409ZM18.4216 191.174C18.4216 190.409 18.3142 189.852 18.0993 189.504C17.8845 189.152 17.5443 188.977 17.0788 188.977C16.6166 188.977 16.2797 189.151 16.0681 189.499C15.8565 189.847 15.7474 190.383 15.7409 191.105V192.551C15.7409 193.319 15.8516 193.887 16.073 194.255C16.2976 194.619 16.6361 194.802 17.0886 194.802C17.5345 194.802 17.865 194.629 18.0798 194.284C18.2979 193.939 18.4118 193.396 18.4216 192.653V191.174Z" fill="#A3A3A3"/>
<path d="M12.7966 161.198V161.965H12.6306C11.9275 161.978 11.3676 162.186 10.9509 162.59C10.5342 162.993 10.2933 163.562 10.2282 164.294C10.6026 163.864 11.1136 163.649 11.7614 163.649C12.3799 163.649 12.8731 163.868 13.2409 164.304C13.612 164.74 13.7976 165.303 13.7976 165.993C13.7976 166.726 13.5974 167.312 13.197 167.751C12.7998 168.19 12.266 168.41 11.5954 168.41C10.9151 168.41 10.3633 168.15 9.94015 167.629C9.51697 167.105 9.30538 166.431 9.30538 165.607V165.261C9.30538 163.952 9.5837 162.953 10.1403 162.263C10.7002 161.569 11.5319 161.215 12.6355 161.198H12.7966ZM11.6101 164.401C11.3008 164.401 11.016 164.494 10.7556 164.68C10.4952 164.865 10.3145 165.098 10.2136 165.378V165.71C10.2136 166.296 10.3454 166.768 10.6091 167.126C10.8728 167.484 11.2015 167.663 11.5954 167.663C12.0023 167.663 12.3213 167.513 12.5525 167.214C12.7868 166.914 12.904 166.522 12.904 166.037C12.904 165.549 12.7852 165.155 12.5476 164.855C12.3132 164.553 12.0007 164.401 11.6101 164.401ZM19.3249 165.28C19.3249 166.338 19.1442 167.124 18.7829 167.639C18.4216 168.153 17.8568 168.41 17.0886 168.41C16.3301 168.41 15.7686 168.16 15.404 167.658C15.0394 167.154 14.8506 166.402 14.8376 165.402V164.196C14.8376 163.151 15.0183 162.375 15.3796 161.867C15.7409 161.359 16.3073 161.105 17.0788 161.105C17.8438 161.105 18.4069 161.351 18.7683 161.843C19.1296 162.331 19.3151 163.086 19.3249 164.108V165.28ZM18.4216 164.045C18.4216 163.28 18.3142 162.723 18.0993 162.375C17.8845 162.023 17.5443 161.848 17.0788 161.848C16.6166 161.848 16.2797 162.022 16.0681 162.37C15.8565 162.718 15.7474 163.254 15.7409 163.977V165.422C15.7409 166.19 15.8516 166.758 16.073 167.126C16.2976 167.491 16.6361 167.673 17.0886 167.673C17.5345 167.673 17.865 167.5 18.0798 167.155C18.2979 166.81 18.4118 166.267 18.4216 165.524V164.045Z" fill="#A3A3A3"/>
<path d="M13.8415 134.58L10.8972 141.182H9.94991L12.8845 134.814H9.03683V134.072H13.8415V134.58ZM19.3249 138.149C19.3249 139.207 19.1442 139.993 18.7829 140.508C18.4216 141.022 17.8568 141.279 17.0886 141.279C16.3301 141.279 15.7686 141.029 15.404 140.527C15.0394 140.023 14.8506 139.271 14.8376 138.271V137.065C14.8376 136.021 15.0183 135.244 15.3796 134.736C15.7409 134.229 16.3073 133.975 17.0788 133.975C17.8438 133.975 18.4069 134.22 18.7683 134.712C19.1296 135.2 19.3151 135.955 19.3249 136.978V138.149ZM18.4216 136.914C18.4216 136.149 18.3142 135.592 18.0993 135.244C17.8845 134.893 17.5443 134.717 17.0788 134.717C16.6166 134.717 16.2797 134.891 16.0681 135.239C15.8565 135.588 15.7474 136.123 15.7409 136.846V138.291C15.7409 139.059 15.8516 139.627 16.073 139.995C16.2976 140.36 16.6361 140.542 17.0886 140.542C17.5345 140.542 17.865 140.369 18.0798 140.024C18.2979 139.679 18.4118 139.136 18.4216 138.394V136.914Z" fill="#A3A3A3"/>
<path d="M13.5632 109.621C13.5632 109.976 13.4688 110.292 13.28 110.568C13.0944 110.845 12.8422 111.062 12.5232 111.218C12.8942 111.377 13.1872 111.61 13.4021 111.916C13.6202 112.222 13.7292 112.569 13.7292 112.956C13.7292 113.571 13.5209 114.061 13.1042 114.426C12.6908 114.79 12.1455 114.973 11.4685 114.973C10.7849 114.973 10.2364 114.79 9.82296 114.426C9.4128 114.058 9.20772 113.568 9.20772 112.956C9.20772 112.572 9.31189 112.225 9.52022 111.916C9.73181 111.607 10.0232 111.372 10.3942 111.213C10.0785 111.057 9.82947 110.84 9.64718 110.563C9.46489 110.287 9.37374 109.973 9.37374 109.621C9.37374 109.022 9.5658 108.547 9.94991 108.195C10.334 107.844 10.8402 107.668 11.4685 107.668C12.0935 107.668 12.598 107.844 12.9821 108.195C13.3695 108.547 13.5632 109.022 13.5632 109.621ZM12.8259 112.937C12.8259 112.539 12.6989 112.215 12.445 111.965C12.1944 111.714 11.8656 111.589 11.4587 111.589C11.0518 111.589 10.7247 111.713 10.4773 111.96C10.2331 112.207 10.111 112.533 10.111 112.937C10.111 113.34 10.2299 113.658 10.4675 113.889C10.7084 114.12 11.042 114.235 11.4685 114.235C11.8916 114.235 12.2237 114.12 12.4646 113.889C12.7054 113.654 12.8259 113.337 12.8259 112.937ZM11.4685 108.41C11.1136 108.41 10.8256 108.521 10.6042 108.742C10.3861 108.96 10.2771 109.258 10.2771 109.636C10.2771 109.997 10.3845 110.29 10.5993 110.515C10.8174 110.736 11.1071 110.847 11.4685 110.847C11.8298 110.847 12.1179 110.736 12.3327 110.515C12.5508 110.29 12.6599 109.997 12.6599 109.636C12.6599 109.274 12.5476 108.98 12.323 108.752C12.0983 108.524 11.8135 108.41 11.4685 108.41ZM19.3249 111.843C19.3249 112.901 19.1442 113.687 18.7829 114.201C18.4216 114.715 17.8568 114.973 17.0886 114.973C16.3301 114.973 15.7686 114.722 15.404 114.221C15.0394 113.716 14.8506 112.964 14.8376 111.965V110.759C14.8376 109.714 15.0183 108.938 15.3796 108.43C15.7409 107.922 16.3073 107.668 17.0788 107.668C17.8438 107.668 18.4069 107.914 18.7683 108.405C19.1296 108.894 19.3151 109.649 19.3249 110.671V111.843ZM18.4216 110.607C18.4216 109.842 18.3142 109.286 18.0993 108.938C17.8845 108.586 17.5443 108.41 17.0788 108.41C16.6166 108.41 16.2797 108.584 16.0681 108.933C15.8565 109.281 15.7474 109.816 15.7409 110.539V111.984C15.7409 112.753 15.8516 113.321 16.073 113.688C16.2976 114.053 16.6361 114.235 17.0886 114.235C17.5345 114.235 17.865 114.063 18.0798 113.718C18.2979 113.373 18.4118 112.829 18.4216 112.087V110.607Z" fill="#A3A3A3"/>
<path d="M12.7136 84.6191C12.5248 84.8438 12.2985 85.0244 12.0349 85.1611C11.7745 85.2979 11.488 85.3662 11.1755 85.3662C10.7653 85.3662 10.4073 85.2653 10.1013 85.0635C9.79854 84.8617 9.56417 84.5785 9.39815 84.2139C9.23214 83.846 9.14913 83.4408 9.14913 82.998C9.14913 82.5228 9.23865 82.0947 9.41768 81.7139C9.59998 81.333 9.85714 81.0417 10.1892 80.8398C10.5212 80.638 10.9086 80.5371 11.3513 80.5371C12.0544 80.5371 12.6078 80.8008 13.0114 81.3281C13.4183 81.8522 13.6218 82.5684 13.6218 83.4766V83.7402C13.6218 85.1237 13.3483 86.1344 12.8015 86.7725C12.2546 87.4072 11.4294 87.7327 10.3259 87.749H10.1501V86.9873H10.3405C11.086 86.9743 11.6589 86.7806 12.0593 86.4062C12.4597 86.0286 12.6778 85.4329 12.7136 84.6191ZM11.322 84.6191C11.6247 84.6191 11.903 84.5264 12.1569 84.3408C12.4141 84.1553 12.6013 83.9258 12.7185 83.6523V83.291C12.7185 82.6986 12.5899 82.2168 12.3327 81.8457C12.0756 81.4746 11.75 81.2891 11.3562 81.2891C10.959 81.2891 10.64 81.4421 10.3991 81.748C10.1582 82.0508 10.0378 82.4512 10.0378 82.9492C10.0378 83.4342 10.1534 83.8346 10.3845 84.1504C10.6189 84.4629 10.9314 84.6191 11.322 84.6191ZM19.3249 84.7119C19.3249 85.7699 19.1442 86.556 18.7829 87.0703C18.4216 87.5846 17.8568 87.8418 17.0886 87.8418C16.3301 87.8418 15.7686 87.5911 15.404 87.0898C15.0394 86.5853 14.8506 85.8333 14.8376 84.834V83.6279C14.8376 82.583 15.0183 81.8066 15.3796 81.2988C15.7409 80.791 16.3073 80.5371 17.0788 80.5371C17.8438 80.5371 18.4069 80.7829 18.7683 81.2744C19.1296 81.7627 19.3151 82.5179 19.3249 83.54V84.7119ZM18.4216 83.4766C18.4216 82.7116 18.3142 82.1549 18.0993 81.8066C17.8845 81.4551 17.5443 81.2793 17.0788 81.2793C16.6166 81.2793 16.2797 81.4535 16.0681 81.8018C15.8565 82.1501 15.7474 82.6855 15.7409 83.4082V84.8535C15.7409 85.6217 15.8516 86.1898 16.073 86.5576C16.2976 86.9222 16.6361 87.1045 17.0886 87.1045C17.5345 87.1045 17.865 86.932 18.0798 86.5869C18.2979 86.2419 18.4118 85.6982 18.4216 84.9561V83.4766Z" fill="#A3A3A3"/>
<path d="M6.60518 61.4395H5.69698V55.4189L3.87569 56.0879V55.2676L6.46358 54.2959H6.60518V61.4395ZM13.7097 58.4072C13.7097 59.4652 13.529 60.2513 13.1677 60.7656C12.8064 61.2799 12.2416 61.5371 11.4733 61.5371C10.7149 61.5371 10.1534 61.2865 9.78878 60.7852C9.42419 60.2806 9.23539 59.5286 9.22237 58.5293V57.3232C9.22237 56.2783 9.40304 55.502 9.76436 54.9941C10.1257 54.4863 10.6921 54.2324 11.4636 54.2324C12.2286 54.2324 12.7917 54.4782 13.153 54.9697C13.5144 55.458 13.6999 56.2132 13.7097 57.2354V58.4072ZM12.8064 57.1719C12.8064 56.4069 12.6989 55.8503 12.4841 55.502C12.2692 55.1504 11.9291 54.9746 11.4636 54.9746C11.0013 54.9746 10.6644 55.1488 10.4528 55.4971C10.2413 55.8454 10.1322 56.3809 10.1257 57.1035V58.5488C10.1257 59.3171 10.2364 59.8851 10.4577 60.2529C10.6823 60.6175 11.0209 60.7998 11.4733 60.7998C11.9193 60.7998 12.2497 60.6273 12.4646 60.2822C12.6827 59.9372 12.7966 59.3936 12.8064 58.6514V57.1719ZM19.3249 58.4072C19.3249 59.4652 19.1442 60.2513 18.7829 60.7656C18.4216 61.2799 17.8568 61.5371 17.0886 61.5371C16.3301 61.5371 15.7686 61.2865 15.404 60.7852C15.0394 60.2806 14.8506 59.5286 14.8376 58.5293V57.3232C14.8376 56.2783 15.0183 55.502 15.3796 54.9941C15.7409 54.4863 16.3073 54.2324 17.0788 54.2324C17.8438 54.2324 18.4069 54.4782 18.7683 54.9697C19.1296 55.458 19.3151 56.2132 19.3249 57.2354V58.4072ZM18.4216 57.1719C18.4216 56.4069 18.3142 55.8503 18.0993 55.502C17.8845 55.1504 17.5443 54.9746 17.0788 54.9746C16.6166 54.9746 16.2797 55.1488 16.0681 55.4971C15.8565 55.8454 15.7474 56.3809 15.7409 57.1035V58.5488C15.7409 59.3171 15.8516 59.8851 16.073 60.2529C16.2976 60.6175 16.6361 60.7998 17.0886 60.7998C17.5345 60.7998 17.865 60.6273 18.0798 60.2822C18.2979 59.9372 18.4118 59.3936 18.4216 58.6514V57.1719Z" fill="#A3A3A3"/>
<path d="M6.60518 34.3066H5.69698V28.2861L3.87569 28.9551V28.1348L6.46358 27.1631H6.60518V34.3066ZM12.2204 34.3066H11.3122V28.2861L9.49093 28.9551V28.1348L12.0788 27.1631H12.2204V34.3066ZM19.3249 31.2744C19.3249 32.3324 19.1442 33.1185 18.7829 33.6328C18.4216 34.1471 17.8568 34.4043 17.0886 34.4043C16.3301 34.4043 15.7686 34.1536 15.404 33.6523C15.0394 33.1478 14.8506 32.3958 14.8376 31.3965V30.1904C14.8376 29.1455 15.0183 28.3691 15.3796 27.8613C15.7409 27.3535 16.3073 27.0996 17.0788 27.0996C17.8438 27.0996 18.4069 27.3454 18.7683 27.8369C19.1296 28.3252 19.3151 29.0804 19.3249 30.1025V31.2744ZM18.4216 30.0391C18.4216 29.2741 18.3142 28.7174 18.0993 28.3691C17.8845 28.0176 17.5443 27.8418 17.0788 27.8418C16.6166 27.8418 16.2797 28.016 16.0681 28.3643C15.8565 28.7126 15.7474 29.248 15.7409 29.9707V31.416C15.7409 32.1842 15.8516 32.7523 16.073 33.1201C16.2976 33.4847 16.6361 33.667 17.0886 33.667C17.5345 33.667 17.865 33.4945 18.0798 33.1494C18.2979 32.8044 18.4118 32.2607 18.4216 31.5186V30.0391Z" fill="#A3A3A3"/>
<path d="M6.60518 8H5.69698V1.97949L3.87569 2.64844V1.82812L6.46358 0.856445H6.60518V8ZM13.9099 8H9.25167V7.35059L11.7126 4.61621C12.0772 4.2028 12.3278 3.86751 12.4646 3.61035C12.6045 3.34993 12.6745 3.08138 12.6745 2.80469C12.6745 2.43359 12.5622 2.12923 12.3376 1.8916C12.113 1.65397 11.8135 1.53516 11.4392 1.53516C10.99 1.53516 10.64 1.66374 10.3894 1.9209C10.142 2.1748 10.0183 2.52962 10.0183 2.98535H9.11495C9.11495 2.33105 9.32491 1.80208 9.74483 1.39844C10.168 0.994792 10.7328 0.792969 11.4392 0.792969C12.1 0.792969 12.6224 0.967122 13.0066 1.31543C13.3907 1.66048 13.5827 2.12109 13.5827 2.69727C13.5827 3.39714 13.1368 4.23047 12.2448 5.19727L10.3405 7.2627H13.9099V8ZM19.3249 4.96777C19.3249 6.02572 19.1442 6.81185 18.7829 7.32617C18.4216 7.84049 17.8568 8.09766 17.0886 8.09766C16.3301 8.09766 15.7686 7.84701 15.404 7.3457C15.0394 6.84115 14.8506 6.08919 14.8376 5.08984V3.88379C14.8376 2.83887 15.0183 2.0625 15.3796 1.55469C15.7409 1.04688 16.3073 0.792969 17.0788 0.792969C17.8438 0.792969 18.4069 1.03874 18.7683 1.53027C19.1296 2.01855 19.3151 2.77376 19.3249 3.7959V4.96777ZM18.4216 3.73242C18.4216 2.96745 18.3142 2.41081 18.0993 2.0625C17.8845 1.71094 17.5443 1.53516 17.0788 1.53516C16.6166 1.53516 16.2797 1.70931 16.0681 2.05762C15.8565 2.40592 15.7474 2.94141 15.7409 3.66406V5.10938C15.7409 5.8776 15.8516 6.44564 16.073 6.81348C16.2976 7.17806 16.6361 7.36035 17.0886 7.36035C17.5345 7.36035 17.865 7.18783 18.0798 6.84277C18.2979 6.49772 18.4118 5.9541 18.4216 5.21191V3.73242Z" fill="#A3A3A3"/>
<path d="M31.5918 4.11035V325.557" stroke="#F0F0F0"/>
<path d="M205.935 4.11035V325.557" stroke="#F0F0F0"/>
<path d="M381.443 4.11035V325.557" stroke="#F0F0F0"/>
<path d="M555.786 4.11035V325.557" stroke="#F0F0F0"/>
<path d="M731.301 4.11035V325.557" stroke="#F0F0F0"/>
<path d="M31.5918 325.557H731.298" stroke="#F0F0F0"/>
<path d="M31.5918 298.43H731.298" stroke="#F0F0F0"/>
<path d="M31.5918 271.298H731.298" stroke="#F0F0F0"/>
<path d="M31.5918 244.99H731.298" stroke="#F0F0F0"/>
<path d="M31.5918 217.86H731.298" stroke="#F0F0F0"/>
<path d="M31.5918 191.555H731.298" stroke="#F0F0F0"/>
<path d="M31.5918 164.423H731.298" stroke="#F0F0F0"/>
<path d="M31.5918 137.293H731.298" stroke="#F0F0F0"/>
<path d="M31.5918 110.985H731.298" stroke="#F0F0F0"/>
<path d="M31.5918 83.8564H731.298" stroke="#F0F0F0"/>
<path d="M31.5918 57.5479H731.298" stroke="#F0F0F0"/>
<path d="M31.5918 30.4189H731.298" stroke="#F0F0F0"/>
<path d="M31.5918 4.11035H731.298" stroke="#F0F0F0"/>
<path d="M31.5918 277.053C31.5918 277.053 118.178 215.394 205.933 215.394C293.689 215.394 293.689 153.735 381.445 153.735C468.031 153.735 468.031 110.985 555.787 110.985C643.542 110.985 731.298 46.8604 731.298 46.8604" stroke="#A6CEE3" stroke-width="2"/>
<ellipse cx="31.5905" cy="277.053" rx="4.68031" ry="3.28846" fill="#A6CEE3"/>
<ellipse cx="205.935" cy="215.395" rx="4.68031" ry="3.28846" fill="#A6CEE3"/>
<ellipse cx="381.445" cy="153.736" rx="4.68031" ry="3.28846" fill="#A6CEE3"/>
<ellipse cx="555.788" cy="110.986" rx="4.68031" ry="3.28846" fill="#A6CEE3"/>
<ellipse cx="731.298" cy="46.8588" rx="4.68031" ry="3.28846" fill="#A6CEE3"/>
<path d="M31.5918 292.673C31.5918 292.673 118.178 241.702 205.933 241.702C293.689 241.702 293.689 183.332 381.445 183.332C468.031 183.332 468.031 129.894 555.787 129.894C643.542 129.894 731.298 102.765 731.298 102.765" stroke="#2D72C9" stroke-width="2"/>
<ellipse cx="31.5905" cy="292.671" rx="4.68031" ry="3.28846" fill="#2D72C9"/>
<ellipse cx="205.935" cy="241.703" rx="4.68031" ry="3.28846" fill="#2D72C9"/>
<ellipse cx="381.445" cy="183.332" rx="4.68031" ry="3.28846" fill="#2D72C9"/>
<ellipse cx="555.788" cy="129.894" rx="4.68031" ry="3.28846" fill="#2D72C9"/>
<ellipse cx="731.298" cy="102.765" rx="4.68031" ry="3.28846" fill="#2D72C9"/>
<path d="M31.5918 295.961C31.5918 295.961 118.178 263.899 205.933 263.899C293.689 263.899 293.689 226.082 381.445 226.082C468.031 226.082 468.031 170.178 555.787 170.178C643.542 170.178 731.298 121.673 731.298 121.673" stroke="#B2DF8A" stroke-width="2"/>
<ellipse cx="31.5905" cy="295.961" rx="4.68031" ry="3.28846" fill="#B2DF8A"/>
<ellipse cx="205.935" cy="263.899" rx="4.68031" ry="3.28846" fill="#B2DF8A"/>
<ellipse cx="381.445" cy="226.081" rx="4.68031" ry="3.28846" fill="#B2DF8A"/>
<ellipse cx="555.788" cy="170.178" rx="4.68031" ry="3.28846" fill="#B2DF8A"/>
<ellipse cx="731.298" cy="121.673" rx="4.68031" ry="3.28846" fill="#B2DF8A"/>
<path d="M31.5918 281.986C31.5918 281.986 118.178 217.861 205.933 217.861C293.689 217.861 293.689 175.111 381.445 175.111C468.031 175.111 468.031 137.293 555.787 137.293C643.542 137.293 731.298 102.765 731.298 102.765" stroke="#56BFBA" stroke-width="2"/>
<ellipse cx="31.5905" cy="281.986" rx="4.68031" ry="3.28846" fill="#33A02C"/>
<ellipse cx="205.935" cy="217.861" rx="4.68031" ry="3.28846" fill="#33A02C"/>
<ellipse cx="381.445" cy="175.109" rx="4.68031" ry="3.28846" fill="#33A02C"/>
<ellipse cx="555.788" cy="137.294" rx="4.68031" ry="3.28846" fill="#33A02C"/>
<ellipse cx="731.298" cy="102.765" rx="4.68031" ry="3.28846" fill="#33A02C"/>
<rect x="496" y="50" width="120" height="72" rx="3" fill="#2D72C9"/>
<path d="M534.049 106.968C534.049 108.026 533.868 108.812 533.507 109.326C533.146 109.84 532.581 110.098 531.812 110.098C531.054 110.098 530.493 109.847 530.128 109.346C529.763 108.841 529.575 108.089 529.562 107.09V105.884C529.562 104.839 529.742 104.062 530.104 103.555C530.465 103.047 531.031 102.793 531.803 102.793C532.568 102.793 533.131 103.039 533.492 103.53C533.854 104.019 534.039 104.774 534.049 105.796V106.968ZM533.146 105.732C533.146 104.967 533.038 104.411 532.823 104.062C532.608 103.711 532.268 103.535 531.803 103.535C531.34 103.535 531.004 103.709 530.792 104.058C530.58 104.406 530.471 104.941 530.465 105.664V107.109C530.465 107.878 530.576 108.446 530.797 108.813C531.021 109.178 531.36 109.36 531.812 109.36C532.258 109.36 532.589 109.188 532.804 108.843C533.022 108.498 533.136 107.954 533.146 107.212V105.732ZM539.518 104.746C539.518 105.101 539.423 105.417 539.234 105.693C539.049 105.97 538.797 106.187 538.478 106.343C538.849 106.502 539.142 106.735 539.356 107.041C539.575 107.347 539.684 107.694 539.684 108.081C539.684 108.696 539.475 109.186 539.059 109.551C538.645 109.915 538.1 110.098 537.423 110.098C536.739 110.098 536.191 109.915 535.777 109.551C535.367 109.183 535.162 108.693 535.162 108.081C535.162 107.697 535.266 107.35 535.475 107.041C535.686 106.732 535.978 106.497 536.349 106.338C536.033 106.182 535.784 105.965 535.602 105.688C535.419 105.412 535.328 105.098 535.328 104.746C535.328 104.147 535.52 103.672 535.904 103.32C536.288 102.969 536.795 102.793 537.423 102.793C538.048 102.793 538.552 102.969 538.937 103.32C539.324 103.672 539.518 104.147 539.518 104.746ZM538.78 108.062C538.78 107.664 538.653 107.34 538.399 107.09C538.149 106.839 537.82 106.714 537.413 106.714C537.006 106.714 536.679 106.838 536.432 107.085C536.188 107.332 536.065 107.658 536.065 108.062C536.065 108.465 536.184 108.783 536.422 109.014C536.663 109.245 536.996 109.36 537.423 109.36C537.846 109.36 538.178 109.245 538.419 109.014C538.66 108.779 538.78 108.462 538.78 108.062ZM537.423 103.535C537.068 103.535 536.78 103.646 536.559 103.867C536.34 104.085 536.231 104.383 536.231 104.761C536.231 105.122 536.339 105.415 536.554 105.64C536.772 105.861 537.062 105.972 537.423 105.972C537.784 105.972 538.072 105.861 538.287 105.64C538.505 105.415 538.614 105.122 538.614 104.761C538.614 104.399 538.502 104.105 538.277 103.877C538.053 103.649 537.768 103.535 537.423 103.535ZM541.095 110.61H540.318L543.287 102.891H544.059L541.095 110.61ZM549.4 106.968C549.4 108.026 549.22 108.812 548.858 109.326C548.497 109.84 547.932 110.098 547.164 110.098C546.406 110.098 545.844 109.847 545.479 109.346C545.115 108.841 544.926 108.089 544.913 107.09V105.884C544.913 104.839 545.094 104.062 545.455 103.555C545.816 103.047 546.383 102.793 547.154 102.793C547.919 102.793 548.482 103.039 548.844 103.53C549.205 104.019 549.391 104.774 549.4 105.796V106.968ZM548.497 105.732C548.497 104.967 548.39 104.411 548.175 104.062C547.96 103.711 547.62 103.535 547.154 103.535C546.692 103.535 546.355 103.709 546.144 104.058C545.932 104.406 545.823 104.941 545.816 105.664V107.109C545.816 107.878 545.927 108.446 546.148 108.813C546.373 109.178 546.712 109.36 547.164 109.36C547.61 109.36 547.94 109.188 548.155 108.843C548.373 108.498 548.487 107.954 548.497 107.212V105.732ZM554.103 102.886V103.652H553.937C553.233 103.665 552.674 103.874 552.257 104.277C551.84 104.681 551.599 105.249 551.534 105.981C551.909 105.552 552.42 105.337 553.067 105.337C553.686 105.337 554.179 105.555 554.547 105.991C554.918 106.427 555.104 106.991 555.104 107.681C555.104 108.413 554.903 108.999 554.503 109.438C554.106 109.878 553.572 110.098 552.901 110.098C552.221 110.098 551.669 109.837 551.246 109.316C550.823 108.792 550.611 108.118 550.611 107.295V106.948C550.611 105.64 550.89 104.64 551.446 103.95C552.006 103.257 552.838 102.902 553.941 102.886H554.103ZM552.916 106.089C552.607 106.089 552.322 106.182 552.062 106.367C551.801 106.553 551.62 106.785 551.52 107.065V107.397C551.52 107.983 551.651 108.455 551.915 108.813C552.179 109.172 552.507 109.351 552.901 109.351C553.308 109.351 553.627 109.201 553.858 108.901C554.093 108.602 554.21 108.21 554.21 107.725C554.21 107.236 554.091 106.842 553.854 106.543C553.619 106.24 553.307 106.089 552.916 106.089ZM556.446 110.61H555.67L558.639 102.891H559.41L556.446 110.61ZM564.952 110H560.294V109.351L562.755 106.616C563.119 106.203 563.37 105.868 563.507 105.61C563.647 105.35 563.717 105.081 563.717 104.805C563.717 104.434 563.604 104.129 563.38 103.892C563.155 103.654 562.856 103.535 562.481 103.535C562.032 103.535 561.682 103.664 561.432 103.921C561.184 104.175 561.061 104.53 561.061 104.985H560.157C560.157 104.331 560.367 103.802 560.787 103.398C561.21 102.995 561.775 102.793 562.481 102.793C563.142 102.793 563.665 102.967 564.049 103.315C564.433 103.66 564.625 104.121 564.625 104.697C564.625 105.397 564.179 106.23 563.287 107.197L561.383 109.263H564.952V110ZM570.367 106.968C570.367 108.026 570.187 108.812 569.825 109.326C569.464 109.84 568.899 110.098 568.131 110.098C567.372 110.098 566.811 109.847 566.446 109.346C566.082 108.841 565.893 108.089 565.88 107.09V105.884C565.88 104.839 566.061 104.062 566.422 103.555C566.783 103.047 567.35 102.793 568.121 102.793C568.886 102.793 569.449 103.039 569.811 103.53C570.172 104.019 570.357 104.774 570.367 105.796V106.968ZM569.464 105.732C569.464 104.967 569.356 104.411 569.142 104.062C568.927 103.711 568.587 103.535 568.121 103.535C567.659 103.535 567.322 103.709 567.11 104.058C566.899 104.406 566.79 104.941 566.783 105.664V107.109C566.783 107.878 566.894 108.446 567.115 108.813C567.34 109.178 567.678 109.36 568.131 109.36C568.577 109.36 568.907 109.188 569.122 108.843C569.34 108.498 569.454 107.954 569.464 107.212V105.732ZM576.183 110H571.524V109.351L573.985 106.616C574.35 106.203 574.601 105.868 574.737 105.61C574.877 105.35 574.947 105.081 574.947 104.805C574.947 104.434 574.835 104.129 574.61 103.892C574.386 103.654 574.086 103.535 573.712 103.535C573.263 103.535 572.913 103.664 572.662 103.921C572.415 104.175 572.291 104.53 572.291 104.985H571.388C571.388 104.331 571.598 103.802 572.018 103.398C572.441 102.995 573.006 102.793 573.712 102.793C574.373 102.793 574.895 102.967 575.279 103.315C575.663 103.66 575.855 104.121 575.855 104.697C575.855 105.397 575.41 106.23 574.518 107.197L572.613 109.263H576.183V110ZM580.108 110H579.2V103.979L577.379 104.648V103.828L579.967 102.856H580.108V110Z" fill="white"/>
<path d="M533.281 72.4727C533.281 73.3008 533.074 74.0352 532.66 74.6758C532.246 75.3164 531.676 75.8281 530.949 76.2109C531.777 76.6094 532.434 77.1602 532.918 77.8633C533.402 78.5586 533.645 79.3789 533.645 80.3242C533.645 81.8398 533.129 83.0391 532.098 83.9219C531.066 84.7969 529.664 85.2344 527.891 85.2344C526.117 85.2344 524.711 84.793 523.672 83.9102C522.633 83.0273 522.113 81.832 522.113 80.3242C522.113 79.3789 522.355 78.5547 522.84 77.8516C523.324 77.1484 523.977 76.6016 524.797 76.2109C524.07 75.8281 523.5 75.3164 523.086 74.6758C522.68 74.0352 522.477 73.3008 522.477 72.4727C522.477 71.0195 522.961 69.8633 523.93 69.0039C524.898 68.1367 526.215 67.7031 527.879 67.7031C529.535 67.7031 530.848 68.1328 531.816 68.9922C532.793 69.8438 533.281 71.0039 533.281 72.4727ZM530.246 80.0781C530.246 79.3359 530.031 78.7422 529.602 78.2969C529.172 77.8516 528.594 77.6289 527.867 77.6289C527.148 77.6289 526.574 77.8516 526.145 78.2969C525.715 78.7344 525.5 79.3281 525.5 80.0781C525.5 80.8047 525.711 81.3906 526.133 81.8359C526.555 82.2812 527.141 82.5039 527.891 82.5039C528.625 82.5039 529.199 82.2891 529.613 81.8594C530.035 81.4297 530.246 80.8359 530.246 80.0781ZM529.895 72.6367C529.895 71.9727 529.719 71.4414 529.367 71.043C529.016 70.6367 528.52 70.4336 527.879 70.4336C527.246 70.4336 526.754 70.6289 526.402 71.0195C526.051 71.4102 525.875 71.9492 525.875 72.6367C525.875 73.3164 526.051 73.8633 526.402 74.2773C526.754 74.6914 527.25 74.8984 527.891 74.8984C528.531 74.8984 529.023 74.6914 529.367 74.2773C529.719 73.8633 529.895 73.3164 529.895 72.6367ZM547.543 69.8359L540.945 85H537.371L543.98 70.6797H535.496V67.9375H547.543V69.8359ZM561.207 77.9453C561.207 80.3047 560.719 82.1094 559.742 83.3594C558.766 84.6094 557.336 85.2344 555.453 85.2344C553.594 85.2344 552.172 84.6211 551.188 83.3945C550.203 82.168 549.699 80.4102 549.676 78.1211V74.9805C549.676 72.5977 550.168 70.7891 551.152 69.5547C552.145 68.3203 553.57 67.7031 555.43 67.7031C557.289 67.7031 558.711 68.3164 559.695 69.543C560.68 70.7617 561.184 72.5156 561.207 74.8047V77.9453ZM557.82 74.5C557.82 73.0859 557.625 72.0586 557.234 71.418C556.852 70.7695 556.25 70.4453 555.43 70.4453C554.633 70.4453 554.043 70.7539 553.66 71.3711C553.285 71.9805 553.086 72.9375 553.062 74.2422V78.3906C553.062 79.7812 553.25 80.8164 553.625 81.4961C554.008 82.168 554.617 82.5039 555.453 82.5039C556.281 82.5039 556.879 82.1797 557.246 81.5312C557.613 80.8828 557.805 79.8906 557.82 78.5547V74.5ZM575.199 85H563.504V82.6797L569.023 76.7969C569.781 75.9688 570.34 75.2461 570.699 74.6289C571.066 74.0117 571.25 73.4258 571.25 72.8711C571.25 72.1133 571.059 71.5195 570.676 71.0898C570.293 70.6523 569.746 70.4336 569.035 70.4336C568.27 70.4336 567.664 70.6992 567.219 71.2305C566.781 71.7539 566.562 72.4453 566.562 73.3047H563.164C563.164 72.2656 563.41 71.3164 563.902 70.457C564.402 69.5977 565.105 68.9258 566.012 68.4414C566.918 67.9492 567.945 67.7031 569.094 67.7031C570.852 67.7031 572.215 68.125 573.184 68.9688C574.16 69.8125 574.648 71.0039 574.648 72.543C574.648 73.3867 574.43 74.2461 573.992 75.1211C573.555 75.9961 572.805 77.0156 571.742 78.1797L567.863 82.2695H575.199V85ZM585.512 85H582.125V71.9453L578.082 73.1992V70.4453L585.148 67.9141H585.512V85Z" fill="white"/>
</svg>
