<svg width="7" height="9" viewBox="0 0 7 9" fill="none" xmlns="http://www.w3.org/2000/svg">
<path d="M5.973 2.312H2.409V4.193C2.563 4.00233 2.783 3.84833 3.069 3.731C3.355 3.60633 3.65933 3.544 3.982 3.544C4.56867 3.544 5.049 3.67233 5.423 3.929C5.797 4.18567 6.06833 4.51567 6.237 4.919C6.40567 5.315 6.49 5.74033 6.49 6.195C6.49 7.03833 6.248 7.71667 5.764 8.23C5.28733 8.74333 4.60533 9 3.718 9C2.882 9 2.21467 8.791 1.716 8.373C1.21733 7.955 0.935 7.40867 0.869 6.734H2.365C2.431 7.02733 2.57767 7.262 2.805 7.438C3.03967 7.614 3.33667 7.702 3.696 7.702C4.12867 7.702 4.455 7.56633 4.675 7.295C4.895 7.02367 5.005 6.66433 5.005 6.217C5.005 5.76233 4.89133 5.41767 4.664 5.183C4.444 4.941 4.11767 4.82 3.685 4.82C3.377 4.82 3.12033 4.897 2.915 5.051C2.70967 5.205 2.563 5.41033 2.475 5.667H1.001V0.959H5.973V2.312Z" fill="white"/>
</svg>
