<svg width="24" height="24" viewBox="0 0 24 24" fill="none" xmlns="http://www.w3.org/2000/svg">
<path d="M12.0816 10.7804C13.0004 10.7804 13.7452 10.0356 13.7452 9.11676C13.7452 8.19796 13.0004 7.45312 12.0816 7.45312C11.1628 7.45312 10.418 8.19796 10.418 9.11676C10.418 10.0356 11.1628 10.7804 12.0816 10.7804Z" stroke="white" stroke-width="1.2" stroke-miterlimit="10"/>
<path d="M15.4822 15.0621L15.0731 13.053C14.9095 12.2439 14.1913 11.6621 13.3731 11.6621H13.1458C12.864 11.9076 12.4913 12.0712 12.0822 12.0712C11.6731 12.0712 11.3095 11.9167 11.0186 11.6621H10.6276C9.80038 11.6621 9.09128 12.2439 8.92765 13.053L8.51856 15.0621C8.45492 15.3621 8.68219 15.6348 8.98219 15.6348H15.0095C15.3186 15.6348 15.5458 15.3621 15.4822 15.0621Z" stroke="white" stroke-width="1.2" stroke-miterlimit="10"/>
<path d="M3.81836 10.2722V4.77219C3.81836 4.37219 4.14563 4.04492 4.54563 4.04492H9.97291" stroke="white" stroke-width="1.2" stroke-miterlimit="10"/>
<path d="M9.91836 19.5011H4.54563C4.14563 19.5011 3.81836 19.1738 3.81836 18.7738V13.9102" stroke="white" stroke-width="1.2" stroke-miterlimit="10"/>
<path d="M20.1813 13.9102V18.7829C20.1813 19.1829 19.854 19.5102 19.454 19.5102H13.5449" stroke="white" stroke-width="1.2" stroke-miterlimit="10"/>
<path d="M13.5996 4.04492H19.4542C19.8542 4.04492 20.1814 4.37219 20.1814 4.77219V10.2722" stroke="white" stroke-width="1.2" stroke-miterlimit="10"/>
<path d="M13.1453 5.63636H10.8544C10.4816 5.63636 10.1816 5.33636 10.1816 4.96364V2.67273C10.1816 2.3 10.4816 2 10.8544 2H13.1453C13.518 2 13.818 2.3 13.818 2.67273V4.96364C13.818 5.33636 13.518 5.63636 13.1453 5.63636Z" stroke="white" stroke-width="1.2" stroke-miterlimit="10"/>
<path d="M13.1453 21.0914H10.8544C10.4816 21.0914 10.1816 20.7914 10.1816 20.4187V18.1278C10.1816 17.7551 10.4816 17.4551 10.8544 17.4551H13.1453C13.518 17.4551 13.818 17.7551 13.818 18.1278V20.4187C13.818 20.7914 13.518 21.0914 13.1453 21.0914Z" stroke="white" stroke-width="1.2" stroke-miterlimit="10"/>
<path d="M21.3269 13.5914H19.036C18.6633 13.5914 18.3633 13.2914 18.3633 12.9187V10.6278C18.3633 10.2551 18.6633 9.95508 19.036 9.95508H21.3269C21.6996 9.95508 21.9996 10.2551 21.9996 10.6278V12.9187C21.9996 13.2914 21.6996 13.5914 21.3269 13.5914Z" stroke="white" stroke-width="1.2" stroke-miterlimit="10"/>
<path d="M4.96364 13.5914H2.67273C2.3 13.5914 2 13.2914 2 12.9187V10.6278C2 10.2551 2.3 9.95508 2.67273 9.95508H4.96364C5.33636 9.95508 5.63636 10.2551 5.63636 10.6278V12.9187C5.63636 13.2914 5.33636 13.5914 4.96364 13.5914Z" stroke="white" stroke-width="1.2" stroke-miterlimit="10"/>
</svg>
