<svg width="24" height="24" viewBox="0 0 24 24" fill="none" xmlns="http://www.w3.org/2000/svg">
<path d="M11.8309 6.58961V4.09961C16.6409 4.09961 20.5309 7.99961 20.5309 12.7996C20.5309 17.5996 16.6309 21.4996 11.8309 21.4996C7.03086 21.4996 3.13086 17.5996 3.13086 12.7996C3.13086 12.0196 3.23086 11.2496 3.43086 10.5296H5.98086" stroke="white" stroke-width="1.2" stroke-miterlimit="10" stroke-linecap="round"/>
<path d="M11.8293 14.35C12.6853 14.35 13.3793 13.656 13.3793 12.8C13.3793 11.944 12.6853 11.25 11.8293 11.25C10.9733 11.25 10.2793 11.944 10.2793 12.8C10.2793 13.656 10.9733 14.35 11.8293 14.35Z" stroke="white" stroke-width="1.2" stroke-miterlimit="10" stroke-linecap="round"/>
<path d="M10.66 11.73L2.5 3.5" stroke="white" stroke-width="1.2" stroke-miterlimit="10" stroke-linecap="round"/>
<path d="M14.9902 9.28008L16.6902 7.58008" stroke="white" stroke-width="1.2" stroke-miterlimit="10" stroke-linecap="round"/>
<path d="M16.7207 10.7898L18.4107 9.08984" stroke="white" stroke-width="1.2" stroke-miterlimit="10" stroke-linecap="round"/>
</svg>
