<svg width="24" height="24" viewBox="0 0 24 24" fill="none" xmlns="http://www.w3.org/2000/svg">
<path d="M6.29 11.9902V20.1302C6.29 20.6102 5.9 21.0002 5.42 21.0002H3.87C3.39 21.0002 3 20.6102 3 20.1302V12.2202" stroke="white" stroke-width="1.2" stroke-miterlimit="10" stroke-linecap="round"/>
<path d="M3 9.22V3.37C3 2.89 3.39 2.5 3.87 2.5H5.42C5.9 2.5 6.29 2.89 6.29 3.37V8.99" stroke="white" stroke-width="1.2" stroke-miterlimit="10"/>
<path d="M7.79 8.82031H1.5V11.8203H7.79V8.82031Z" stroke="white" stroke-width="1.2" stroke-miterlimit="10" stroke-linecap="round"/>
<path d="M13.4795 17.6504V20.3004C13.4795 20.6904 13.1595 21.0104 12.7695 21.0104H10.8995C10.5095 21.0104 10.1895 20.6904 10.1895 20.3004V17.7304" stroke="white" stroke-width="1.2" stroke-miterlimit="10"/>
<path d="M10.1895 14.72V3.21C10.1895 2.82 10.4995 2.5 10.8995 2.5H12.7795C13.1695 2.5 13.4895 2.82 13.4895 3.21V14.65" stroke="white" stroke-width="1.2" stroke-miterlimit="10" stroke-linecap="round"/>
<path d="M14.9795 14.8203H8.68945V17.8203H14.9795V14.8203Z" stroke="white" stroke-width="1.2" stroke-miterlimit="10" stroke-linecap="round"/>
<path d="M20.6691 8.25977V20.1998C20.6691 20.6398 20.3091 20.9998 19.8691 20.9998H18.1691C17.7291 20.9998 17.3691 20.6398 17.3691 20.1998V8.29977" stroke="white" stroke-width="1.2" stroke-miterlimit="10" stroke-linecap="round"/>
<path d="M17.3809 4.3V3.3C17.3809 2.86 17.7409 2.5 18.1809 2.5H19.8809C20.3209 2.5 20.6809 2.86 20.6809 3.3V4.26" stroke="white" stroke-width="1.2" stroke-miterlimit="10" stroke-linecap="round"/>
<path d="M22.1709 4.82031H15.8809V7.82031H22.1709V4.82031Z" stroke="white" stroke-width="1.2" stroke-miterlimit="10" stroke-linecap="round"/>
</svg>
