<svg width="40" height="40" viewBox="0 0 40 40" fill="none" xmlns="http://www.w3.org/2000/svg">
<path d="M28.2652 9H10.6298C10.3149 9 10 8.7 10 8.4V3.6C10 3.3 10.3149 3 10.6298 3H28.3702C28.6851 3 29 3.3 29 3.6V8.5C28.895 8.7 28.5801 9 28.2652 9Z" stroke="#2D72C9" stroke-width="1.2" stroke-miterlimit="10"/>
<path d="M17.3086 21H10.5926C10.2963 21 10 20.7 10 20.4V12.6C10 12.3 10.2963 12 10.5926 12H17.4074C17.7037 12 18 12.3 18 12.6V20.5C17.9012 20.7 17.6049 21 17.3086 21Z" stroke="#2D72C9" stroke-width="1.2" stroke-miterlimit="10"/>
<path d="M28.4074 21H21.5926C21.2963 21 21 20.7 21 20.4V12.6C21 12.3 21.2963 12 21.5926 12H28.4074C28.7037 12 29 12.3 29 12.6V20.5C29 20.7 28.7037 21 28.4074 21Z" stroke="#2D72C9" stroke-width="1.2" stroke-miterlimit="10"/>
<path d="M2.058 32.121C2.59 32.121 3.04967 32.2213 3.437 32.422C3.829 32.618 4.12767 32.9003 4.333 33.269C4.543 33.6377 4.648 34.0717 4.648 34.571C4.648 35.0703 4.543 35.5043 4.333 35.873C4.12767 36.237 3.829 36.517 3.437 36.713C3.04967 36.9043 2.59 37 2.058 37H0.539V32.121H2.058ZM2.058 36.475C2.688 36.475 3.16867 36.3093 3.5 35.978C3.83133 35.642 3.997 35.173 3.997 34.571C3.997 33.9643 3.829 33.4907 3.493 33.15C3.16167 32.8093 2.68333 32.639 2.058 32.639H1.176V36.475H2.058ZM5.25022 35.068C5.25022 34.676 5.32955 34.333 5.48822 34.039C5.64689 33.7403 5.86389 33.5093 6.13922 33.346C6.41922 33.1827 6.72955 33.101 7.07022 33.101C7.40622 33.101 7.69789 33.1733 7.94522 33.318C8.19255 33.4627 8.37689 33.6447 8.49822 33.864V33.164H9.14222V37H8.49822V36.286C8.37222 36.51 8.18322 36.6967 7.93122 36.846C7.68389 36.9907 7.39455 37.063 7.06322 37.063C6.72255 37.063 6.41455 36.979 6.13922 36.811C5.86389 36.643 5.64689 36.4073 5.48822 36.104C5.32955 35.8007 5.25022 35.4553 5.25022 35.068ZM8.49822 35.075C8.49822 34.7857 8.43989 34.5337 8.32322 34.319C8.20655 34.1043 8.04789 33.941 7.84722 33.829C7.65122 33.7123 7.43422 33.654 7.19622 33.654C6.95822 33.654 6.74122 33.71 6.54522 33.822C6.34922 33.934 6.19289 34.0973 6.07622 34.312C5.95955 34.5267 5.90122 34.7787 5.90122 35.068C5.90122 35.362 5.95955 35.6187 6.07622 35.838C6.19289 36.0527 6.34922 36.2183 6.54522 36.335C6.74122 36.447 6.95822 36.503 7.19622 36.503C7.43422 36.503 7.65122 36.447 7.84722 36.335C8.04789 36.2183 8.20655 36.0527 8.32322 35.838C8.43989 35.6187 8.49822 35.3643 8.49822 35.075ZM11.5767 37.063C11.2827 37.063 11.019 37.014 10.7857 36.916C10.5524 36.8133 10.368 36.6733 10.2327 36.496C10.0974 36.314 10.0227 36.1063 10.0087 35.873H10.6667C10.6854 36.0643 10.774 36.2207 10.9327 36.342C11.096 36.4633 11.3084 36.524 11.5697 36.524C11.8124 36.524 12.0037 36.4703 12.1437 36.363C12.2837 36.2557 12.3537 36.1203 12.3537 35.957C12.3537 35.789 12.279 35.6653 12.1297 35.586C11.9804 35.502 11.7494 35.4203 11.4367 35.341C11.152 35.2663 10.9187 35.1917 10.7367 35.117C10.5594 35.0377 10.4054 34.9233 10.2747 34.774C10.1487 34.62 10.0857 34.4193 10.0857 34.172C10.0857 33.976 10.144 33.7963 10.2607 33.633C10.3774 33.4697 10.543 33.3413 10.7577 33.248C10.9724 33.15 11.2174 33.101 11.4927 33.101C11.9174 33.101 12.2604 33.2083 12.5217 33.423C12.783 33.6377 12.923 33.9317 12.9417 34.305H12.3047C12.2907 34.1043 12.209 33.9433 12.0597 33.822C11.915 33.7007 11.719 33.64 11.4717 33.64C11.243 33.64 11.061 33.689 10.9257 33.787C10.7904 33.885 10.7227 34.0133 10.7227 34.172C10.7227 34.298 10.7624 34.403 10.8417 34.487C10.9257 34.5663 11.0284 34.6317 11.1497 34.683C11.2757 34.7297 11.4484 34.7833 11.6677 34.844C11.943 34.9187 12.167 34.9933 12.3397 35.068C12.5124 35.138 12.6594 35.2453 12.7807 35.39C12.9067 35.5347 12.972 35.7237 12.9767 35.957C12.9767 36.167 12.9184 36.356 12.8017 36.524C12.685 36.692 12.5194 36.825 12.3047 36.923C12.0947 37.0163 11.852 37.063 11.5767 37.063ZM15.7799 33.094C16.0692 33.094 16.3306 33.157 16.5639 33.283C16.7972 33.4043 16.9792 33.5887 17.1099 33.836C17.2452 34.0833 17.3129 34.3843 17.3129 34.739V37H16.6829V34.83C16.6829 34.4473 16.5872 34.1557 16.3959 33.955C16.2046 33.7497 15.9432 33.647 15.6119 33.647C15.2759 33.647 15.0076 33.752 14.8069 33.962C14.6109 34.172 14.5129 34.4777 14.5129 34.879V37H13.8759V31.82H14.5129V33.71C14.6389 33.514 14.8116 33.3623 15.0309 33.255C15.2549 33.1477 15.5046 33.094 15.7799 33.094ZM18.9905 33.878C19.1211 33.6493 19.3125 33.4627 19.5645 33.318C19.8165 33.1733 20.1035 33.101 20.4255 33.101C20.7708 33.101 21.0811 33.1827 21.3565 33.346C21.6318 33.5093 21.8488 33.7403 22.0075 34.039C22.1661 34.333 22.2455 34.676 22.2455 35.068C22.2455 35.4553 22.1661 35.8007 22.0075 36.104C21.8488 36.4073 21.6295 36.643 21.3495 36.811C21.0741 36.979 20.7661 37.063 20.4255 37.063C20.0941 37.063 19.8025 36.9907 19.5505 36.846C19.3031 36.7013 19.1165 36.517 18.9905 36.293V37H18.3535V31.82H18.9905V33.878ZM21.5945 35.068C21.5945 34.7787 21.5361 34.5267 21.4195 34.312C21.3028 34.0973 21.1441 33.934 20.9435 33.822C20.7475 33.71 20.5305 33.654 20.2925 33.654C20.0591 33.654 19.8421 33.7123 19.6415 33.829C19.4455 33.941 19.2868 34.1067 19.1655 34.326C19.0488 34.5407 18.9905 34.7903 18.9905 35.075C18.9905 35.3643 19.0488 35.6187 19.1655 35.838C19.2868 36.0527 19.4455 36.2183 19.6415 36.335C19.8421 36.447 20.0591 36.503 20.2925 36.503C20.5305 36.503 20.7475 36.447 20.9435 36.335C21.1441 36.2183 21.3028 36.0527 21.4195 35.838C21.5361 35.6187 21.5945 35.362 21.5945 35.068ZM24.7569 37.063C24.3976 37.063 24.0709 36.9813 23.7769 36.818C23.4876 36.6547 23.2589 36.4237 23.0909 36.125C22.9276 35.8217 22.8459 35.4717 22.8459 35.075C22.8459 34.683 22.9299 34.3377 23.0979 34.039C23.2706 33.7357 23.5039 33.5047 23.7979 33.346C24.0919 33.1827 24.4209 33.101 24.7849 33.101C25.1489 33.101 25.4779 33.1827 25.7719 33.346C26.0659 33.5047 26.2969 33.7333 26.4649 34.032C26.6376 34.3307 26.7239 34.6783 26.7239 35.075C26.7239 35.4717 26.6353 35.8217 26.4579 36.125C26.2853 36.4237 26.0496 36.6547 25.7509 36.818C25.4523 36.9813 25.1209 37.063 24.7569 37.063ZM24.7569 36.503C24.9856 36.503 25.2003 36.4493 25.4009 36.342C25.6016 36.2347 25.7626 36.0737 25.8839 35.859C26.0099 35.6443 26.0729 35.383 26.0729 35.075C26.0729 34.767 26.0123 34.5057 25.8909 34.291C25.7696 34.0763 25.6109 33.9177 25.4149 33.815C25.2189 33.7077 25.0066 33.654 24.7779 33.654C24.5446 33.654 24.3299 33.7077 24.1339 33.815C23.9426 33.9177 23.7886 34.0763 23.6719 34.291C23.5553 34.5057 23.4969 34.767 23.4969 35.075C23.4969 35.3877 23.5529 35.6513 23.6649 35.866C23.7816 36.0807 23.9356 36.2417 24.1269 36.349C24.3183 36.4517 24.5283 36.503 24.7569 36.503ZM27.3235 35.068C27.3235 34.676 27.4028 34.333 27.5615 34.039C27.7201 33.7403 27.9371 33.5093 28.2125 33.346C28.4925 33.1827 28.8028 33.101 29.1435 33.101C29.4795 33.101 29.7711 33.1733 30.0185 33.318C30.2658 33.4627 30.4501 33.6447 30.5715 33.864V33.164H31.2155V37H30.5715V36.286C30.4455 36.51 30.2565 36.6967 30.0045 36.846C29.7571 36.9907 29.4678 37.063 29.1365 37.063C28.7958 37.063 28.4878 36.979 28.2125 36.811C27.9371 36.643 27.7201 36.4073 27.5615 36.104C27.4028 35.8007 27.3235 35.4553 27.3235 35.068ZM30.5715 35.075C30.5715 34.7857 30.5131 34.5337 30.3965 34.319C30.2798 34.1043 30.1211 33.941 29.9205 33.829C29.7245 33.7123 29.5075 33.654 29.2695 33.654C29.0315 33.654 28.8145 33.71 28.6185 33.822C28.4225 33.934 28.2661 34.0973 28.1495 34.312C28.0328 34.5267 27.9745 34.7787 27.9745 35.068C27.9745 35.362 28.0328 35.6187 28.1495 35.838C28.2661 36.0527 28.4225 36.2183 28.6185 36.335C28.8145 36.447 29.0315 36.503 29.2695 36.503C29.5075 36.503 29.7245 36.447 29.9205 36.335C30.1211 36.2183 30.2798 36.0527 30.3965 35.838C30.5131 35.6187 30.5715 35.3643 30.5715 35.075ZM32.9289 33.787C33.0409 33.5677 33.1996 33.3973 33.4049 33.276C33.6149 33.1547 33.8693 33.094 34.1679 33.094V33.752H33.9999C33.2859 33.752 32.9289 34.1393 32.9289 34.914V37H32.2919V33.164H32.9289V33.787ZM34.6653 35.068C34.6653 34.676 34.7446 34.333 34.9033 34.039C35.0619 33.7403 35.2789 33.5093 35.5543 33.346C35.8343 33.1827 36.1469 33.101 36.4923 33.101C36.7909 33.101 37.0686 33.171 37.3253 33.311C37.5819 33.4463 37.7779 33.626 37.9133 33.85V31.82H38.5573V37H37.9133V36.279C37.7873 36.5077 37.6006 36.6967 37.3533 36.846C37.1059 36.9907 36.8166 37.063 36.4853 37.063C36.1446 37.063 35.8343 36.979 35.5543 36.811C35.2789 36.643 35.0619 36.4073 34.9033 36.104C34.7446 35.8007 34.6653 35.4553 34.6653 35.068ZM37.9133 35.075C37.9133 34.7857 37.8549 34.5337 37.7383 34.319C37.6216 34.1043 37.4629 33.941 37.2623 33.829C37.0663 33.7123 36.8493 33.654 36.6113 33.654C36.3733 33.654 36.1563 33.71 35.9603 33.822C35.7643 33.934 35.6079 34.0973 35.4913 34.312C35.3746 34.5267 35.3163 34.7787 35.3163 35.068C35.3163 35.362 35.3746 35.6187 35.4913 35.838C35.6079 36.0527 35.7643 36.2183 35.9603 36.335C36.1563 36.447 36.3733 36.503 36.6113 36.503C36.8493 36.503 37.0663 36.447 37.2623 36.335C37.4629 36.2183 37.6216 36.0527 37.7383 35.838C37.8549 35.6187 37.9133 35.3643 37.9133 35.075Z" fill="#2D72C9"/>
</svg>
