<svg width="14" height="14" viewBox="0 0 14 14" fill="none" xmlns="http://www.w3.org/2000/svg">
<g opacity="0.5">
<path d="M9.91602 4.08398H7.58268V5.25065H9.91602C10.8785 5.25065 11.666 6.03815 11.666 7.00065C11.666 7.96315 10.8785 8.75065 9.91602 8.75065H7.58268V9.91732H9.91602C11.526 9.91732 12.8327 8.61065 12.8327 7.00065C12.8327 5.39065 11.526 4.08398 9.91602 4.08398ZM6.41602 8.75065H4.08268C3.12018 8.75065 2.33268 7.96315 2.33268 7.00065C2.33268 6.03815 3.12018 5.25065 4.08268 5.25065H6.41602V4.08398H4.08268C2.47268 4.08398 1.16602 5.39065 1.16602 7.00065C1.16602 8.61065 2.47268 9.91732 4.08268 9.91732H6.41602V8.75065ZM4.66602 6.41732H9.33268V7.58398H4.66602V6.41732Z" fill="black"/>
</g>
</svg>
