<svg width="24" height="24" viewBox="0 0 24 24" fill="none" xmlns="http://www.w3.org/2000/svg">
<path d="M10.62 18.6H14.97M7.95 15.17H19.12C19.53 15.17 19.87 14.86 19.91 14.46L20.7 6.54C20.74 6.11 20.43 5.72 19.99 5.67C19.96 5.67 19.94 5.67 19.91 5.67H7.39L7.25 3.25C7.22 2.83 6.88 2.5 6.46 2.5H3.29C2.85 2.5 2.5 2.85 2.5 3.29C2.5 3.73 2.85 4.08 3.29 4.08H5.71V16.6C5.69333 17.48 5.994 19.216 7.33 19.12M7.33 19.12C7.33 19.95 8 20.62 8.83 20.62C9.66 20.62 10.33 19.95 10.33 19.12C10.33 18.29 9.66 17.62 8.83 17.62C8 17.62 7.33 18.29 7.33 19.12ZM9.61 7.6V13.6M12.61 7.6V13.6M15.61 7.6V13.6M16.75 20.62C15.92 20.62 15.25 19.95 15.25 19.12C15.25 18.29 15.92 17.62 16.75 17.62C17.58 17.62 18.25 18.29 18.25 19.12C18.25 19.95 17.58 20.62 16.75 20.62Z" stroke="white" stroke-width="1.2" stroke-miterlimit="10" stroke-linecap="round"/>
</svg>
