<svg width="24" height="24" viewBox="0 0 24 24" fill="none" xmlns="http://www.w3.org/2000/svg">
<path d="M12.0816 10.7814C13.0004 10.7814 13.7452 10.0365 13.7452 9.11774C13.7452 8.19894 13.0004 7.4541 12.0816 7.4541C11.1628 7.4541 10.418 8.19894 10.418 9.11774C10.418 10.0365 11.1628 10.7814 12.0816 10.7814Z" stroke="white" stroke-width="1.2" stroke-miterlimit="10"/>
<path d="M15.4822 15.0633L15.0731 13.0542C14.9095 12.2451 14.1913 11.6633 13.3731 11.6633H13.1458C12.864 11.9087 12.4913 12.0724 12.0822 12.0724C11.6731 12.0724 11.3095 11.9178 11.0186 11.6633H10.6276C9.80038 11.6633 9.09128 12.2451 8.92765 13.0542L8.51856 15.0633C8.45492 15.3633 8.68219 15.636 8.98219 15.636H15.0095C15.3186 15.636 15.5458 15.3633 15.4822 15.0633Z" stroke="white" stroke-width="1.2" stroke-miterlimit="10"/>
<path d="M3.81836 10.2727V4.77268C3.81836 4.37268 4.14563 4.04541 4.54563 4.04541H9.97291" stroke="white" stroke-width="1.2" stroke-miterlimit="10"/>
<path d="M9.91836 19.5001H4.54563C4.14563 19.5001 3.81836 19.1729 3.81836 18.7729V13.9092" stroke="white" stroke-width="1.2" stroke-miterlimit="10"/>
<path d="M20.1813 13.9092V18.782C20.1813 19.182 19.854 19.5092 19.454 19.5092H13.5449" stroke="white" stroke-width="1.2" stroke-miterlimit="10"/>
<path d="M13.5996 4.04541H19.4542C19.8542 4.04541 20.1814 4.37268 20.1814 4.77268V10.2727" stroke="white" stroke-width="1.2" stroke-miterlimit="10"/>
<path d="M13.1453 5.63636H10.8544C10.4816 5.63636 10.1816 5.33636 10.1816 4.96364V2.67273C10.1816 2.3 10.4816 2 10.8544 2H13.1453C13.518 2 13.818 2.3 13.818 2.67273V4.96364C13.818 5.33636 13.518 5.63636 13.1453 5.63636Z" stroke="white" stroke-width="1.2" stroke-miterlimit="10"/>
<path d="M13.1453 21.091H10.8544C10.4816 21.091 10.1816 20.791 10.1816 20.4182V18.1273C10.1816 17.7546 10.4816 17.4546 10.8544 17.4546H13.1453C13.518 17.4546 13.818 17.7546 13.818 18.1273V20.4182C13.818 20.791 13.518 21.091 13.1453 21.091Z" stroke="white" stroke-width="1.2" stroke-miterlimit="10"/>
<path d="M21.3269 13.591H19.036C18.6633 13.591 18.3633 13.291 18.3633 12.9182V10.6273C18.3633 10.2546 18.6633 9.95459 19.036 9.95459H21.3269C21.6996 9.95459 21.9996 10.2546 21.9996 10.6273V12.9182C21.9996 13.291 21.6996 13.591 21.3269 13.591Z" stroke="white" stroke-width="1.2" stroke-miterlimit="10"/>
<path d="M4.96364 13.591H2.67273C2.3 13.591 2 13.291 2 12.9182V10.6273C2 10.2546 2.3 9.95459 2.67273 9.95459H4.96364C5.33636 9.95459 5.63636 10.2546 5.63636 10.6273V12.9182C5.63636 13.291 5.33636 13.591 4.96364 13.591Z" stroke="white" stroke-width="1.2" stroke-miterlimit="10"/>
</svg>
