<svg width="24" height="24" viewBox="0 0 24 24" fill="none" xmlns="http://www.w3.org/2000/svg">
<path d="M18.207 7.408C18.3115 7.5505 18.4825 7.6265 18.663 7.617L19.9645 7.522L20.8765 9.6025L19.936 10.505C19.8125 10.6285 19.7555 10.7995 19.784 10.9705C19.9455 11.854 19.974 12.766 19.8505 13.659C19.8315 13.83 19.898 14.001 20.0215 14.115L21 14.9605L20.183 17.079L18.8815 17.041C18.701 17.0315 18.53 17.1265 18.435 17.269C17.941 18.0195 17.314 18.6655 16.592 19.1975C16.4495 19.302 16.3735 19.473 16.383 19.6535L16.478 20.955L14.3975 21.867L13.495 20.9265C13.3715 20.803 13.2005 20.746 13.0295 20.7745C12.146 20.936 11.234 20.9645 10.341 20.841C10.17 20.822 9.999 20.8885 9.885 21.012L9.0395 22L6.921 21.183L6.959 19.8815C6.9685 19.701 6.8735 19.53 6.731 19.435C5.9805 18.941 5.3345 18.314 4.8025 17.592C4.698 17.4495 4.527 17.3735 4.3465 17.383L3.045 17.478L2.133 15.3975L3.0735 14.495C3.197 14.3715 3.254 14.2005 3.2255 14.0295C3.064 13.146 3.0355 12.234 3.159 11.341C3.178 11.17 3.1115 10.999 2.988 10.885L2 10.0395L2.817 7.921L4.1185 7.959C4.299 7.959 4.47 7.8735 4.565 7.731C5.0685 6.99 5.686 6.3345 6.408 5.8025C6.5505 5.698 6.6265 5.527 6.617 5.3465L6.522 4.045L8.6025 3.133L9.505 4.0735C9.6285 4.197 9.7995 4.254 9.9705 4.2255C10.854 4.064 11.766 4.0355 12.659 4.159C12.8395 4.178 13.0105 4.1115 13.1245 3.9785L13.97 3L16.0885 3.817L16.0505 5.1185C16.041 5.299 16.136 5.47 16.2785 5.565C17.0195 6.0685 17.675 6.686 18.207 7.408Z" stroke="white" stroke-width="1.2" stroke-miterlimit="10"/>
<path d="M11.6428 12.1202C12.6029 12.1202 13.3813 11.3419 13.3813 10.3817C13.3813 9.4216 12.6029 8.64325 11.6428 8.64325C10.6826 8.64325 9.9043 9.4216 9.9043 10.3817C9.9043 11.3419 10.6826 12.1202 11.6428 12.1202Z" stroke="white" stroke-width="1.2" stroke-miterlimit="10"/>
<path d="M15.2062 16.5946L14.7787 14.4951C14.6077 13.6496 13.8572 13.0416 13.0022 13.0416H12.7647C12.4702 13.2981 12.0807 13.4691 11.6532 13.4691C11.2257 13.4691 10.8457 13.3076 10.5417 13.0416H10.1332C9.2687 13.0416 8.5277 13.6496 8.3567 14.4951L7.9292 16.5946C7.8627 16.9081 8.1002 17.1931 8.4137 17.1931H14.7122C15.0352 17.1931 15.2727 16.8986 15.2062 16.5946Z" stroke="white" stroke-width="1.2" stroke-miterlimit="10"/>
</svg>
