<svg width="220" height="220" viewBox="0 0 220 220" fill="none" xmlns="http://www.w3.org/2000/svg">
<g clip-path="url(#clip0)">
<path d="M110 220C170.651 220 220 170.655 220 110C220 99.5308 218.539 89.2139 215.645 79.3333C214.219 74.4747 209.146 71.684 204.274 73.1095C199.411 74.5306 196.629 79.622 198.05 84.4806C200.447 92.6894 201.667 101.279 201.667 110C201.667 160.544 160.544 201.667 110 201.667C59.4558 201.667 18.3333 160.544 18.3333 110C18.3333 59.4558 59.4558 18.3333 110 18.3333C128.369 18.3333 146.042 23.7044 161.108 33.8625C165.302 36.6935 171.004 35.5813 173.831 31.3873C176.66 27.1889 175.556 21.4911 171.358 18.6623C153.253 6.45426 132.037 0 110 0C49.3492 0 0 49.3447 0 110C0 170.655 49.3492 220 110 220Z" fill="#2D72C9"/>
<path d="M204.352 21.0179L110 115.366L79.8141 85.1845C76.2333 81.606 70.4326 81.606 66.8518 85.1845C63.2733 88.7652 63.2733 94.566 66.8518 98.1468L103.519 134.813C105.311 136.606 107.652 137.499 110 137.499C112.347 137.499 114.688 136.606 116.481 134.813L217.314 33.9801C220.893 30.3994 220.893 24.5986 217.314 21.0179C213.733 17.4394 207.933 17.4394 204.352 21.0179Z" fill="#2D72C9"/>
</g>
<defs>
<clipPath id="clip0">
<rect width="220" height="220" fill="white"/>
</clipPath>
</defs>
</svg>
