<svg width="120" height="120" viewBox="0 0 120 120" fill="none" xmlns="http://www.w3.org/2000/svg">
<g clip-path="url(#clip0)">
<path d="M59.9985 82.2383C56.6437 82.2383 53.8315 85.0504 53.8315 88.4052C53.8315 91.7601 56.6437 94.5722 59.9985 94.5722C63.23 94.5722 66.1655 91.7601 66.0175 88.5533C66.1655 85.0257 63.378 82.2383 59.9985 82.2383Z" fill="#F44335"/>
<path d="M117.08 104.09C120.953 97.4052 120.977 89.4375 117.129 82.7772L78.4994 15.878C74.6759 9.14365 67.7689 5.14746 60.0232 5.14746C52.2775 5.14746 45.3705 9.16832 41.547 15.8533L2.86776 82.8265C-0.98043 89.5609 -0.955762 97.5779 2.94176 104.263C6.78995 110.874 13.6723 114.845 21.3687 114.845H98.5297C106.251 114.845 113.182 110.825 117.08 104.09ZM108.693 99.2553C106.547 102.956 102.748 105.151 98.505 105.151H21.344C17.1504 105.151 13.3763 103.005 11.2795 99.3787C9.15806 95.7032 9.13339 91.3123 11.2548 87.6121L49.934 20.6635C52.0308 16.988 55.7803 14.8173 60.0232 14.8173C64.2414 14.8173 68.0156 17.0127 70.1123 20.6882L108.767 87.6368C110.839 91.2383 110.814 95.5798 108.693 99.2553Z" fill="#F44335"/>
<path d="M58.4689 38.9417C55.5334 39.7804 53.708 42.4445 53.708 45.676C53.856 47.6248 53.9794 49.5982 54.1274 51.547C54.5467 58.972 54.9661 66.249 55.3854 73.674C55.5334 76.1901 57.4822 78.0156 59.9983 78.0156C62.5144 78.0156 64.4879 76.0668 64.6112 73.526C64.6112 71.9966 64.6112 70.5905 64.7592 69.0365C65.0306 64.2756 65.3266 59.5147 65.5979 54.7538C65.7459 51.6703 66.0173 48.5868 66.1653 45.5033C66.1653 44.3933 66.0173 43.4066 65.5979 42.4198C64.3399 39.657 61.4044 38.251 58.4689 38.9417Z" fill="#F44335"/>
</g>
<defs>
<clipPath id="clip0">
<rect width="120" height="120" fill="white"/>
</clipPath>
</defs>
</svg>
