<svg width="24" height="24" viewBox="0 0 24 24" fill="none" xmlns="http://www.w3.org/2000/svg">
<path d="M11.8309 6.58998V4.09998C16.6409 4.09998 20.5309 7.99998 20.5309 12.8C20.5309 17.6 16.6309 21.5 11.8309 21.5C7.03086 21.5 3.13086 17.6 3.13086 12.8C3.13086 12.02 3.23086 11.25 3.43086 10.53H5.98086" stroke="#2D72C9" stroke-width="1.2" stroke-miterlimit="10" stroke-linecap="round"/>
<path d="M11.8293 14.35C12.6853 14.35 13.3793 13.656 13.3793 12.8C13.3793 11.944 12.6853 11.25 11.8293 11.25C10.9733 11.25 10.2793 11.944 10.2793 12.8C10.2793 13.656 10.9733 14.35 11.8293 14.35Z" stroke="#2D72C9" stroke-width="1.2" stroke-miterlimit="10" stroke-linecap="round"/>
<path d="M10.66 11.73L2.5 3.5" stroke="#2D72C9" stroke-width="1.2" stroke-miterlimit="10" stroke-linecap="round"/>
<path d="M14.9902 9.28002L16.6902 7.58002" stroke="#2D72C9" stroke-width="1.2" stroke-miterlimit="10" stroke-linecap="round"/>
<path d="M16.7207 10.79L18.4107 9.09003" stroke="#2D72C9" stroke-width="1.2" stroke-miterlimit="10" stroke-linecap="round"/>
</svg>
