<svg width="24" height="24" viewBox="0 0 24 24" fill="none" xmlns="http://www.w3.org/2000/svg">
<path d="M6.29 11.99V20.13C6.29 20.61 5.9 21 5.42 21H3.87C3.39 21 3 20.61 3 20.13V12.22" stroke="#2D72C9" stroke-width="1.2" stroke-miterlimit="10" stroke-linecap="round"/>
<path d="M3 9.22V3.37C3 2.89 3.39 2.5 3.87 2.5H5.42C5.9 2.5 6.29 2.89 6.29 3.37V8.99" stroke="#2D72C9" stroke-width="1.2" stroke-miterlimit="10"/>
<path d="M7.79 8.81995H1.5V11.8199H7.79V8.81995Z" stroke="#2D72C9" stroke-width="1.2" stroke-miterlimit="10" stroke-linecap="round"/>
<path d="M13.4795 17.65V20.3C13.4795 20.69 13.1595 21.01 12.7695 21.01H10.8995C10.5095 21.01 10.1895 20.69 10.1895 20.3V17.73" stroke="#2D72C9" stroke-width="1.2" stroke-miterlimit="10"/>
<path d="M10.1895 14.72V3.21C10.1895 2.82 10.4995 2.5 10.8995 2.5H12.7795C13.1695 2.5 13.4895 2.82 13.4895 3.21V14.65" stroke="#2D72C9" stroke-width="1.2" stroke-miterlimit="10" stroke-linecap="round"/>
<path d="M14.9795 14.8199H8.68945V17.8199H14.9795V14.8199Z" stroke="#2D72C9" stroke-width="1.2" stroke-miterlimit="10" stroke-linecap="round"/>
<path d="M20.6691 8.26001V20.2C20.6691 20.64 20.3091 21 19.8691 21H18.1691C17.7291 21 17.3691 20.64 17.3691 20.2V8.30001" stroke="#2D72C9" stroke-width="1.2" stroke-miterlimit="10" stroke-linecap="round"/>
<path d="M17.3809 4.3V3.3C17.3809 2.86 17.7409 2.5 18.1809 2.5H19.8809C20.3209 2.5 20.6809 2.86 20.6809 3.3V4.26" stroke="#2D72C9" stroke-width="1.2" stroke-miterlimit="10" stroke-linecap="round"/>
<path d="M22.1709 4.81995H15.8809V7.81995H22.1709V4.81995Z" stroke="#2D72C9" stroke-width="1.2" stroke-miterlimit="10" stroke-linecap="round"/>
</svg>
