<svg width="119" height="95" viewBox="0 0 119 95" fill="none" xmlns="http://www.w3.org/2000/svg">
<path opacity="0.1" d="M59.4279 95C92.2489 95 118.856 92.7614 118.856 90C118.856 87.2386 92.2489 85 59.4279 85C26.6068 85 0 87.2386 0 90C0 92.7614 26.6068 95 59.4279 95Z" fill="#646AA2"/>
<g clip-path="url(#clip0)">
<path d="M95.9645 80.0002H11.4975C7.84264 80.0002 5 77.1576 5 73.5028V17.0561C5 13.4012 7.84264 10.5586 11.4975 10.5586H95.9645C99.6193 10.5586 102.462 13.4012 102.462 17.0561V73.5028C102.462 77.1576 99.6193 80.0002 95.9645 80.0002Z" fill="url(#paint0_linear)"/>
<path d="M94.7471 67.4116H12.3105V69.036H94.7471V67.4116Z" fill="#FF6139"/>
<path d="M85.6132 68.9878H90.4863V23.5056H85.6132V68.9878Z" fill="#FF6139"/>
<path d="M77.6035 68.605H82.4766V30.4324H77.6035V68.605Z" fill="#FF6139"/>
<path d="M70.1777 68.8135H75.0508V38.7627H70.1777V68.8135Z" fill="#FF6139"/>
<path d="M62.3457 68.8135H67.2188V38.7627H62.3457V68.8135Z" fill="#FF6139"/>
<path d="M54.9199 68.9497H59.793V40.5233H54.9199V68.9497Z" fill="#FF6139"/>
<path d="M47.4941 68.9541H52.3672V48.2434H47.4941V68.9541Z" fill="#FF6139"/>
<path d="M39.6621 68.9619H44.5352V54.7487H39.6621V68.9619Z" fill="#FF6139"/>
<path d="M32.2363 68.7935H37.1094V57.0168H32.2363V68.7935Z" fill="#FF6139"/>
<path d="M24.8105 68.7935H29.6836V57.0168H24.8105V68.7935Z" fill="#FF6139"/>
<path d="M16.9804 68.7202H21.8535V63.0349H16.9804V68.7202Z" fill="#FF6139"/>
<path d="M73.2234 23.9594L72.4112 20.3046L67.9442 28.0203L56.5737 28.4264L42.3605 41.4213H32.2082L16.7767 57.2589L15.1523 55.6345L31.396 38.9848H41.5483L55.7615 26.3959L66.7259 25.9898L70.3808 19.4924L67.132 20.3046L68.7564 17.4619L73.6295 16.2437L74.8478 21.1167L73.2234 23.9594Z" fill="#2D72C9"/>
<path opacity="0.1" d="M85.8119 43.8587C97.6986 43.8587 107.335 34.2226 107.335 22.3358C107.335 10.4491 97.6986 0.812988 85.8119 0.812988C73.9252 0.812988 64.2891 10.4491 64.2891 22.3358C64.2891 34.2226 73.9252 43.8587 85.8119 43.8587Z" fill="#2D72C9"/>
<path d="M75.6589 5.27955C66.3188 10.9648 63.4761 23.1476 68.7553 32.4877C74.0345 41.8278 86.6233 44.6704 95.9634 39.3912C105.304 33.7059 108.146 21.5232 102.867 12.1831C97.1817 2.843 84.999 -0.405733 75.6589 5.27955ZM95.1513 37.3608C86.6233 42.2339 75.6589 39.7973 70.7858 31.2694C65.9127 22.7415 68.3492 11.777 76.8772 6.90391C85.4051 2.03082 96.3695 4.46736 101.243 12.9953C106.116 21.5232 103.273 32.4877 95.1513 37.3608Z" fill="white"/>
<path d="M105.304 10.9644C98.8067 -0.000115409 84.5935 -3.24885 73.629 3.65471C63.8828 9.74608 60.6341 22.741 65.9133 32.8933C71.5986 43.8578 84.5935 47.9187 95.1519 43.0456L108.553 64.9745C108.959 65.3806 109.771 65.7867 110.177 65.3806L112.208 64.1623C112.614 63.7562 113.02 62.944 112.614 62.538L99.6189 40.609C108.553 33.7055 111.396 20.7105 105.304 10.9644ZM95.9641 38.9847C87.03 44.2638 75.2534 41.4212 69.5681 32.4872C63.8828 23.5532 67.1316 11.7765 76.0656 6.09125C84.9996 0.405976 96.7762 3.65471 102.462 12.5887C107.741 21.5227 104.898 33.2994 95.9641 38.9847Z" fill="#2D72C9"/>
</g>
<defs>
<linearGradient id="paint0_linear" x1="5" y1="45.385" x2="102.468" y2="45.385" gradientUnits="userSpaceOnUse">
<stop stop-color="#E5E5E5"/>
<stop offset="1" stop-color="white"/>
</linearGradient>
<clipPath id="clip0">
<rect width="108.02" height="80" fill="white" transform="translate(5)"/>
</clipPath>
</defs>
</svg>
