<svg width="124" height="95" viewBox="0 0 124 95" fill="none" xmlns="http://www.w3.org/2000/svg">
<path opacity="0.1" d="M61.4279 95C94.2489 95 120.856 92.7614 120.856 90C120.856 87.2386 94.2489 85 61.4279 85C28.6068 85 2 87.2386 2 90C2 92.7614 28.6068 95 61.4279 95Z" fill="#646AA2"/>
<g clip-path="url(#clip0)">
<path d="M2.3994 14.4004C0.799401 14.4004 -0.400599 15.6004 -0.000599086 16.8004L12.7994 76.8004C13.1994 78.0004 13.9994 78.4004 14.7994 78.4004L111.599 77.2004C112.799 77.2004 113.599 76.4004 113.599 74.8004L113.199 18.0004C113.199 16.8004 112.399 16.0004 111.199 16.0004L2.3994 14.4004Z" fill="url(#paint0_linear)"/>
<path d="M14.0003 7.19922C12.8003 7.19922 11.6003 7.99922 12.0003 9.19922L16.8003 67.9992C16.8003 69.1992 17.6003 69.9992 18.8003 69.9992L105.2 69.1992C106.4 69.1992 107.2 68.3992 107.2 67.1992L110.4 12.7992C110.4 11.5992 109.6 10.7992 108.4 10.7992L14.0003 7.19922Z" fill="#FF6139"/>
<path d="M105.2 60C106.8 60 108.4 58.4 108 56.8L106.8 3.2C106.8 1.6 105.2 0 103.6 0L22.8 2.4C21.2 2.8 20 4 20 5.6L21.6 60C21.6 61.6 23.2 63.2 24.8 63.2L105.2 60Z" fill="#2D72C9"/>
<path d="M28.8 59.5996C27.2 59.5996 25.6 58.3996 25.6 56.3996L24 8.79961C24 7.19961 25.2 5.59961 27.2 5.59961L99.6 3.59961C101.2 3.59961 102.8 4.79961 102.8 6.39961L105.2 53.1996C105.2 54.7996 104 56.3996 102 56.3996L28.8 59.5996Z" fill="#FF6139"/>
<path d="M27.6004 53.6C27.6004 54.4 28.0004 54.8 28.8004 54.8H29.2004C30.0004 54.8 30.4004 54.4 30.4004 53.6L29.2004 9.2C28.8004 8.4 28.4004 8 28.0004 8H27.6004C26.8004 8 26.4004 8.4 26.4004 9.2L27.6004 53.6Z" fill="white"/>
<path d="M33.6 49.6004C34 49.6004 34.8 49.2004 34.8 48.4004L34.4 9.60039C34.4 8.80039 34 8.40039 33.2 8.40039C32.4 8.40039 32 8.80039 32 9.60039L32.8 48.4004C32.4 49.2004 33.2 49.6004 33.6 49.6004Z" fill="white"/>
<path d="M102.4 51.6008L100.4 7.60078C100.4 6.80078 100 6.40078 99.6 5.60078C99.2 5.20078 98.4 4.80078 97.6 4.80078L38.4 8.00078C37.6 8.00078 37.2 8.40078 36.4 9.20078C36 9.60078 36 10.4008 36 10.8008L38.4 54.4008C38.4 56.0008 39.6 57.2008 41.2 56.8008L100 54.4008C101.6 54.0008 102.4 52.8008 102.4 51.6008ZM40.8 56.4008C40 56.4008 38.8 55.6008 38.8 54.8008L36.8 10.8008C36.8 10.4008 36.8 10.0008 37.2 9.60078C37.6 9.20078 38 9.20078 38.4 9.20078H41.6L43.2 56.0008L40.8 56.4008ZM100 53.2008L44 56.0008L42.8 8.80078L98 6.00078C98.4 6.00078 98.8 6.00078 99.2 6.40078C99.6 6.80078 99.6 7.20078 99.6 7.60078L101.6 51.2008C101.6 52.4008 100.8 53.2008 100 53.2008Z" fill="white"/>
<path d="M124.2 79.9994L25.3996 78.7994C23.7996 78.7994 22.5996 77.5994 22.5996 75.9994L23.3996 16.7994C23.3996 14.3994 25.3996 11.9994 28.1996 12.3994L123.4 13.5994C126.2 13.5994 128.2 15.9994 128.2 18.7994L127.4 77.5994C127 78.7994 125.8 79.9994 124.2 79.9994Z" fill="url(#paint1_linear)"/>
<path opacity="0.7" d="M70.1993 15.5992C70.1993 15.5992 69.7993 15.5992 70.1993 15.5992C69.7993 15.1992 70.1993 15.1992 70.1993 15.5992L80.1993 15.1992L70.1993 15.5992Z" fill="url(#paint2_linear)"/>
<path opacity="0.7" d="M47.7988 15.5992C47.7988 15.1992 47.7988 15.1992 47.7988 15.5992L66.9988 15.1992L47.7988 15.5992Z" fill="url(#paint3_linear)"/>
<path opacity="0.7" d="M26.1992 27.5992V18.3992C26.1992 16.3992 27.7992 15.1992 29.3992 15.1992H40.5992H29.3992C28.1992 15.5992 26.5992 17.1992 26.5992 18.7992L26.1992 27.5992C26.5992 27.5992 26.5992 27.5992 26.1992 27.5992Z" fill="url(#paint4_linear)"/>
</g>
<defs>
<linearGradient id="paint0_linear" x1="41.5996" y1="21.2359" x2="-24.726" y2="-59.231" gradientUnits="userSpaceOnUse">
<stop stop-color="#E5E5E5"/>
<stop offset="1" stop-color="white"/>
</linearGradient>
<linearGradient id="paint1_linear" x1="27.0668" y1="89.2794" x2="92.288" y2="31.4278" gradientUnits="userSpaceOnUse">
<stop stop-color="#E5E5E5"/>
<stop offset="1" stop-color="white"/>
</linearGradient>
<linearGradient id="paint2_linear" x1="69.9977" y1="15.2772" x2="80.2253" y2="15.2772" gradientUnits="userSpaceOnUse">
<stop stop-color="#E5E5E5"/>
<stop offset="1" stop-color="white"/>
</linearGradient>
<linearGradient id="paint3_linear" x1="47.7588" y1="15.386" x2="67.452" y2="15.386" gradientUnits="userSpaceOnUse">
<stop stop-color="#E5E5E5"/>
<stop offset="1" stop-color="white"/>
</linearGradient>
<linearGradient id="paint4_linear" x1="26.1976" y1="21.5164" x2="41.0552" y2="21.5164" gradientUnits="userSpaceOnUse">
<stop stop-color="#E5E5E5"/>
<stop offset="1" stop-color="white"/>
</linearGradient>
<clipPath id="clip0">
<rect width="123.6" height="80" fill="white"/>
</clipPath>
</defs>
</svg>
