<svg width="150" height="150" viewBox="0 0 150 150" fill="none" xmlns="http://www.w3.org/2000/svg">
<g clip-path="url(#clip0)">
<path d="M117.505 96.0909H33.4646C29.8283 96.0909 27 93.2626 27 89.6263V33.4646C27 29.8283 29.8283 27 33.4646 27H117.505C121.141 27 123.97 29.8283 123.97 33.4646V89.6263C123.97 93.2626 121.141 96.0909 117.505 96.0909Z" fill="url(#paint0_linear)"/>
<path d="M84.7774 100.131H66.1916C64.5754 100.131 63.3633 101.343 63.3633 102.96V104.576C63.3633 106.192 64.5754 107.404 66.1916 107.404H85.1815C86.7976 107.404 88.0097 106.192 88.0097 104.576V102.96C87.6057 101.343 86.3936 100.131 84.7774 100.131Z" fill="url(#paint1_linear)"/>
<path d="M77.9095 89.2226H35.4853C34.6772 89.2226 33.8691 88.4145 33.8691 87.6064C33.8691 86.7983 34.6772 85.9902 35.4853 85.9902H77.5055C78.3136 85.9902 79.1217 86.7983 79.1217 87.6064C79.1217 88.4145 78.7176 89.2226 77.9095 89.2226Z" fill="white"/>
<path d="M61.7479 64.9799H35.4853C34.6772 64.9799 33.8691 64.5758 33.8691 63.3637C33.8691 62.1516 34.6772 61.7476 35.4853 61.7476H61.3439C62.556 61.7476 63.3641 62.5556 63.3641 63.3637C63.3641 64.1718 62.556 64.9799 61.7479 64.9799Z" fill="white"/>
<path d="M73.8691 77.101H35.4853C34.6772 77.101 33.8691 76.2929 33.8691 75.4848C33.8691 74.6767 34.6772 73.8687 35.4853 73.8687H73.4651C74.2732 73.8687 75.0813 74.6767 75.0813 75.4848C75.0813 76.2929 74.6772 77.101 73.8691 77.101Z" fill="white"/>
<path d="M77.5055 39.1211H33.8691V54.0706H77.5055V39.1211Z" fill="#2D72C9"/>
<path d="M115.89 38.3135H83.5664V86.7983H115.89V38.3135Z" fill="#FF6139"/>
<path d="M85.5849 87.6052C85.1809 87.6052 85.1809 87.6052 84.7769 87.2011C83.9688 86.7971 83.9688 85.989 84.3728 85.1809L92.4536 73.4638C92.8577 72.6557 93.6657 72.6557 94.4738 73.0597L101.343 76.292L112.656 61.7466C113.06 60.9385 114.272 60.9385 114.676 61.3425C115.484 61.7466 115.484 62.5547 115.08 63.3627L103.363 79.1203C102.959 79.5244 102.151 79.9284 101.343 79.5244L94.4738 76.292L87.2011 86.7971C86.393 87.6052 85.989 87.6052 85.5849 87.6052Z" fill="white"/>
<path d="M85.5849 69.4238C85.1809 69.4238 85.1809 69.4238 84.7769 69.0198C83.9688 68.6157 83.9688 67.8077 84.3728 66.9996L92.4536 55.2824C92.8577 54.4743 93.6657 54.4743 94.4738 54.8784L101.343 58.1107L112.656 43.5652C112.656 43.1612 113.464 43.1612 114.272 43.5652C115.08 43.9693 115.08 44.7774 114.676 45.5854L102.959 61.343C102.555 61.7471 101.747 62.1511 100.938 61.7471L94.0698 58.5147L86.7971 69.0198C86.393 69.4238 85.989 69.4238 85.5849 69.4238Z" fill="white"/>
</g>
<path opacity="0.1" d="M75.4279 122C108.249 122 134.856 119.761 134.856 117C134.856 114.239 108.249 112 75.4279 112C42.6068 112 16 114.239 16 117C16 119.761 42.6068 122 75.4279 122Z" fill="#646AA2"/>
<defs>
<linearGradient id="paint0_linear" x1="75" y1="91" x2="75" y2="13" gradientUnits="userSpaceOnUse">
<stop stop-color="#E5E5E5"/>
<stop offset="1" stop-color="white"/>
</linearGradient>
<linearGradient id="paint1_linear" x1="75.9995" y1="113" x2="75.9995" y2="84.9998" gradientUnits="userSpaceOnUse">
<stop stop-color="#E5E5E5"/>
<stop offset="1" stop-color="white"/>
</linearGradient>
<clipPath id="clip0">
<rect width="96.9697" height="80" fill="white" transform="translate(27 27)"/>
</clipPath>
</defs>
</svg>
