<svg width="416" height="270" viewBox="0 0 416 270" fill="none" xmlns="http://www.w3.org/2000/svg">
<path d="M60.6692 54.5014C57.4221 54.4603 54.9971 57.4197 55.6959 60.5845L85.2894 199.263C85.7826 201.606 87.8788 203.291 90.2628 203.25L313.488 200.866C316.283 200.825 318.503 198.564 318.462 195.769L317.023 62.6396C316.982 59.8858 314.804 57.7074 312.05 57.6663L60.6692 54.5014Z" fill="#DADDE3"/>
<path opacity="0.15" d="M131.039 5.54817C128.326 4.76723 125.532 6.53462 125.079 9.32957L103.501 143.98C103.09 146.446 104.693 148.748 107.077 149.324L301.572 194.988C303.997 195.563 306.422 194.166 307.162 191.782L344.277 71.3527C345.058 68.8044 343.62 66.1327 341.071 65.3929L131.039 5.54817Z" fill="#B5BDC9"/>
<path opacity="0.4" d="M306.789 174.192C310.652 174.973 314.434 172.507 315.256 168.685L341.068 47.31C341.89 43.4464 339.424 39.6239 335.56 38.8019L153.765 0.165853C149.902 -0.65619 146.12 1.80994 145.257 5.67354L118.911 127.952C118.089 131.857 120.555 135.68 124.46 136.461L306.789 174.192Z" fill="#B5BDC9"/>
<path opacity="0.5" d="M135.065 131.608C131.078 130.828 128.489 126.882 129.393 122.936L153.15 14.5495C154.013 10.6448 157.877 8.1376 161.782 9.00075L324.752 44.4719C328.615 45.2939 331.081 49.0753 330.342 52.9389L309.832 158.777C309.051 162.723 305.228 165.312 301.282 164.531L135.065 131.608Z" fill="#B5BDC9"/>
<path d="M136.38 117.145C136.092 118.543 136.996 119.94 138.394 120.228L139.298 120.434C140.695 120.721 142.093 119.817 142.38 118.42L163.754 18.0071C164.041 16.6096 163.137 15.2121 161.74 14.9244L160.835 14.7189C159.438 14.4312 158.04 15.3354 157.753 16.7329L136.38 117.145Z" fill="white"/>
<path d="M152.083 111.427C153.44 111.633 154.714 110.77 155.043 109.454L175.306 21.9891C175.635 20.5505 174.731 19.1531 173.292 18.8654L173.087 18.8243C171.689 18.5365 170.333 19.3997 170.004 20.7972L149.946 108.304C149.576 109.742 150.563 111.181 152.083 111.427Z" fill="white"/>
<path d="M305.102 153.721C305.102 153.68 305.102 153.68 305.102 153.639L324.954 54.5004C325.283 52.8563 324.954 51.2122 324.009 49.8147C323.063 48.4173 321.666 47.513 320.022 47.1842L185.33 21.2076C183.686 20.8788 182.042 21.2487 180.686 22.153C179.329 23.0983 178.384 24.4958 178.055 26.0988L158.984 125.237C158.326 128.566 160.546 131.855 163.875 132.471L297.827 158.489C301.156 159.188 304.403 157.05 305.102 153.721ZM164.286 130.498C162.066 130.046 160.587 127.909 160.998 125.648L180.069 26.5098C180.275 25.4412 180.891 24.4958 181.795 23.8793C182.741 23.2628 183.85 23.0161 184.96 23.2628L192.441 24.7013L169.752 131.402C169.752 131.444 169.752 131.526 169.711 131.567L164.286 130.498ZM298.238 156.516L171.684 131.937C171.684 131.896 171.725 131.855 171.725 131.814L194.455 25.0712L319.652 49.2393C320.762 49.4448 321.666 50.0613 322.283 51.0067C322.899 51.9109 323.105 53.0207 322.899 54.1305L303.047 153.269V153.31C302.595 155.488 300.457 156.927 298.238 156.516Z" fill="white"/>
<path d="M332.719 206.089L104.067 203.129C100.533 203.088 97.7377 200.211 97.7788 196.676L99.5462 60.1351C99.6284 54.2164 104.478 49.4897 110.356 49.5719L329.759 52.4079C336.13 52.4901 341.227 57.7101 341.145 64.0809L339.418 199.554C339.336 203.212 336.336 206.13 332.719 206.089Z" fill="#E6E8EF"/>
<path opacity="0.7" d="M207.89 57.1319C207.684 57.1319 207.479 56.9675 207.479 56.7208C207.479 56.5153 207.643 56.3098 207.89 56.3098L230.701 56.1865C230.907 56.1865 231.112 56.3509 231.112 56.5975C231.112 56.8031 230.948 57.0086 230.701 57.0086L207.89 57.1319Z" fill="#E6E8EF"/>
<path opacity="0.7" d="M156.552 57.4237C156.346 57.4237 156.141 57.2593 156.141 57.0127C156.141 56.8072 156.305 56.6017 156.552 56.6017L201.23 56.314C201.435 56.314 201.641 56.4784 201.641 56.725C201.641 56.9305 201.476 57.136 201.23 57.136L156.552 57.4237Z" fill="#E6E8EF"/>
<path opacity="0.7" d="M106.739 85.3718C106.493 85.3718 106.328 85.1663 106.328 84.9608L106.616 64.4919C106.657 60.2995 110.11 56.888 114.302 56.888L140.237 56.7236C140.443 56.7236 140.648 56.888 140.648 57.1347C140.648 57.3402 140.484 57.5457 140.237 57.5457L114.302 57.7101C110.562 57.7512 107.479 60.7927 107.438 64.533L107.15 85.0019C107.15 85.2074 106.986 85.3718 106.739 85.3718Z" fill="#E6E8EF"/>
<path opacity="0.15" d="M205.651 239.401C265.049 239.401 313.201 233.961 313.201 227.251C313.201 220.54 265.049 215.101 205.651 215.101C146.252 215.101 98.1006 220.54 98.1006 227.251C98.1006 233.961 146.252 239.401 205.651 239.401Z" fill="#B5BDC9"/>
</svg>
