<svg width="119" height="95" viewBox="0 0 119 95" fill="none" xmlns="http://www.w3.org/2000/svg">
<path opacity="0.1" d="M59.4279 95C92.2489 95 118.856 92.7614 118.856 90C118.856 87.2386 92.2489 85 59.4279 85C26.6068 85 0 87.2386 0 90C0 92.7614 26.6068 95 59.4279 95Z" fill="#646AA2"/>
<g clip-path="url(#clip0)">
<path d="M49.9288 59.8804L39.8689 69.9403C35.5575 74.2517 28.8509 74.2517 24.5395 69.9403C20.2282 65.6289 20.2282 58.9223 24.5395 54.611L44.6593 34.4912C48.9707 30.1798 55.6773 30.1798 59.9886 34.4912C61.4258 35.9283 63.821 35.9283 65.2581 34.4912C66.6952 33.0541 66.6952 30.6589 65.2581 29.2217C58.0725 22.0361 47.0545 22.0361 39.8689 29.2217L19.2701 49.3415C12.0845 56.5271 12.0845 67.5451 19.2701 74.7307C26.4557 81.9164 37.4737 81.9164 44.6593 74.7307L54.7192 64.6708C56.1563 63.2337 56.1563 60.8385 54.7192 59.4014C53.2821 58.4433 51.3659 58.4433 49.9288 59.8804Z" fill="url(#paint0_linear)"/>
<path d="M68.6123 20.5994L78.6721 10.5395C82.9835 6.22813 89.6901 6.22813 94.0015 10.5395C98.3129 14.8509 98.3129 21.5575 94.0015 25.8688L73.8817 45.9886C69.5703 50.3 62.8638 50.3 58.5524 45.9886C57.1153 44.5515 54.72 44.5515 53.2829 45.9886C51.8458 47.4257 51.8458 49.8209 53.2829 51.2581C60.4686 58.4437 71.4865 58.4437 78.6721 51.2581L98.7919 31.1383C105.978 23.9527 105.978 12.9347 98.7919 5.74908C91.6063 -1.43654 80.5883 -1.43654 73.4027 5.74908L63.3428 15.3299C61.9057 16.767 61.9057 19.1623 63.3428 20.5994C64.7799 22.0365 67.1751 22.0365 68.6123 20.5994Z" fill="url(#paint1_linear)"/>
</g>
<defs>
<linearGradient id="paint0_linear" x1="58.0002" y1="24" x2="14.0002" y2="74" gradientUnits="userSpaceOnUse">
<stop stop-color="#0E54AC"/>
<stop offset="1" stop-color="#3E6BAB"/>
</linearGradient>
<linearGradient id="paint1_linear" x1="58.001" y1="57" x2="93.001" y2="8" gradientUnits="userSpaceOnUse">
<stop stop-color="#F7572E"/>
<stop offset="1" stop-color="#FF6139"/>
</linearGradient>
<clipPath id="clip0">
<rect width="90.5389" height="80" fill="white" transform="translate(14)"/>
</clipPath>
</defs>
</svg>
