<svg width="376" height="400" viewBox="0 0 376 400" fill="none" xmlns="http://www.w3.org/2000/svg">
<g clip-path="url(#clip0)">
<path opacity="0.4" d="M344.152 387.582C344.152 394.415 267.148 399.934 172.076 399.934C77.0039 399.934 0 394.415 0 387.582C0 380.749 77.0696 379.96 172.076 379.96C267.148 379.96 344.152 380.749 344.152 387.582Z" fill="#646AA2"/>
<path d="M261.563 199.869H59.1976C53.5472 199.869 49.0137 195.335 49.0137 189.685V25.6898C49.0137 20.0394 53.5472 15.5059 59.1976 15.5059H261.563C267.213 15.5059 271.747 20.0394 271.747 25.6898V189.685C271.747 195.335 267.213 199.869 261.563 199.869Z" fill="url(#paint0_linear)"/>
<path d="M262.68 175.953H75.623V179.698H262.68V175.953Z" fill="#D6D6D6"/>
<path d="M242.314 179.296H253.221V76.077H242.314V179.296Z" fill="#D6D6D6"/>
<path d="M223.953 179.258H234.859V92.6617H223.953V179.258Z" fill="#D6D6D6"/>
<path d="M206.789 179.248H217.695V110.654H206.789V179.248Z" fill="#D6D6D6"/>
<path d="M189.626 179.248H200.533V110.654H189.626V179.248Z" fill="#D6D6D6"/>
<path d="M172.398 179.302H183.305V114.716H172.398V179.302Z" fill="#D6D6D6"/>
<path d="M155.234 179.289H166.141V132.246H155.234V179.289Z" fill="#D6D6D6"/>
<path d="M138.005 179.274H148.912V146.949H138.005V179.274Z" fill="#D6D6D6"/>
<path d="M120.843 179.3H131.75V152.165H120.843V179.3Z" fill="#D6D6D6"/>
<path d="M103.679 179.3H114.586V152.165H103.679V179.3Z" fill="#D6D6D6"/>
<path d="M86.4507 179.299H97.3574V166.75H86.4507V179.299Z" fill="#D6D6D6"/>
<path d="M234.954 53.5478L232.588 44.218L220.828 64.126L190.013 65.9657L151.971 100.197H124.901L83.2455 143.035L79.1719 139.093L122.536 94.5465H149.803L187.713 60.3809L217.477 58.6726L227.726 41.327L218.462 43.758L222.602 36.7278L235.808 33.377L239.159 46.5176L234.954 53.5478Z" fill="#FF6139"/>
<path d="M327.399 391.656L298.949 392.313L317.872 382.589L318.529 377.201C321.42 377.201 323.325 375.756 326.216 375.756C327.004 380.289 327.399 391.656 327.399 391.656Z" fill="#38313A"/>
<path d="M281.604 388.633L253.154 389.29L271.88 381.34L272.734 374.179C275.625 374.179 276.282 376.15 279.238 376.15C280.027 380.683 281.604 388.633 281.604 388.633Z" fill="#38313A"/>
<path d="M246.518 197.569C246.518 197.569 324.113 188.567 337.713 198.16L313.14 116.688L306.439 60.8408L290.604 61.235L278.843 64.5202L246.518 197.569Z" fill="#30323E"/>
<path d="M224.377 117.083C222.011 112.221 221.157 108.738 220.96 102.825C220.763 96.912 215.112 90.7359 215.112 90.7359C214.521 90.0131 210.907 88.9619 210.382 90.0788C209.856 91.1958 212.484 91.1958 213.141 93.5611C213.733 95.9264 212.287 95.9921 211.367 95.795C210.448 95.5979 203.483 81.7346 201.709 82.2602C199.935 82.8515 205.651 93.0355 206.308 95.0066C206.9 96.9777 204.469 97.3719 203.943 98.4888C203.352 99.6058 204.074 99.8686 203.483 101.051C202.892 102.3 203.483 104.074 205.126 106.242C206.768 108.41 213.01 110.447 213.93 112.286C214.193 112.812 215.704 116.689 218.069 121.945C220.303 120.499 222.603 119.054 224.902 117.74C224.574 117.608 224.442 117.346 224.377 117.083Z" fill="#ED9264"/>
<path d="M206.571 95.0725C206.571 95.0725 215.506 101.84 213.798 103.154C212.09 104.468 204.928 97.3064 204.928 97.3064C204.928 97.3064 212.878 103.548 211.499 104.665C210.119 105.782 203.22 100.46 203.22 100.46C203.22 100.46 210.447 105.256 209.133 105.848C207.819 106.373 203.22 102.563 203.22 102.563C203.22 102.563 202.563 101.117 202.826 100.263C203.089 99.4089 202.694 99.0147 202.891 98.489C203.089 97.9634 204.008 97.175 204.403 96.8465C204.665 96.5179 204.797 94.5469 206.571 95.0725Z" fill="#F9A475"/>
<path d="M222.273 105.913L212.154 112.747C212.154 112.747 230.485 155.782 234.493 155.782C238.501 155.782 260.775 125.361 260.775 125.361L260.315 71.6821C260.315 71.6821 237.516 128.515 235.282 128.515C233.114 128.515 222.273 105.913 222.273 105.913Z" fill="url(#paint1_linear)"/>
<path d="M271.026 378.515H284.823C284.823 378.515 294.613 303.022 288.962 270.959C286.794 258.607 290.671 218.2 290.736 200C290.802 171.091 288.043 165.112 288.043 165.112L266.492 172.471C266.492 172.471 264.784 270.565 266.558 279.041C268.2 287.451 271.026 378.515 271.026 378.515Z" fill="url(#paint2_linear)"/>
<path d="M316.885 171.091C316.885 171.091 320.367 261.892 324.112 274.967C328.58 290.408 328.317 378.055 328.317 378.055L314.322 377.333C314.322 377.333 301.773 294.415 298.948 282.063C296.123 269.711 283.705 212.024 283.705 212.024L265.965 201.906L266.359 172.471L316.885 171.091Z" fill="url(#paint3_linear)"/>
<path opacity="0.57" d="M309.723 218.068C311.629 218.068 314.52 218.2 319.119 218.331C317.87 194.35 316.885 171.091 316.885 171.091L294.809 171.682C297.897 199.015 303.941 218.068 309.723 218.068Z" fill="#262943"/>
<path d="M266.36 172.405L316.82 171.025C316.82 171.025 317.017 166.491 317.543 160.118C300.394 163.798 282.786 164.783 265.9 164.849L266.36 172.405Z" fill="#38202E"/>
<path d="M285.853 164.779L273.775 165.319L274.066 171.817L286.143 171.277L285.853 164.779Z" fill="#8C9FBF"/>
<path d="M333.377 70.4336L306.439 62.812L285.151 63.469L260.381 71.6162L265.966 164.849C282.851 164.783 300.46 163.798 317.608 160.118C318.331 151.183 319.711 138.633 322.207 129.763C326.412 114.652 333.377 70.4336 333.377 70.4336Z" fill="#C1E5E8"/>
<path d="M260.314 71.6821L265.899 164.915C266.753 164.915 268.462 164.915 268.462 164.915C265.111 130.881 278.646 68.8569 278.646 65.1118L260.314 71.6821Z" fill="#58868D"/>
<path d="M311.827 62.812C309.199 70.3679 291.393 124.507 293.561 157.03C293.693 159.264 293.89 161.498 294.087 163.666C301.971 162.943 309.856 161.826 317.609 160.184C318.332 151.248 319.711 138.699 322.208 129.829C326.413 114.652 333.378 70.4336 333.378 70.4336L311.827 62.812Z" fill="#58868D"/>
<path d="M308.87 61.6953C308.87 61.6953 295.203 114.849 296.846 145.664C298.489 176.544 303.548 199.475 308.41 199.475C313.272 199.475 334.691 201.117 337.713 198.095C340.736 195.072 326.018 135.348 326.084 123.719C326.15 112.09 333.377 70.4338 333.377 70.4338L308.87 61.6953Z" fill="url(#paint4_linear)"/>
<path opacity="0.57" d="M332.983 164.257C331.932 159.001 330.881 153.614 329.895 148.489C326.544 145.466 322.536 142.51 319.58 142.51C313.666 142.51 308.41 143.561 308.41 143.561L332.983 164.257Z" fill="#262943"/>
<path d="M278.646 65.0459C278.646 65.0459 261.169 155.585 261.169 172.602C261.169 189.619 265.966 198.029 260.381 200C254.796 201.971 246.518 197.635 246.518 197.635L260.381 71.7476L278.646 65.0459Z" fill="url(#paint5_linear)"/>
<path d="M320.5 66.0316L306.44 60.7754C306.44 60.7754 300.001 98.1604 297.701 124.902L309.659 94.4153V88.7649L320.5 66.0316Z" fill="#303030"/>
<path d="M278.777 64.4546L267.345 127.135L266.359 92.904L270.827 87.3849L267.673 68.0683L278.777 64.4546Z" fill="#303030"/>
<path d="M284.887 70.4337L282.391 60.841C282.391 60.841 301.313 58.5414 301.313 58.2129L304.927 62.9435L284.887 70.4337Z" fill="#3B5A5E"/>
<path d="M333.377 70.4336C333.377 70.4336 323.85 106.505 326.544 114.586C329.304 122.667 340.079 164.257 349.015 169.185L356.308 149.934L333.377 70.4336Z" fill="url(#paint6_linear)"/>
<path d="M332.917 80.8149L375.953 99.3432L341.262 163.338C341.262 163.338 316.557 142.182 308.41 143.561L332.917 80.8149Z" fill="#EDEDEB"/>
<path d="M367.149 142.51C367.149 142.51 369.777 122.076 369.777 120.368C369.777 118.725 364.85 110.315 361.367 110.315C357.951 110.315 353.811 110.644 353.811 111.432C353.811 112.221 358.411 112.549 359.988 112.549C361.564 112.549 363.667 116.886 363.667 117.937C363.667 118.988 357.688 114.783 354.731 114.783C351.84 114.783 348.161 115.309 349.541 116.689C350.92 118.068 354.009 116.82 355.651 117.608C357.228 118.397 359.856 121.222 359.856 121.222C359.856 121.222 355.914 120.565 350.92 120.171C346.058 119.777 347.57 122.011 350.592 122.273C352.892 122.47 359.265 124.376 359.265 124.376C359.265 124.376 351.512 123.456 350.461 124.442C349.672 125.23 355.717 126.216 358.805 127.07C359.987 127.398 358.805 131.8 359.265 132.72C361.039 136.334 358.936 142.05 358.936 142.05L367.149 142.51Z" fill="#ED9264"/>
<path d="M297.044 49.6711C297.569 49.3426 303.811 33.7053 303.811 33.7053C303.811 33.7053 308.016 21.9444 305.322 19.9734C302.628 18.0023 296.189 11.1034 290.539 10.972C284.889 10.8406 281.078 12.5489 280.618 12.8774C280.092 13.2059 276.479 19.382 276.479 19.382C276.479 19.382 278.187 17.2795 279.041 25.0325C279.895 32.7197 297.044 49.6711 297.044 49.6711Z" fill="#111011"/>
<path d="M282.852 49.0142C283.509 50.9853 283.246 65.3085 283.771 68.8565C284.297 72.4044 300.46 75.0326 300.788 64.98C301.248 52.1022 299.803 36.9248 299.803 36.9248L282.852 49.0142Z" fill="#F9A475"/>
<path d="M282.852 49.0142L288.502 45.0063L299.869 36.9248C299.869 36.9905 299.869 37.0562 299.869 37.2533C299.934 37.7132 300 38.6331 300.066 39.9471C300.066 40.21 300.131 40.4728 300.131 40.8013V40.867C300.197 41.7868 300.263 42.9038 300.329 44.0864C300.329 44.1521 300.329 44.2178 300.329 44.2835C300.329 44.5464 300.329 44.8749 300.394 45.1377C300.394 45.2691 300.394 45.4662 300.394 45.5976V45.6633C300.394 45.729 300.394 45.7947 300.394 45.8604V45.9261C300.394 46.0575 300.394 46.1232 300.394 46.2546C298.292 53.1535 290.342 60.7093 283.443 61.5634C283.443 61.1035 283.377 60.5779 283.377 60.118C283.311 55.1902 283.18 50.1311 282.852 49.0142Z" fill="#ED9264"/>
<path d="M300.46 25.0984C302.562 30.289 302.628 39.6845 297.7 46.8461C292.772 54.0078 285.939 57.6871 281.077 54.0735C276.215 50.4598 274.77 27.9236 278.318 22.0761C281.8 16.2285 297.306 17.2798 300.46 25.0984Z" fill="#F9A475"/>
<path d="M300.46 46.7804C300.46 46.7804 301.576 39.4216 304.402 37.5819C307.227 35.8079 308.541 34.691 309.001 32.0629C309.527 29.4348 314.52 25.8868 313.009 21.5504C311.498 17.2797 308.475 17.0826 304.73 9.65814C300.919 2.2337 296.912 -1.90559 288.107 0.853939C279.369 3.54776 278.12 8.93541 278.12 8.93541C278.12 8.93541 274.638 8.47549 271.879 12.8776C266.425 21.5504 285.085 26.7409 292.312 19.5793C295.795 16.097 300.328 19.3165 302.102 24.507C303.81 29.6976 296.32 37.8447 300.46 46.7804Z" fill="#38313A"/>
<path d="M298.817 33.1798C298.817 33.1798 301.905 27.9236 303.547 30.2232C305.124 32.5228 303.81 39.3559 300.394 39.4216C296.977 39.4873 298.817 33.1798 298.817 33.1798Z" fill="#F9A475"/>
<path d="M300.591 33.5739C300.591 33.5739 300.46 30.4858 302.103 31.5371C303.745 32.5226 302.103 37.4504 300.591 37.3847C299.015 37.2533 300.591 33.5739 300.591 33.5739Z" fill="#ED9264"/>
<path d="M283.048 32.1943C282.457 33.5741 282.063 35.0853 281.8 36.5307C281.34 39.7502 281.8 41.1299 281.865 41.3928C282.26 41.3271 283.245 41.1956 284.559 40.8014C283.705 40.8014 282.851 40.8014 281.997 40.8671L282.26 41.0642C282.128 38.1076 282.72 35.151 283.048 32.1943Z" fill="#172866"/>
<path d="M287.187 32.9827C286.99 33.9026 287.384 34.7567 288.107 34.8881C288.764 35.0195 289.487 34.3625 289.684 33.4426C289.881 32.5228 289.487 31.6687 288.764 31.5373C288.107 31.4058 287.384 32.0629 287.187 32.9827Z" fill="#38313A"/>
<path d="M277.924 31.6688C277.727 32.5886 278.121 33.4427 278.843 33.5741C279.501 33.7055 280.223 33.0485 280.42 32.1287C280.617 31.2088 280.223 30.3547 279.501 30.2233C278.843 30.0919 278.121 30.7489 277.924 31.6688Z" fill="#38313A"/>
<path d="M292.443 30.6174C292.443 30.6174 290.997 28.1206 288.632 27.6607C286.267 27.2008 286.99 29.1719 287.515 29.3033C288.107 29.369 292.574 30.1574 292.443 30.6174Z" fill="#38313A"/>
<path d="M281.144 26.478C281.144 26.478 278.319 27.3322 277.793 28.5805C277.793 28.5805 280.75 28.3177 281.275 27.6607C281.867 27.0037 281.144 26.478 281.144 26.478Z" fill="#38313A"/>
<path d="M291.13 44.9404C288.567 46.7144 284.625 48.357 281.537 47.8314C283.968 50.131 289.027 47.5029 291.13 44.9404Z" fill="white"/>
<path d="M356.702 139.422C356.702 139.422 344.941 157.096 344.152 160.775C343.364 164.389 348.949 169.185 348.949 169.185C348.949 169.185 353.154 170.762 357.096 169.185C361.038 167.608 369.251 142.313 369.251 142.313L356.702 139.422Z" fill="url(#paint7_linear)"/>
<path d="M284.298 65.1116L288.306 72.4046L293.365 65.0459L296.387 72.4703L288.7 77.3981L281.275 72.0104L284.298 65.1116Z" fill="#3B5A5E"/>
<path d="M293.363 65.0459V77.0695L306.044 62.8777L301.313 58.2784C301.313 58.2127 299.802 63.469 293.363 65.0459Z" fill="#ACD1D7"/>
<path d="M284.297 65.1118L293.43 65.506L291.524 77.3983L284.297 76.6098V65.1118Z" fill="#2D72C9"/>
<path d="M284.297 76.6099L291.524 77.3983L288.699 143.036L281.274 160.184L272.602 142.51L284.297 76.6099Z" fill="#2D72C9"/>
<path d="M293.364 65.7686L291.524 77.398L288.699 143.035L281.274 160.184L272.602 142.51L281.274 155.059L287.188 142.51L290.801 77.3323L293.364 65.7686Z" fill="#2C6DB5"/>
<path d="M281.998 76.0182L284.561 65.0458L282.458 60.8408L278.91 65.5057L281.998 76.0182Z" fill="#ACD1D7"/>
</g>
<defs>
<linearGradient id="paint0_linear" x1="156.352" y1="189.524" x2="165.087" y2="11.9179" gradientUnits="userSpaceOnUse">
<stop stop-color="#E5E5E5"/>
<stop offset="1" stop-color="white"/>
</linearGradient>
<linearGradient id="paint1_linear" x1="253.978" y1="118.779" x2="286.716" y2="143.438" gradientUnits="userSpaceOnUse">
<stop stop-color="#29002C"/>
<stop offset="1" stop-color="#330065"/>
</linearGradient>
<linearGradient id="paint2_linear" x1="297.267" y1="271.519" x2="350.413" y2="270.244" gradientUnits="userSpaceOnUse">
<stop stop-color="#29002C"/>
<stop offset="1" stop-color="#330065"/>
</linearGradient>
<linearGradient id="paint3_linear" x1="265.981" y1="274.54" x2="328.298" y2="274.54" gradientUnits="userSpaceOnUse">
<stop stop-color="#290051"/>
<stop offset="1" stop-color="#2A2A44"/>
</linearGradient>
<linearGradient id="paint4_linear" x1="296.705" y1="130.832" x2="338.097" y2="130.832" gradientUnits="userSpaceOnUse">
<stop stop-color="#290051"/>
<stop offset="1" stop-color="#2A2A44"/>
</linearGradient>
<linearGradient id="paint5_linear" x1="246.502" y1="132.739" x2="278.622" y2="132.739" gradientUnits="userSpaceOnUse">
<stop stop-color="#290051"/>
<stop offset="1" stop-color="#2A2A44"/>
</linearGradient>
<linearGradient id="paint6_linear" x1="326.039" y1="119.812" x2="356.309" y2="119.812" gradientUnits="userSpaceOnUse">
<stop stop-color="#29002C"/>
<stop offset="1" stop-color="#330065"/>
</linearGradient>
<linearGradient id="paint7_linear" x1="344.121" y1="154.664" x2="369.331" y2="154.664" gradientUnits="userSpaceOnUse">
<stop stop-color="#290051"/>
<stop offset="1" stop-color="#2A2A44"/>
</linearGradient>
<clipPath id="clip0">
<rect width="375.953" height="400" fill="white"/>
</clipPath>
</defs>
</svg>
